<svg xmlns="http://www.w3.org/2000/svg" width="511.922" height="477.948" viewBox="0 0 511.922 477.948">
  <g id="Group_1284" data-name="Group 1284" transform="translate(502.407 444.5)">
    <g id="Floor" transform="translate(-502.407 -262.11)">
      <ellipse id="Floor-2" data-name="Floor" cx="255.961" cy="147.779" rx="255.961" ry="147.779" transform="translate(0 0)" fill="#f0f0f0"/>
    </g>
    <g id="Shadow" transform="translate(-387.681 -104.261)">
      <ellipse id="Shadow-2" data-name="Shadow" cx="88.265" cy="50.96" rx="88.265" ry="50.96" fill="#e0e0e0"/>
    </g>
    <g id="Plants" transform="translate(-478.313 -222.402)">
      <g id="Plants-2" data-name="Plants" transform="translate(418.125 12.698)">
        <g id="Group_1247" data-name="Group 1247">
          <path id="Path_890" data-name="Path 890" d="M809.294,338.339l-10.35-5.976s-2.535-22.166-.848-39.332c2.37-24.122,17.948-53.147,36.533-46.331s-8.521,31.382-14.555,51.842S809.294,338.339,809.294,338.339Z" transform="translate(-797.517 -245.69)" fill="#27debf"/>
          <path id="Path_891" data-name="Path 891" d="M809.294,338.339l-10.35-5.976s-2.535-22.166-.848-39.332c2.37-24.122,17.948-53.147,36.533-46.331s-8.521,31.382-14.555,51.842S809.294,338.339,809.294,338.339Z" transform="translate(-797.517 -245.69)" fill="#be2f56" opacity="0.15"/>
          <path id="Path_892" data-name="Path 892" d="M814.748,350.537h.022a.627.627,0,0,0,.6-.648c-1.818-53.6,24.864-80.561,25.133-80.826a.626.626,0,1,0-.879-.893c-.275.27-27.342,27.619-25.507,81.762A.626.626,0,0,0,814.748,350.537Z" transform="translate(-808.414 -260.404)" fill="#fff"/>
        </g>
        <g id="Group_1248" data-name="Group 1248" transform="translate(10.841 31.433)">
          <path id="Path_893" data-name="Path 893" d="M836.828,403.03l-7.365-4.252s-1.253-15.211,6.2-33.689c6.492-16.086,22.6-29.431,30.7-26.627s7.9,8.55,3.951,14.576S842.339,373.43,836.828,403.03Z" transform="translate(-829.384 -338.088)" fill="#be2f56"/>
          <path id="Path_894" data-name="Path 894" d="M838.63,410.214h0a.627.627,0,0,0,.624-.63c-.146-33.889,31.675-56.794,32-57.022a.626.626,0,1,0-.725-1.022c-.326.231-32.674,23.515-32.526,58.05A.627.627,0,0,0,838.63,410.214Z" transform="translate(-835.071 -346.887)" fill="#fff"/>
        </g>
      </g>
      <g id="Plants-3" data-name="Plants">
        <g id="Group_1252" data-name="Group 1252" transform="translate(16.476)">
          <g id="Group_1249" data-name="Group 1249">
            <path id="Path_895" data-name="Path 895" d="M-352.826,300.394l9.556-6.449s4.207-25.039.3-47.032c-5.5-30.922-26.821-41.212-34.431-37.981s-9.236,12.454,4.962,30.107C-364.063,249.456-353.12,271.6-352.826,300.394Z" transform="translate(383.148 -208.365)" fill="#27debf"/>
          </g>
          <g id="Group_1250" data-name="Group 1250" opacity="0.15">
            <path id="Path_896" data-name="Path 896" d="M-352.826,300.394l9.556-6.449s4.207-25.039.3-47.032c-5.5-30.922-26.821-41.212-34.431-37.981s-9.236,12.454,4.962,30.107C-364.063,249.456-353.12,271.6-352.826,300.394Z" transform="translate(383.148 -208.365)"/>
          </g>
          <g id="Group_1251" data-name="Group 1251" transform="translate(10.475 4.403)">
            <path id="Path_897" data-name="Path 897" d="M-329.228,296.549a.815.815,0,0,1-.1-.005.692.692,0,0,1-.606-.769c3.452-29.115-8.84-60.7-22.208-73.271a.692.692,0,0,1-.03-.979.7.7,0,0,1,.979-.03c13.612,12.8,26.137,44.9,22.633,74.443A.693.693,0,0,1-329.228,296.549Z" transform="translate(352.356 -221.308)" fill="#fff"/>
          </g>
        </g>
        <g id="Group_1256" data-name="Group 1256" transform="translate(0 26.313)">
          <g id="Group_1253" data-name="Group 1253">
            <path id="Path_898" data-name="Path 898" d="M-409.815,368.314c-1.517.91-5.95-2.379-7.177-3.168a14.642,14.642,0,0,1-4.977-5.5,13.718,13.718,0,0,1-1.378-8.217,32.488,32.488,0,0,1,.957-4.4l1.141-4.277a10.771,10.771,0,0,0,.541-4.3c-.428-2.9-3.05-4.89-5.431-6.6-2.633-1.893-5.386-4.407-5.439-7.909-.041-2.7,1.31-5.239,2.943-7.392s3.585-4.065,5.055-6.333a8.6,8.6,0,0,0,1.657-5.476,8.971,8.971,0,0,0-1.251-3.377c-1.281-2.256-2.952-4.313-3.853-6.747s-.838-5.482,1.041-7.272c1.541-1.469,3.87-1.715,6-1.616a13.828,13.828,0,0,1,5.642,1.865c5.619,2.984,8.92,9.507,14.865,11.772,2.293.874,4.79,1.027,7.174,1.608s4.826,1.746,5.967,3.919c2.25,4.283-1.667,9.692-.055,14.254,1.426,4.037,5.4,5.516,7.692,9.135a8.687,8.687,0,0,1,1.14,5.3,25.515,25.515,0,0,1-2.069,9.032,80.092,80.092,0,0,1-4.748,8.549S-409.583,368.174-409.815,368.314Z" transform="translate(431.58 -285.712)" fill="#be2f56"/>
          </g>
          <g id="Group_1254" data-name="Group 1254" transform="translate(13.007 5.448)">
            <path id="Path_899" data-name="Path 899" d="M-369.9,369.872h-.019a.7.7,0,0,1-.688-.708c.613-27.506-12.923-57.6-22.51-66.232a.693.693,0,0,1-.051-.978.7.7,0,0,1,.978-.052c9.78,8.807,23.589,39.4,22.969,67.292A.693.693,0,0,1-369.9,369.872Z" transform="translate(393.346 -301.726)" fill="#fff"/>
          </g>
          <g id="Group_1255" data-name="Group 1255" transform="translate(10.494 35.842)">
            <path id="Path_900" data-name="Path 900" d="M-379.841,395.314a.676.676,0,0,1-.2-.028c-8.883-2.559-19.9-2.828-20.008-2.83a.694.694,0,0,1-.678-.708.673.673,0,0,1,.708-.678c.113,0,11.3.275,20.36,2.885a.691.691,0,0,1,.474.856A.692.692,0,0,1-379.841,395.314Z" transform="translate(400.731 -391.071)" fill="#fff"/>
          </g>
        </g>
      </g>
    </g>
    <g id="Speech_Bubble" data-name="Speech Bubble" transform="translate(-224.985 -397.591)">
      <g id="Speach_Bubble" data-name="Speach Bubble" transform="translate(0 0)">
        <g id="Group_1257" data-name="Group 1257">
          <path id="Path_901" data-name="Path 901" d="M400.83-58.295l-4.121-2.382a5.2,5.2,0,0,1-2.352-4.075V-235.889a5.2,5.2,0,0,1,2.352-4.074l114.454-66.08a5.2,5.2,0,0,1,4.7,0l4.122,2.38a5.2,5.2,0,0,1,2.352,4.074v171.137a5.2,5.2,0,0,1-2.352,4.074L405.534-58.294A5.2,5.2,0,0,1,400.83-58.295Z" transform="translate(-366.709 306.607)" fill="#455a64"/>
          <path id="Path_902" data-name="Path 902" d="M523.654-299.975c-.163-1.217-1.152-1.662-2.336-.978L406.87-234.863a4.868,4.868,0,0,0-1.662,1.749l-8.833-5.1a4.819,4.819,0,0,1,1.663-1.76L512.5-306.048a5.2,5.2,0,0,1,4.7,0l4.118,2.38A5.249,5.249,0,0,1,523.654-299.975Z" transform="translate(-368.041 306.61)" fill="#455a64"/>
          <path id="Path_903" data-name="Path 903" d="M405.141,74.559a5.247,5.247,0,0,1-4.3-.185l-4.129-2.39a5.211,5.211,0,0,1-2.347-4.074V-103.228a4.815,4.815,0,0,1,.684-2.314l8.833,5.1a4.749,4.749,0,0,0-.7,2.325V73.016C403.185,74.363,404.032,74.983,405.141,74.559Z" transform="translate(-366.714 173.943)" fill="#263238"/>
          <path id="Path_904" data-name="Path 904" d="M420.3-220.437V-49.3c0,1.5,1.053,2.108,2.352,1.358l114.456-66.084a5.2,5.2,0,0,0,2.352-4.074V-289.239c0-1.5-1.053-2.108-2.352-1.358L422.652-224.511A5.2,5.2,0,0,0,420.3-220.437Z" transform="translate(-383.828 296.257)" fill="#37474f"/>
          <path id="Path_905" data-name="Path 905" d="M322.832,35.533c-1.478-.88-8.333-4.78-8.692-4.987a2.193,2.193,0,0,1-.467-3.357l27.064-29.03,8.822,5.063L322.506,32.262A2.182,2.182,0,0,0,322.832,35.533Z" transform="translate(-313.088 105.521)" fill="#455a64"/>
          <path id="Path_906" data-name="Path 906" d="M366.677,13.054,339.618,42.087a2.176,2.176,0,0,0,1.771,3.653l25.287-2.082Z" transform="translate(-330.203 95.692)" fill="#37474f"/>
        </g>
        <g id="Group_1258" data-name="Group 1258" transform="translate(71.899 53.205)">
          <path id="Path_907" data-name="Path 907" d="M548.592-146.912c13.339-7.7,24.153-1.458,24.153,13.945s-10.814,34.132-24.153,41.834-24.153,1.458-24.153-13.945S535.252-139.212,548.592-146.912Z" transform="translate(-524.439 150.211)" fill="#27debf"/>
          <path id="Path_908" data-name="Path 908" d="M579.739-106.957c4.328-2.5,7.836-.473,7.836,4.523a17.321,17.321,0,0,1-7.836,13.573c-4.328,2.5-7.836.473-7.836-4.525A17.319,17.319,0,0,1,579.739-106.957Z" transform="translate(-555.756 122.378)" fill="#fff"/>
          <path id="Path_909" data-name="Path 909" d="M581.775-44.382c0-8.21-5.764-11.538-12.873-7.432l-4.445,2.566c-7.109,4.1-12.873,14.088-12.873,22.3v2.239a13.21,13.21,0,0,0,4.15.64,21.781,21.781,0,0,0,10.769-3.3c5.8-3.346,11.111-8.776,15.273-15.107Z" transform="translate(-542.349 86.448)" fill="#fff"/>
        </g>
        <path id="Path_910" data-name="Path 910" d="M545.9,212.721l30.6-17.668c1.3-.75,2.352-.142,2.352,1.358v9.856a5.2,5.2,0,0,1-2.352,4.074l-30.6,17.668c-1.3.75-2.352.142-2.352-1.358V216.8A5.2,5.2,0,0,1,545.9,212.721Z" transform="translate(-465.147 -24.181)" fill="#27debf"/>
        <path id="Path_911" data-name="Path 911" d="M500.963,114.341l60.554-34.96c1.559-.9,2.823-.17,2.823,1.63v3.668a6.24,6.24,0,0,1-2.823,4.889l-60.553,34.961c-1.559.9-2.823.17-2.823-1.63V119.23A6.239,6.239,0,0,1,500.963,114.341Z" transform="translate(-435.187 52.184)" fill="#fafafa"/>
        <g id="Group_1259" data-name="Group 1259" transform="translate(69.842 110.731)">
          <path id="Path_912" data-name="Path 912" d="M521.405,107.706q1.235-.714,1.92-.212t.684,2.231a6.456,6.456,0,0,1-.684,3.038,4.911,4.911,0,0,1-1.92,2.022l-1.635.943v3.509a.8.8,0,0,1-.082.346.5.5,0,0,1-.195.237l-.827.478a.148.148,0,0,1-.2-.013.339.339,0,0,1-.082-.252V109.872a.814.814,0,0,1,.082-.347.521.521,0,0,1,.2-.238Zm-1.635,6.056,1.583-.915a2.619,2.619,0,0,0,.93-.891,2.663,2.663,0,0,0,.347-1.434q0-.882-.347-1.019a1.115,1.115,0,0,0-.93.2l-1.583.913Z" transform="translate(-518.39 -77.214)" fill="#fafafa"/>
          <path id="Path_913" data-name="Path 913" d="M540.5,96.267c.108-.063.191-.066.245-.009a.761.761,0,0,1,.143.319l2.5,8.5a.461.461,0,0,1,.01.1.81.81,0,0,1-.082.346.507.507,0,0,1-.194.238l-.735.424c-.136.079-.232.089-.286.032a.461.461,0,0,1-.112-.2l-.44-1.492-3.228,1.865-.439,2a1.644,1.644,0,0,1-.112.325.667.667,0,0,1-.286.3l-.735.424a.148.148,0,0,1-.194-.015.33.33,0,0,1-.082-.25.6.6,0,0,1,.01-.117l2.5-11.387a2.328,2.328,0,0,1,.143-.484.585.585,0,0,1,.245-.275Zm.561,6.582-1.124-3.834-1.123,5.131Z" transform="translate(-530.321 -69.911)" fill="#fafafa"/>
          <path id="Path_914" data-name="Path 914" d="M562.4,83.723a2.66,2.66,0,0,1,1.205-.412,1.469,1.469,0,0,1,.869.206,1.408,1.408,0,0,1,.526.632,2.394,2.394,0,0,1,.2.852.678.678,0,0,1-.077.351.56.56,0,0,1-.2.232l-.716.413c-.116.068-.2.083-.26.049a.467.467,0,0,1-.159-.182.807.807,0,0,0-.464-.417,1.22,1.22,0,0,0-.925.243,2.789,2.789,0,0,0-.5.378,2.721,2.721,0,0,0-.419.495,2.445,2.445,0,0,0-.281.562,1.82,1.82,0,0,0-.1.594,1.126,1.126,0,0,0,.1.535.413.413,0,0,0,.327.2,1.857,1.857,0,0,0,.608-.045c.252-.051.566-.121.94-.212a3.84,3.84,0,0,1,1.058-.129,1.217,1.217,0,0,1,.725.241,1.327,1.327,0,0,1,.419.647,3.492,3.492,0,0,1,.138,1.069,5.277,5.277,0,0,1-.2,1.433,5.959,5.959,0,0,1-.582,1.374,6.272,6.272,0,0,1-.931,1.221,5.6,5.6,0,0,1-1.236.965,3.27,3.27,0,0,1-1.093.418,1.638,1.638,0,0,1-.924-.079,1.346,1.346,0,0,1-.65-.593,2.422,2.422,0,0,1-.275-1.1.677.677,0,0,1,.077-.351.549.549,0,0,1,.2-.232l.716-.413c.116-.068.2-.087.265-.059a.335.335,0,0,1,.154.193,1.681,1.681,0,0,0,.174.31.532.532,0,0,0,.275.2.908.908,0,0,0,.435.01,2.164,2.164,0,0,0,.648-.274,4.148,4.148,0,0,0,.593-.413,2.957,2.957,0,0,0,.5-.525,2.866,2.866,0,0,0,.347-.609,1.778,1.778,0,0,0,.133-.683.662.662,0,0,0-.142-.483.571.571,0,0,0-.435-.126,3.591,3.591,0,0,0-.721.117c-.285.07-.616.141-.991.21a2.982,2.982,0,0,1-.894.068,1.055,1.055,0,0,1-.633-.271,1.414,1.414,0,0,1-.372-.674,4.406,4.406,0,0,1-.122-1.149,5.165,5.165,0,0,1,.2-1.422,6.085,6.085,0,0,1,.562-1.347,5.981,5.981,0,0,1,.853-1.161A4.636,4.636,0,0,1,562.4,83.723Z" transform="translate(-545.521 -61.394)" fill="#fafafa"/>
          <path id="Path_915" data-name="Path 915" d="M583.363,71.62a2.684,2.684,0,0,1,1.205-.413,1.483,1.483,0,0,1,.87.206,1.417,1.417,0,0,1,.525.632,2.382,2.382,0,0,1,.2.852.667.667,0,0,1-.077.351.552.552,0,0,1-.2.232l-.716.414c-.116.067-.2.083-.26.049a.478.478,0,0,1-.158-.184.818.818,0,0,0-.465-.417,1.222,1.222,0,0,0-.925.243,2.776,2.776,0,0,0-.5.379,2.737,2.737,0,0,0-.419.493,2.452,2.452,0,0,0-.281.564,1.8,1.8,0,0,0-.1.594,1.122,1.122,0,0,0,.1.534.412.412,0,0,0,.327.2,1.893,1.893,0,0,0,.608-.045c.252-.051.566-.121.94-.212a3.894,3.894,0,0,1,1.058-.13,1.215,1.215,0,0,1,.725.241,1.321,1.321,0,0,1,.419.647,3.5,3.5,0,0,1,.138,1.07,5.285,5.285,0,0,1-.2,1.432,5.915,5.915,0,0,1-.583,1.373,6.226,6.226,0,0,1-.93,1.222,5.613,5.613,0,0,1-1.235.964,3.315,3.315,0,0,1-1.094.419,1.638,1.638,0,0,1-.924-.08,1.33,1.33,0,0,1-.649-.593,2.4,2.4,0,0,1-.276-1.1.665.665,0,0,1,.078-.35.536.536,0,0,1,.2-.233l.715-.413c.116-.067.2-.087.265-.059a.326.326,0,0,1,.154.193,1.826,1.826,0,0,0,.174.31.532.532,0,0,0,.276.2.9.9,0,0,0,.434.01,2.188,2.188,0,0,0,.649-.272,4.2,4.2,0,0,0,.592-.414,2.951,2.951,0,0,0,.5-.524,2.9,2.9,0,0,0,.348-.61,1.766,1.766,0,0,0,.132-.682.663.663,0,0,0-.142-.484.577.577,0,0,0-.435-.127,3.706,3.706,0,0,0-.721.117c-.285.071-.616.141-.991.211a3.016,3.016,0,0,1-.895.068,1.058,1.058,0,0,1-.632-.271,1.405,1.405,0,0,1-.374-.675,4.4,4.4,0,0,1-.122-1.148,5.178,5.178,0,0,1,.2-1.423,6.1,6.1,0,0,1,.562-1.347,6.009,6.009,0,0,1,.853-1.161A4.662,4.662,0,0,1,583.363,71.62Z" transform="translate(-559.352 -53.408)" fill="#fafafa"/>
          <path id="Path_916" data-name="Path 916" d="M605,61.284l-.878,5.211a2.58,2.58,0,0,1-.129.458.536.536,0,0,1-.229.282l-.829.479c-.1.059-.182.056-.24-.012a.6.6,0,0,1-.117-.316l-1.309-9.171a1.02,1.02,0,0,1-.01-.12.808.808,0,0,1,.082-.347.514.514,0,0,1,.194-.238l.756-.437a.209.209,0,0,1,.2-.017c.061.028.1.114.122.26l.858,6.174.757-4.636a2.1,2.1,0,0,1,.1-.34.578.578,0,0,1,.26-.324l.837-.484c.123-.071.21-.063.261.023a.767.767,0,0,1,.1.226l.757,3.764.858-7.165a.982.982,0,0,1,.123-.4.579.579,0,0,1,.194-.206l.755-.437a.148.148,0,0,1,.194.015.336.336,0,0,1,.082.251,1.208,1.208,0,0,1-.009.13l-1.308,10.682a1.67,1.67,0,0,1-.117.453.6.6,0,0,1-.241.288l-.828.477c-.1.06-.179.054-.23-.016a.932.932,0,0,1-.128-.312Z" transform="translate(-573.067 -41.713)" fill="#fafafa"/>
          <path id="Path_917" data-name="Path 917" d="M627.171,50.432a10.326,10.326,0,0,1,.22-1.787,7.763,7.763,0,0,1,.557-1.674,6.555,6.555,0,0,1,.919-1.443,4.893,4.893,0,0,1,1.309-1.094,2.581,2.581,0,0,1,1.3-.419,1.289,1.289,0,0,1,.92.382,2.382,2.382,0,0,1,.561,1.028,6.262,6.262,0,0,1,.226,1.537c.006.2.012.414.015.652s.005.487.005.744,0,.507-.005.75-.008.467-.015.67a10.373,10.373,0,0,1-.219,1.787,7.76,7.76,0,0,1-.557,1.674,6.382,6.382,0,0,1-.924,1.439,4.981,4.981,0,0,1-1.3,1.082,2.624,2.624,0,0,1-1.309.425,1.3,1.3,0,0,1-.919-.375,2.275,2.275,0,0,1-.557-1.031,6.542,6.542,0,0,1-.22-1.532c-.006-.2-.013-.412-.015-.652s-.005-.487-.005-.744,0-.507.005-.75S627.165,50.636,627.171,50.432Zm4.629-2.594a2.026,2.026,0,0,0-.475-1.48c-.29-.246-.673-.233-1.149.043a2.946,2.946,0,0,0-1.15,1.286,4.877,4.877,0,0,0-.475,2.028q-.021.61-.021,1.342c0,.488.007.925.021,1.317a1.987,1.987,0,0,0,.475,1.472q.435.363,1.15-.05a2.953,2.953,0,0,0,1.149-1.276A4.844,4.844,0,0,0,631.8,50.5q.021-.609.02-1.341C631.82,48.668,631.814,48.23,631.8,47.838Z" transform="translate(-590.152 -35.467)" fill="#fafafa"/>
          <path id="Path_918" data-name="Path 918" d="M653.249,31.682q1.276-.737,1.941-.208a2.683,2.683,0,0,1,.664,2.15,6.67,6.67,0,0,1-.342,2.156,5.414,5.414,0,0,1-1.007,1.785l1.41,3.072a.421.421,0,0,1,.031.156.662.662,0,0,1-.067.282.425.425,0,0,1-.158.193l-.869.5q-.2.118-.3.026a.588.588,0,0,1-.138-.195L653.076,38.7l-1.359.785v3.666a.8.8,0,0,1-.082.345.523.523,0,0,1-.194.239l-.827.478a.149.149,0,0,1-.194-.015.33.33,0,0,1-.082-.25V33.789a.791.791,0,0,1,.082-.346.525.525,0,0,1,.194-.24Zm-1.533,5.841,1.481-.855a2.76,2.76,0,0,0,.93-.852,2.467,2.467,0,0,0,.347-1.4q0-.88-.347-.979a1.281,1.281,0,0,0-.93.238l-1.481.855Z" transform="translate(-605.45 -27.047)" fill="#fafafa"/>
          <path id="Path_919" data-name="Path 919" d="M674.763,19.341a2.9,2.9,0,0,1,1.312-.452,1.26,1.26,0,0,1,.93.337,2.261,2.261,0,0,1,.572,1.038,7.12,7.12,0,0,1,.24,1.655q.041,1.139,0,2.328a11.263,11.263,0,0,1-.24,1.932,7.913,7.913,0,0,1-.567,1.7,5.987,5.987,0,0,1-.915,1.4,5.017,5.017,0,0,1-1.282,1.047l-2.575,1.487a.147.147,0,0,1-.194-.014.335.335,0,0,1-.082-.251V21.383a.81.81,0,0,1,.082-.346.52.52,0,0,1,.194-.239Zm1.675,3.374a3.68,3.68,0,0,0-.127-.862,1.266,1.266,0,0,0-.317-.572.726.726,0,0,0-.525-.2,1.6,1.6,0,0,0-.757.257l-1.369.789v7.079l1.42-.819a2.764,2.764,0,0,0,.726-.6A3.5,3.5,0,0,0,676,27a4.327,4.327,0,0,0,.312-.935,6.054,6.054,0,0,0,.127-1.018C676.465,24.252,676.465,23.477,676.438,22.715Z" transform="translate(-619.719 -18.889)" fill="#fafafa"/>
        </g>
      </g>
    </g>
    <g id="Question_Marks" data-name="Question Marks" transform="translate(-267.659 -444.5)">
      <g id="Question_Marks-2" data-name="Question Marks" transform="translate(0)">
        <g id="Group_1260" data-name="Group 1260">
          <path id="Path_920" data-name="Path 920" d="M206.007-444.092a20.119,20.119,0,0,1,5.37,2.016,15.457,15.457,0,0,1,4.27,3.393,12.223,12.223,0,0,1,2.518,4.563,10.8,10.8,0,0,1,.112,5.523,11,11,0,0,1-1.689,4.043,13.207,13.207,0,0,1-2.65,2.782,21.437,21.437,0,0,1-3.153,2.035q-1.656.874-3.132,1.657a17.716,17.716,0,0,0-2.672,1.729,5.072,5.072,0,0,0-1.671,2.237,2.414,2.414,0,0,1-.8,1.029,1.415,1.415,0,0,1-1.2.244l-4.606-1.021a1.7,1.7,0,0,1-1.074-.746,1.377,1.377,0,0,1-.2-1.251,10.806,10.806,0,0,1,1.919-3.93,15.137,15.137,0,0,1,2.832-2.742,21.858,21.858,0,0,1,3.237-1.984q1.678-.837,3.126-1.629a14.1,14.1,0,0,0,2.468-1.677,3.913,3.913,0,0,0,1.3-2.159,4.686,4.686,0,0,0-1.1-4.217,8.459,8.459,0,0,0-4.822-2.625q-5.15-1.141-8.714,3.474a3.51,3.51,0,0,1-.856.858,1.586,1.586,0,0,1-1.2.085l-4.907-1.087a1.369,1.369,0,0,1-.858-.572,1.287,1.287,0,0,1-.18-1.057,9.594,9.594,0,0,1,2.262-4.044,15.152,15.152,0,0,1,4.217-3.261,18.378,18.378,0,0,1,5.56-1.852A16.169,16.169,0,0,1,206.007-444.092Zm-5.2,34.953a1.6,1.6,0,0,1,1.042.74,1.606,1.606,0,0,1,.23,1.258l-1.181,5.332a1.6,1.6,0,0,1-.74,1.044,1.6,1.6,0,0,1-1.257.231l-5.211-1.154a1.614,1.614,0,0,1-1.045-.741,1.6,1.6,0,0,1-.23-1.258l1.181-5.332a1.616,1.616,0,0,1,.74-1.044,1.616,1.616,0,0,1,1.259-.229Z" transform="translate(-187.645 444.5)" fill="#be2f56"/>
        </g>
        <g id="Group_1261" data-name="Group 1261" transform="translate(14.663 51.188)">
          <path id="Path_921" data-name="Path 921" d="M240.248-293.844a13.883,13.883,0,0,1,3.958-.083,10.687,10.687,0,0,1,3.606,1.08,8.464,8.464,0,0,1,2.781,2.281,7.459,7.459,0,0,1,1.487,3.512,7.616,7.616,0,0,1-.049,3.026,9.07,9.07,0,0,1-.987,2.463,14.823,14.823,0,0,1-1.5,2.112q-.837.983-1.583,1.864a12.179,12.179,0,0,0-1.27,1.793,3.481,3.481,0,0,0-.5,1.86,1.68,1.68,0,0,1-.249.866.983.983,0,0,1-.706.463l-3.214.525a1.183,1.183,0,0,1-.881-.2.952.952,0,0,1-.448-.751,7.448,7.448,0,0,1,.225-3.01,10.386,10.386,0,0,1,1.113-2.483,15.026,15.026,0,0,1,1.567-2.1q.862-.964,1.587-1.845a9.7,9.7,0,0,0,1.153-1.706,2.714,2.714,0,0,0,.285-1.719,3.239,3.239,0,0,0-1.786-2.421,5.835,5.835,0,0,0-3.763-.449,5.629,5.629,0,0,0-4.7,4.458,2.4,2.4,0,0,1-.33.769,1.089,1.089,0,0,1-.744.361l-3.424.56a.949.949,0,0,1-.7-.146.893.893,0,0,1-.385-.632,6.612,6.612,0,0,1,.416-3.171,10.424,10.424,0,0,1,1.868-3.17,12.672,12.672,0,0,1,3.09-2.61A11.161,11.161,0,0,1,240.248-293.844Zm5.615,23.738a1.12,1.12,0,0,1,.859.207,1.118,1.118,0,0,1,.469.748l.608,3.722a1.109,1.109,0,0,1-.207.858,1.11,1.11,0,0,1-.748.469l-3.636.594a1.109,1.109,0,0,1-.858-.206,1.112,1.112,0,0,1-.47-.748l-.608-3.722a1.115,1.115,0,0,1,.207-.858,1.116,1.116,0,0,1,.748-.47Z" transform="translate(-230.749 294.031)" fill="#be2f56"/>
        </g>
        <g id="Group_1262" data-name="Group 1262" transform="translate(14.663 51.188)" opacity="0.2">
          <path id="Path_922" data-name="Path 922" d="M240.248-293.844a13.883,13.883,0,0,1,3.958-.083,10.687,10.687,0,0,1,3.606,1.08,8.464,8.464,0,0,1,2.781,2.281,7.459,7.459,0,0,1,1.487,3.512,7.616,7.616,0,0,1-.049,3.026,9.07,9.07,0,0,1-.987,2.463,14.823,14.823,0,0,1-1.5,2.112q-.837.983-1.583,1.864a12.179,12.179,0,0,0-1.27,1.793,3.481,3.481,0,0,0-.5,1.86,1.68,1.68,0,0,1-.249.866.983.983,0,0,1-.706.463l-3.214.525a1.183,1.183,0,0,1-.881-.2.952.952,0,0,1-.448-.751,7.448,7.448,0,0,1,.225-3.01,10.386,10.386,0,0,1,1.113-2.483,15.026,15.026,0,0,1,1.567-2.1q.862-.964,1.587-1.845a9.7,9.7,0,0,0,1.153-1.706,2.714,2.714,0,0,0,.285-1.719,3.239,3.239,0,0,0-1.786-2.421,5.835,5.835,0,0,0-3.763-.449,5.629,5.629,0,0,0-4.7,4.458,2.4,2.4,0,0,1-.33.769,1.089,1.089,0,0,1-.744.361l-3.424.56a.949.949,0,0,1-.7-.146.893.893,0,0,1-.385-.632,6.612,6.612,0,0,1,.416-3.171,10.424,10.424,0,0,1,1.868-3.17,12.672,12.672,0,0,1,3.09-2.61A11.161,11.161,0,0,1,240.248-293.844Zm5.615,23.738a1.12,1.12,0,0,1,.859.207,1.118,1.118,0,0,1,.469.748l.608,3.722a1.109,1.109,0,0,1-.207.858,1.11,1.11,0,0,1-.748.469l-3.636.594a1.109,1.109,0,0,1-.858-.206,1.112,1.112,0,0,1-.47-.748l-.608-3.722a1.115,1.115,0,0,1,.207-.858,1.116,1.116,0,0,1,.748-.47Z" transform="translate(-230.749 294.031)" fill="#be2f56"/>
        </g>
        <g id="Group_1263" data-name="Group 1263" transform="translate(46.577 29.977)">
          <path id="Path_923" data-name="Path 923" d="M332.865-329.133a1.323,1.323,0,0,1,.552.89,1.324,1.324,0,0,1-.228,1.022l-2.588,3.64a1.312,1.312,0,0,1-.89.551,1.316,1.316,0,0,1-1.022-.227l-3.558-2.529a1.315,1.315,0,0,1-.551-.889,1.311,1.311,0,0,1,.228-1.022l2.588-3.641a1.312,1.312,0,0,1,.89-.551,1.315,1.315,0,0,1,1.021.228Zm15.052-24.676a16.442,16.442,0,0,1,3.4,3.228,12.629,12.629,0,0,1,2.136,3.916,10.01,10.01,0,0,1,.444,4.238,8.829,8.829,0,0,1-1.675,4.2,8.989,8.989,0,0,1-2.56,2.507,10.706,10.706,0,0,1-2.883,1.252,17.633,17.633,0,0,1-3.023.53q-1.528.129-2.889.25a14.4,14.4,0,0,0-2.562.452,4.139,4.139,0,0,0-1.971,1.152,1.977,1.977,0,0,1-.931.521,1.157,1.157,0,0,1-.979-.2L331.279-334a1.4,1.4,0,0,1-.572-.9,1.126,1.126,0,0,1,.248-1.007,8.845,8.845,0,0,1,2.7-2.349,12.435,12.435,0,0,1,3.007-1.164,17.809,17.809,0,0,1,3.071-.464q1.529-.1,2.873-.231a11.532,11.532,0,0,0,2.395-.477,3.212,3.212,0,0,0,1.67-1.211,3.831,3.831,0,0,0,.514-3.527,6.916,6.916,0,0,0-2.795-3.513q-3.518-2.5-7.673-.16a2.863,2.863,0,0,1-.919.375,1.3,1.3,0,0,1-.927-.316l-3.352-2.383a1.119,1.119,0,0,1-.465-.7,1.054,1.054,0,0,1,.2-.853,7.838,7.838,0,0,1,2.992-2.327,12.385,12.385,0,0,1,4.218-1.113,14.982,14.982,0,0,1,4.777.376A13.226,13.226,0,0,1,347.917-353.809Z" transform="translate(-324.559 356.38)" fill="#be2f56"/>
        </g>
        <g id="Group_1264" data-name="Group 1264" transform="translate(46.577 29.977)" opacity="0.6">
          <path id="Path_924" data-name="Path 924" d="M332.865-329.133a1.323,1.323,0,0,1,.552.89,1.324,1.324,0,0,1-.228,1.022l-2.588,3.64a1.312,1.312,0,0,1-.89.551,1.316,1.316,0,0,1-1.022-.227l-3.558-2.529a1.315,1.315,0,0,1-.551-.889,1.311,1.311,0,0,1,.228-1.022l2.588-3.641a1.312,1.312,0,0,1,.89-.551,1.315,1.315,0,0,1,1.021.228Zm15.052-24.676a16.442,16.442,0,0,1,3.4,3.228,12.629,12.629,0,0,1,2.136,3.916,10.01,10.01,0,0,1,.444,4.238,8.829,8.829,0,0,1-1.675,4.2,8.989,8.989,0,0,1-2.56,2.507,10.706,10.706,0,0,1-2.883,1.252,17.633,17.633,0,0,1-3.023.53q-1.528.129-2.889.25a14.4,14.4,0,0,0-2.562.452,4.139,4.139,0,0,0-1.971,1.152,1.977,1.977,0,0,1-.931.521,1.157,1.157,0,0,1-.979-.2L331.279-334a1.4,1.4,0,0,1-.572-.9,1.126,1.126,0,0,1,.248-1.007,8.845,8.845,0,0,1,2.7-2.349,12.435,12.435,0,0,1,3.007-1.164,17.809,17.809,0,0,1,3.071-.464q1.529-.1,2.873-.231a11.532,11.532,0,0,0,2.395-.477,3.212,3.212,0,0,0,1.67-1.211,3.831,3.831,0,0,0,.514-3.527,6.916,6.916,0,0,0-2.795-3.513q-3.518-2.5-7.673-.16a2.863,2.863,0,0,1-.919.375,1.3,1.3,0,0,1-.927-.316l-3.352-2.383a1.119,1.119,0,0,1-.465-.7,1.054,1.054,0,0,1,.2-.853,7.838,7.838,0,0,1,2.992-2.327,12.385,12.385,0,0,1,4.218-1.113,14.982,14.982,0,0,1,4.777.376A13.226,13.226,0,0,1,347.917-353.809Z" transform="translate(-324.559 356.38)" fill="#be2f56"/>
        </g>
      </g>
    </g>
    <g id="Character" transform="translate(-379.257 -417.841)">
      <g id="Character-2" data-name="Character" transform="translate(0)">
        <g id="Group_1265" data-name="Group 1265" transform="translate(46.978 2.589)">
          <path id="Path_925" data-name="Path 925" d="M36.292-234.37h-38.6V-327.9a30.625,30.625,0,0,1,30.625-30.625h3.567A30.625,30.625,0,0,1,62.509-327.9v67.312A26.218,26.218,0,0,1,36.292-234.37Z" transform="translate(2.307 358.524)" fill="#263238"/>
        </g>
        <g id="Group_1268" data-name="Group 1268" transform="translate(39.218 151.672)">
          <g id="Group_1266" data-name="Group 1266" transform="translate(0.762 152.454)">
            <path id="Path_926" data-name="Path 926" d="M-18.686,668.257A71.947,71.947,0,0,0-19.8,680c-.135,7.125-1.444,9.654-1.617,15.5-.2,6.682.956,9.182,3.668,12.938s9.828,7.164,12.836.815c3.044-6.425,2.62-10.506,1.659-17.062-.994-6.776-1.121-10.519-1.7-15.687-.508-4.555-1.116-8.016-1.116-8.016Z" transform="translate(21.932 -620.494)" fill="#263238"/>
            <path id="Path_927" data-name="Path 927" d="M.594,528.282l-23.472-.425c.349,15.669,2.839,33.061,3.245,47.763.077,2.767-.069,21.5.974,27.2,1.568,8.554,11.723,7.4,12.261,2.28s-.654-26.994-.622-29.25c-.089-9.428,4.33-25.344,6.647-42.269C-.257,532.747.487,529.093.594,528.282Z" transform="translate(22.878 -527.857)" fill="#ffa8a7"/>
          </g>
          <g id="Group_1267" data-name="Group 1267" transform="translate(48.468 137.841)">
            <path id="Path_928" data-name="Path 928" d="M128.648,632.172s-.926-.5-1.118.491c-.228,1.177-.566,3.6-1.055,5.534-.679,2.684-1.244,7.106-.837,9.294s5.507,5,8.818,6.02a27,27,0,0,1,10.913,6.468c3.279,3.086,10.355,6,15.174,5.967,5.7-.041,9.677-1.9,11.555-4.952,1.962-3.188-1.712-3.423-8.229-7.651-1.479-.96-3.164-2.046-5.059-3.284-10.324-6.744-14.1-10.357-17.023-17.1Z" transform="translate(-122.73 -581.989)" fill="#263238"/>
            <path id="Path_929" data-name="Path 929" d="M136.493,530.908c-.174-4.852,3.154-46.008,3.154-46.008l-22.292,10.162c4.774,28.491,5.791,35.209,5.875,39.871h0a4.092,4.092,0,0,0-.126,1.193c.02,5.536,6.267,8.521,11.14,12.211a90.857,90.857,0,0,0,13.18,8.6c3.54,1.779,10.73,1.941,11.621-.336-5.93-4.528-14.554-11.305-19.27-16.476C137.522,537.659,136.667,535.76,136.493,530.908Z" transform="translate(-117.355 -484.9)" fill="#ffa8a7"/>
          </g>
          <path id="Path_930" data-name="Path 930" d="M-14.738,79.711c-8.557,18.793-8.557,33.326-7.143,57.3,1.3,21.995,3.366,41.359,3.366,41.359-.331,3.9-5.756,11.519-6.458,28.767-.656,16.125,1.111,36.624,1.111,36.624s12.177,6.75,21.182-.059c0,0,8.688-41.491,11.235-61.676,2.222-17.615,6.083-40.122,6.083-40.122l8.179,40.027s-3.111,9.868-3.84,17.386c-1.15,11.873,5.49,35.186,5.49,35.186s12.583,3.755,20.266-3.059c0,0,2.874-37.9,3.947-52.208,1.436-19.152-1.584-71-3.948-98.451Z" transform="translate(25.118 -79.711)" fill="#be2f56"/>
          <path id="Path_931" data-name="Path 931" d="M91.748,187.67l3.381-30.13s15.146-2.024,22.007-8.474a24.861,24.861,0,0,1-17.846,11.279L94.4,188.382,99.927,227.7Z" transform="translate(-51.991 -125.472)" fill="#263238"/>
        </g>
        <g id="Group_1279" data-name="Group 1279" transform="translate(45.47 18.011)">
          <path id="Path_932" data-name="Path 932" d="M173.15-79.169a127.577,127.577,0,0,0,.825-16.571c-.33-4.782-1.185-5.559-7.87-14.032-9.025-11.438-16.726-21.718-24.874-31.947-5.816-7.3-11.929-8.426-17.9-8.1-4.175.231,3.97,20.3,8.074,32.171l23.415,25.185a5.019,5.019,0,0,1,.931,3.44l-1.438,21.441,7.012,9.379S171.943-67.352,173.15-79.169Z" transform="translate(-78.318 205.426)" fill="#ffa8a7"/>
          <path id="Path_933" data-name="Path 933" d="M15.718-149.065h0c-4.527.312-12.764,1.037-12.764,1.037C-1.8-145.377-3-143.2-3.883-136.891c-.376,2.684,1.813,9.848,3.691,20.027L3.375-97.987l-.387,9.361C1.136-82.914-3.051-75.815-6.74-65.35c18.139,10.124,33.354,10.5,47.151,8.728,10.521-1.35,16.089-3.9,17.945-6.412-.387-10.338-1.119-16.722-1.3-27.523-.075-4.537.2-9.114.374-14.336,7.059-5.8,7.139-15.441,3.289-21.674-8.945-14.482-17.642-23.6-23.4-23.132Z" transform="translate(6.74 205.328)" fill="#27debf"/>
          <path id="Path_934" data-name="Path 934" d="M15.718-149.065h0c-4.527.312-12.764,1.037-12.764,1.037C-1.8-145.377-3-143.2-3.883-136.891c-.376,2.684,1.813,9.848,3.691,20.027L3.375-97.987l-.387,9.361C1.136-82.914-3.051-75.815-6.74-65.35c18.139,10.124,33.354,10.5,47.151,8.728,10.521-1.35,16.089-3.9,17.945-6.412-.387-10.338-1.119-16.722-1.3-27.523-.075-4.537.2-9.114.374-14.336,7.059-5.8,7.139-15.441,3.289-21.674-8.945-14.482-17.642-23.6-23.4-23.132Z" transform="translate(6.74 205.328)" fill="#fff" opacity="0.6"/>
          <path id="Path_935" data-name="Path 935" d="M85.156-34.068s-8.286,6.43-17.741,3.077S56.581-42.61,56.581-42.61s-1,10.81,10.923,14.5C79.014-24.557,85.156-34.068,85.156-34.068Z" transform="translate(-35.026 134.659)" opacity="0.1"/>
          <g id="Group_1278" data-name="Group 1278" transform="translate(10.173)">
            <g id="Group_1269" data-name="Group 1269">
              <path id="Path_936" data-name="Path 936" d="M74.354-286.6c-.357,15.686-5.448,19.563-8,20.677s-7.476.434-12.255-.357v9.414s5.514,5.782,5.1,10.093-8.667,4.8-14.861.579a47.129,47.129,0,0,1-9.159-8.269,3.346,3.346,0,0,1-.79-2.166v-22.151s-2.618,2.774-7.253-.4-5.025-9.068-2.195-12.41c2.017-2.373,7.141-2.54,9.6,1.147,1.382,2.707,1.571,5.425,3.12,4.3,4.133-2.975,1.916-9.737,6.907-13.079.011,0,.011-.011.022-.011a34.906,34.906,0,0,1,5.08-2.217c8.9-3.075,16.611-5.659,18.471-11.742C71.658-311.108,74.788-305.1,74.354-286.6Z" transform="translate(-23.163 313.191)" fill="#ffa8a7"/>
            </g>
            <circle id="Ellipse_59" data-name="Ellipse 59" cx="2.059" cy="2.059" r="2.059" transform="translate(31.588 36.489)" fill="#b16668"/>
            <g id="Group_1270" data-name="Group 1270" transform="translate(27.933 22.064)">
              <path id="Path_937" data-name="Path 937" d="M109.609-246.182a2.206,2.206,0,0,1-2.054,2.354,2.221,2.221,0,0,1-2.28-2.149,2.206,2.206,0,0,1,2.054-2.354A2.22,2.22,0,0,1,109.609-246.182Z" transform="translate(-105.272 248.333)" fill="#263238"/>
            </g>
            <g id="Group_1271" data-name="Group 1271" transform="translate(44.792 22.473)">
              <path id="Path_938" data-name="Path 938" d="M158.774-245.175a2,2,0,0,1-1.868,2.139,1.891,1.891,0,0,1-2.073-1.953,2.005,2.005,0,0,1,1.867-2.14A2.019,2.019,0,0,1,158.774-245.175Z" transform="translate(-154.831 247.13)" fill="#263238"/>
            </g>
            <g id="Group_1272" data-name="Group 1272" transform="translate(22.413 17.93)">
              <path id="Path_939" data-name="Path 939" d="M96.113-248.615a7.075,7.075,0,0,1-7.066-7.066c0-4.8,4.951-4.8,7.066-4.8s7.066,0,7.066,4.8A7.075,7.075,0,0,1,96.113-248.615Zm0-10.756c-4.283,0-5.952,1.034-5.952,3.69a5.958,5.958,0,0,0,5.952,5.952,5.958,5.958,0,0,0,5.952-5.952C102.065-258.337,100.4-259.372,96.113-259.372Z" transform="translate(-89.047 260.486)" fill="#455a64"/>
            </g>
            <g id="Group_1273" data-name="Group 1273" transform="translate(40.352 17.93)">
              <path id="Path_940" data-name="Path 940" d="M148.844-248.615a7.075,7.075,0,0,1-7.066-7.066c0-4.8,4.951-4.8,7.066-4.8s7.066,0,7.066,4.8A7.075,7.075,0,0,1,148.844-248.615Zm0-10.756c-4.283,0-5.952,1.034-5.952,3.69a5.958,5.958,0,0,0,5.952,5.952,5.958,5.958,0,0,0,5.952-5.952C154.8-258.337,153.127-259.372,148.844-259.372Z" transform="translate(-141.778 260.486)" fill="#455a64"/>
            </g>
            <g id="Group_1274" data-name="Group 1274" transform="translate(37.643 20.457)">
              <path id="Path_941" data-name="Path 941" d="M133.815-253.058l.348,13.2,6.945-2.151Z" transform="translate(-133.815 253.058)" fill="#f28f8f"/>
            </g>
            <g id="Group_1275" data-name="Group 1275" transform="translate(13.893 39.164)">
              <path id="Path_942" data-name="Path 942" d="M81.042-190.322C76-190.983,65.619-193.964,64-198.067a10.621,10.621,0,0,0,3.639,5.236c3.1,2.657,13.4,5.65,13.4,5.65Z" transform="translate(-64.002 198.067)" fill="#f28f8f"/>
            </g>
            <path id="Path_943" data-name="Path 943" d="M105.143-274.565l-4.6,2.805a2.829,2.829,0,0,1,.937-3.8A2.63,2.63,0,0,1,105.143-274.565Z" transform="translate(-73.971 288.613)" fill="#263238"/>
            <path id="Path_944" data-name="Path 944" d="M159.959-269.806l-5.128-1.791a2.607,2.607,0,0,1,3.37-1.722A2.853,2.853,0,0,1,159.959-269.806Z" transform="translate(-110.039 286.982)" fill="#263238"/>
            <g id="Group_1276" data-name="Group 1276" transform="translate(35.431 21.246)">
              <path id="Path_945" data-name="Path 945" d="M127.87-248.687a.56.56,0,0,1-.556-.562c0-.9,1.788-1.488,3.393-1.488s2.642.584,2.642,1.488a.557.557,0,0,1-.557.557.556.556,0,0,1-.557-.557,2.244,2.244,0,0,0-1.527-.375,6.314,6.314,0,0,0-2.281.384A.552.552,0,0,1,127.87-248.687Z" transform="translate(-127.314 250.738)" fill="#455a64"/>
            </g>
            <g id="Group_1277" data-name="Group 1277" transform="translate(8.471 20.37)">
              <path id="Path_946" data-name="Path 946" d="M62.581-250.858l-.063,0L50.1-251.992a6.121,6.121,0,0,0-2.035-1.321l14.578,1.345a.557.557,0,0,1,.492.616A.557.557,0,0,1,62.581-250.858Z" transform="translate(-48.064 253.313)" fill="#455a64"/>
            </g>
          </g>
        </g>
        <g id="Group_1280" data-name="Group 1280">
          <path id="Path_947" data-name="Path 947" d="M-112.757-312.355c4.062-5.426,6.831-9.526,10.538-14.177,2.105-2.641,3.451-4.526,5.475-7.236,1.394-1.865,2.211-3.439,3.756-4.017a12.994,12.994,0,0,0,4.533-3.111,28.543,28.543,0,0,0,2.144-2.735,40.809,40.809,0,0,1,8.2-8.264c3.269-2.464,6.9-4.341,10.256-6.688,2-1.4,4.147-3.726,1.712-5.9a5.706,5.706,0,0,0-2.6-1.243c-5.911-1.291-11.07.747-16.853,2.225a48.044,48.044,0,0,0-7.362,2.487,12.791,12.791,0,0,0-3.261,1.871,17.041,17.041,0,0,0-3.35,4.8c-2.6,4.581-7.985,8.622-11.776,12.188-4.447,4.183-8.421,8.018-13.494,12.633-4.565,4.154-9.031,7.984-13.219,12.52-3.464,3.753-2.2,6.688-1.71,7.7,2.823,5.806,5.983,7.887,9.759,11.484,6.539,6.23,29.065,24.15,36.537,30.065a12.3,12.3,0,0,1,3.662,4.781l1.427,3.313c8.518,1.567,14.2-11.221,7.147-26.62a16.056,16.056,0,0,0-5.179-6.243C-95.308-299.008-112.757-312.355-112.757-312.355Z" transform="translate(140.401 366.135)" fill="#ffa8a7"/>
          <path id="Path_948" data-name="Path 948" d="M-79.334-208.047a22.484,22.484,0,0,1-10.41,7.165s5.434,1.387,12.87-5.288Z" transform="translate(106.977 261.827)" fill="#f28f8f"/>
        </g>
        <g id="Group_1283" data-name="Group 1283" transform="translate(105.823 131.5)">
          <g id="Group_1282" data-name="Group 1282" transform="translate(0 0)">
            <g id="Group_1281" data-name="Group 1281">
              <path id="Path_949" data-name="Path 949" d="M202.939,21.845l.028,0-1.393-1.2v.018a1.578,1.578,0,0,0-1.433-.16l-15.085,4.1a5.557,5.557,0,0,0-3.39,3.168L170.809,59.1a1.431,1.431,0,0,0,.2,1.6l-.012,0,1.437,1.237v-.018a1.565,1.565,0,0,0,1.446.17l15.085-4.1a5.554,5.554,0,0,0,3.39-3.168c2.133-6.156,8.725-25.167,10.857-31.323C203.478,22.727,203.346,22.146,202.939,21.845Z" transform="translate(-170.67 -20.414)" fill="#455a64"/>
              <path id="Path_950" data-name="Path 950" d="M174.91,62.628l10.856-31.322a5.555,5.555,0,0,1,3.39-3.168l15.086-4.1c1.4-.38,2.147.421,1.673,1.79-2.132,6.156-8.725,25.166-10.856,31.323a5.557,5.557,0,0,1-3.39,3.168l-15.085,4.1C175.184,64.8,174.436,64,174.91,62.628Z" transform="translate(-173.373 -22.741)" fill="#be2f56"/>
              <path id="Path_951" data-name="Path 951" d="M184.81,36.725a5.445,5.445,0,0,0-1.75,2.3L172.2,70.338a1.5,1.5,0,0,0,.151,1.571L171,70.751l.014-.014a1.419,1.419,0,0,1-.206-1.6l10.86-31.326a5.321,5.321,0,0,1,1.613-2.178Z" transform="translate(-170.67 -30.458)" fill="#37474f"/>
            </g>
            <path id="Path_952" data-name="Path 952" d="M214.678,55.768c-1.063,3.191-4.855,5.32-11.086,6.8s-9.683,8.093-8.676,10.106,11.075,3.884,15.1,3.308,8.079-6.4,9.3-8.2,2.64-14.384,1.346-16.109-4.015-1.461-4.015-1.461Z" transform="translate(-186.554 -40.064)" fill="#f28f8f"/>
          </g>
        </g>
      </g>
    </g>
  </g>
</svg>
