<svg xmlns="http://www.w3.org/2000/svg" xmlns:xlink="http://www.w3.org/1999/xlink" width="186.726" height="185" viewBox="0 0 186.726 185">
  <defs>
    <linearGradient id="linear-gradient" x1="1.003" y1="1.087" x2="0.095" y2="0.056" gradientUnits="objectBoundingBox">
      <stop offset="0" stop-color="#0038cf"/>
      <stop offset="1" stop-color="#e9effd"/>
    </linearGradient>
    <linearGradient id="linear-gradient-2" x1="3.614" y1="-3.257" x2="-0.159" y2="2.36" gradientUnits="objectBoundingBox">
      <stop offset="0" stop-color="#fdf53f"/>
      <stop offset="1" stop-color="#d93c65"/>
    </linearGradient>
    <linearGradient id="linear-gradient-3" x1="2.711" y1="-4.664" x2="0.627" y2="1.782" xlink:href="#linear-gradient-2"/>
    <linearGradient id="linear-gradient-4" x1="7.173" y1="-5.873" x2="3.287" y2="0.341" gradientUnits="objectBoundingBox">
      <stop offset="0" stop-color="#a737d5"/>
      <stop offset="1" stop-color="#ef497a"/>
    </linearGradient>
    <linearGradient id="linear-gradient-5" x1="8.221" y1="-6.977" x2="4.335" y2="-0.764" xlink:href="#linear-gradient-4"/>
    <linearGradient id="linear-gradient-6" x1="9.156" y1="-6.941" x2="4.042" y2="-0.262" xlink:href="#linear-gradient-4"/>
    <linearGradient id="linear-gradient-7" x1="10.317" y1="-9.187" x2="6.43" y2="-2.973" xlink:href="#linear-gradient-4"/>
    <linearGradient id="linear-gradient-8" x1="-2.509" y1="-3.677" x2="-7.471" y2="1.65" xlink:href="#linear-gradient-4"/>
    <linearGradient id="linear-gradient-9" x1="-20.07" y1="0.5" x2="-19.051" y2="0.5" gradientUnits="objectBoundingBox">
      <stop offset="0" stop-color="#090056"/>
      <stop offset="1" stop-color="#020039"/>
    </linearGradient>
    <linearGradient id="linear-gradient-10" x1="-0.757" y1="-8.611" x2="1.326" y2="6.389" xlink:href="#linear-gradient-9"/>
    <linearGradient id="linear-gradient-11" x1="-50.677" y1="0.5" x2="-49.677" y2="0.5" xlink:href="#linear-gradient-9"/>
    <linearGradient id="linear-gradient-12" x1="-4.222" y1="-41.411" x2="0.364" y2="-1.05" xlink:href="#linear-gradient-9"/>
    <linearGradient id="linear-gradient-13" x1="-77.341" y1="0.5" x2="-76.341" y2="0.5" gradientUnits="objectBoundingBox">
      <stop offset="0" stop-color="#febbba"/>
      <stop offset="1" stop-color="#ff928e"/>
    </linearGradient>
    <linearGradient id="linear-gradient-14" x1="-80.282" y1="0.5" x2="-79.282" y2="0.5" xlink:href="#linear-gradient-13"/>
    <linearGradient id="linear-gradient-15" x1="3.088" y1="1.345" x2="0.616" y2="0.582" xlink:href="#linear-gradient-9"/>
    <linearGradient id="linear-gradient-16" x1="-109.638" y1="-3.524" x2="-115.375" y2="3.756" gradientUnits="objectBoundingBox">
      <stop offset="0" stop-color="#cb236d"/>
      <stop offset="1" stop-color="#4c246d"/>
    </linearGradient>
    <linearGradient id="linear-gradient-17" x1="-0.125" y1="-1.058" x2="1.981" y2="3.849" gradientUnits="objectBoundingBox">
      <stop offset="0" stop-color="#4f52ff"/>
      <stop offset="1" stop-color="#4042e2"/>
    </linearGradient>
    <linearGradient id="linear-gradient-18" x1="-33.221" y1="0.486" x2="-33.001" y2="-0.519" xlink:href="#linear-gradient-13"/>
    <linearGradient id="linear-gradient-19" x1="-22.661" y1="-0.379" x2="-23.713" y2="0.372" xlink:href="#linear-gradient-13"/>
    <linearGradient id="linear-gradient-20" x1="-0.098" y1="0.38" x2="2.001" y2="0.905" xlink:href="#linear-gradient-9"/>
    <linearGradient id="linear-gradient-21" x1="-96.555" y1="-3.424" x2="-100.876" y2="-0.843" xlink:href="#linear-gradient-13"/>
    <linearGradient id="linear-gradient-22" x1="2.275" y1="6.789" x2="1.053" y2="10.008" gradientUnits="objectBoundingBox">
      <stop offset="0" stop-color="#ff928e"/>
      <stop offset="1" stop-color="#fe7062"/>
    </linearGradient>
    <linearGradient id="linear-gradient-23" x1="0.074" y1="-0.378" x2="0.807" y2="1.194" xlink:href="#linear-gradient-22"/>
    <linearGradient id="linear-gradient-24" x1="-0.269" y1="-2.098" x2="2.525" y2="7.338" xlink:href="#linear-gradient-22"/>
    <linearGradient id="linear-gradient-25" x1="-0.698" y1="-0.996" x2="2.189" y2="2.626" xlink:href="#linear-gradient-17"/>
    <linearGradient id="linear-gradient-26" x1="0.031" y1="0.767" x2="1.654" y2="-0.248" xlink:href="#linear-gradient-13"/>
  </defs>
  <g id="Group_327" data-name="Group 327" transform="translate(-459.969 -455)">
    <path id="Path_155" data-name="Path 155" d="M652.688,613.877c-33.724,35.588-85.525,25.06-93.182,23.368-9.646-2.132-32.6-7.2-49.724-27.225-26.221-30.654-23.573-78.561-3.323-110.86,5.892-9.4,25.721-37.327,62.959-43.4,2.176-.355,41.061-6.056,72.347,20.195a85.673,85.673,0,0,1,17,19.283C677.273,524.192,686.034,578.688,652.688,613.877Z" transform="translate(-28.668)" fill="url(#linear-gradient)"/>
    <g id="Group_292" data-name="Group 292" transform="translate(522.795 462.056)">
      <path id="Path_156" data-name="Path 156" d="M1426.551,562.9a3.13,3.13,0,0,1,4.117-2.322c11.894,4.241,52.916,18.25,88.29,22.914a2.894,2.894,0,0,1,2.487,3.314l-20.579,132.033a3.33,3.33,0,0,1-3.784,2.782c-14.823-2.219-75.825-11.578-96.857-18.363a2.639,2.639,0,0,1-1.772-3.042Z" transform="translate(-1398.399 -560.393)" fill="#b03bd9"/>
      <path id="Path_157" data-name="Path 157" d="M1452.567,617.628a3.012,3.012,0,0,1,3.962-2.235c11.446,4.081,50.923,17.563,84.965,22.051a2.785,2.785,0,0,1,2.393,3.189l-19.8,127.061a3.205,3.205,0,0,1-3.642,2.677c-14.265-2.136-72.969-11.142-93.209-17.671a2.539,2.539,0,0,1-1.7-2.928Z" transform="translate(-1423.663 -611.546)" fill="#fff" opacity="0.6"/>
      <path id="Path_158" data-name="Path 158" d="M1902.847,806.99a1.861,1.861,0,0,0-2.284,1.508l-4.426,27.2a1.75,1.75,0,0,0,1.318,1.984c4.959,1.192,20.426,4.848,29.3,6.24a1.954,1.954,0,0,0,2.2-1.467c1.232-5.017,4.7-19.644,4.842-26.034a2.206,2.206,0,0,0-1.679-2.188Z" transform="translate(-1862.792 -790.43)" fill="#fff" opacity="0.78"/>
      <circle id="Ellipse_11" data-name="Ellipse 11" cx="5.918" cy="5.918" r="5.918" transform="matrix(0.361, -0.932, 0.932, 0.361, 45.053, 34.656)" fill="url(#linear-gradient-2)"/>
      <path id="Path_159" data-name="Path 159" d="M1983.908,1164.731l18.449,3.888a1.46,1.46,0,0,0,1.664-1.949,12.168,12.168,0,0,0-9.283-8.11,13.144,13.144,0,0,0-11.558,3.563A1.526,1.526,0,0,0,1983.908,1164.731Z" transform="translate(-1943.578 -1118.307)" fill="url(#linear-gradient-3)"/>
      <g id="Group_280" data-name="Group 280" transform="translate(78.255 26.707)" opacity="0.6">
        <path id="Path_160" data-name="Path 160" d="M2600.077,968.567a.975.975,0,0,0,1.215-.688,1.069,1.069,0,0,0-.883-1.149l-32.216-7.392a.7.7,0,0,0-.906.824l.062.472a1.628,1.628,0,0,0,1.191,1.286Z" transform="translate(-2567.278 -959.311)" fill="#fff"/>
      </g>
      <g id="Group_281" data-name="Group 281" transform="translate(77.196 31.729)" opacity="0.6">
        <path id="Path_161" data-name="Path 161" d="M2552.384,1034.352a.7.7,0,0,0-.906.824l.062.472a1.628,1.628,0,0,0,1.191,1.286l31.537,6.647a.975.975,0,0,0,1.215-.688,1.069,1.069,0,0,0-.883-1.149Z" transform="translate(-2551.469 -1034.325)" fill="#fff"/>
      </g>
      <g id="Group_282" data-name="Group 282" transform="translate(76.122 36.824)" opacity="0.6">
        <path id="Path_162" data-name="Path 162" d="M2536.344,1110.456a.7.7,0,0,0-.906.824l.062.472a1.628,1.628,0,0,0,1.191,1.286l31.537,6.646a.975.975,0,0,0,1.214-.688,1.069,1.069,0,0,0-.882-1.149Z" transform="translate(-2535.428 -1110.429)" fill="#fff"/>
      </g>
      <g id="Group_283" data-name="Group 283" transform="translate(30.844 52.881)" opacity="0.6">
        <path id="Path_163" data-name="Path 163" d="M1935.146,1368.7a.934.934,0,0,0,1.181-.695,1.1,1.1,0,0,0-.918-1.146l-75.631-16.563c-.577-.126-.832.2-.568.73l.455.908a2.529,2.529,0,0,0,1.532,1.181Z" transform="translate(-1859.106 -1350.271)" fill="#fff"/>
      </g>
      <g id="Group_284" data-name="Group 284" transform="translate(29.785 57.903)" opacity="0.6">
        <path id="Path_164" data-name="Path 164" d="M1843.968,1425.312c-.577-.126-.832.2-.568.73l.455.908a2.528,2.528,0,0,0,1.532,1.181l73.949,15.585a.934.934,0,0,0,1.181-.695,1.1,1.1,0,0,0-.918-1.146Z" transform="translate(-1843.296 -1425.285)" fill="#fff"/>
      </g>
      <path id="Path_165" data-name="Path 165" d="M1791.63,1549.709c1.851.244,5.276.9,7.159,1.268a1.739,1.739,0,0,1,1.406,1.655,28.348,28.348,0,0,1-.65,7.043,1.544,1.544,0,0,1-1.837,1.158l-6.913-1.535a1.7,1.7,0,0,1-1.321-1.854l.765-6.647A1.239,1.239,0,0,1,1791.63,1549.709Z" transform="translate(-1763.282 -1483.466)" fill="#fff" opacity="0.6"/>
      <g id="Group_285" data-name="Group 285" transform="translate(39.425 71.588)" opacity="0.6">
        <path id="Path_166" data-name="Path 166" d="M1988.455,1629.729a.854.854,0,0,0-1.1.807l-.068,1.153a1.29,1.29,0,0,0,.988,1.293l16.828,3.547a1.061,1.061,0,0,0,1.259-.832l.056-.285a1.15,1.15,0,0,0-.832-1.318Z" transform="translate(-1987.282 -1629.697)" fill="#fff"/>
      </g>
      <path id="Path_167" data-name="Path 167" d="M2355.474,1668.543c1.851.244,5.275.9,7.159,1.268a1.74,1.74,0,0,1,1.406,1.656,28.357,28.357,0,0,1-.65,7.043,1.544,1.544,0,0,1-1.837,1.158l-6.913-1.535a1.7,1.7,0,0,1-1.321-1.854l.764-6.647A1.239,1.239,0,0,1,2355.474,1668.543Z" transform="translate(-2289.378 -1594.344)" fill="#fff" opacity="0.6"/>
      <g id="Group_286" data-name="Group 286" transform="translate(77.173 79.544)" opacity="0.6">
        <path id="Path_168" data-name="Path 168" d="M2552.3,1748.563a.854.854,0,0,0-1.1.807l-.068,1.153a1.29,1.29,0,0,0,.987,1.293l16.828,3.547a1.061,1.061,0,0,0,1.259-.832l.056-.285a1.15,1.15,0,0,0-.832-1.318Z" transform="translate(-2551.126 -1748.531)" fill="#fff"/>
      </g>
      <g id="Group_291" data-name="Group 291" transform="translate(16.157 83.259)">
        <path id="Path_169" data-name="Path 169" d="M1777.007,1829.839l-.018,0-6.381-1.409a1.756,1.756,0,0,1-1.446-1.831l.569-5.483a1.191,1.191,0,0,1,.46-.819,1.435,1.435,0,0,1,1.08-.277h0c.546.077,1.318.172,2.136.273,1.721.212,3.864.477,5.051.712a1.826,1.826,0,0,1,1.526,1.63,27.4,27.4,0,0,1-1.034,6.1A1.615,1.615,0,0,1,1777.007,1829.839Zm-5.805-9.325a.929.929,0,0,0-.7.175.693.693,0,0,0-.27.475l-.569,5.483a1.257,1.257,0,0,0,1.055,1.29l6.381,1.409.013,0a1.113,1.113,0,0,0,1.353-.737,27.286,27.286,0,0,0,1.021-5.953,1.348,1.348,0,0,0-1.123-1.166c-1.17-.231-3.3-.494-5.015-.706-.82-.1-1.594-.2-2.144-.274Z" transform="translate(-1760.49 -1818.932)" fill="#fff"/>
        <path id="Path_170" data-name="Path 170" d="M1787.871,1837.94c1.362.191,4.344.51,5.733.785a1.265,1.265,0,0,1,1.058,1.117,22.2,22.2,0,0,1-.821,4.814,1.087,1.087,0,0,1-1.329.736l-5.1-1.126a1.206,1.206,0,0,1-1-1.247l.454-4.382A.848.848,0,0,1,1787.871,1837.94Z" transform="translate(-1776.588 -1835.66)" fill="#fff" opacity="0.6"/>
        <g id="Group_287" data-name="Group 287" transform="translate(22.881 6.824)" opacity="0.6">
          <path id="Path_171" data-name="Path 171" d="M1981.514,1907.653a1.622,1.622,0,0,0,1.3,1.509l59.265,11.964a1.227,1.227,0,0,0,.5-2.4l-59.1-12.738A1.622,1.622,0,0,0,1981.514,1907.653Z" transform="translate(-1981.512 -1905.949)" fill="#fff"/>
        </g>
        <path id="Path_172" data-name="Path 172" d="M1799.7,1807.2h0a1,1,0,0,1,1.276.654l.785,2.527a.322.322,0,0,0,.568.094l4.6-6.3a.357.357,0,0,1,.636.292,14.051,14.051,0,0,1-6.017,8.725s-1.722-1.124-2.533-4.76A1.052,1.052,0,0,1,1799.7,1807.2Z" transform="translate(-1788.325 -1804.02)" fill="url(#linear-gradient-4)"/>
        <path id="Path_173" data-name="Path 173" d="M1733.867,2034.527l-.017,0-6.381-1.409a1.756,1.756,0,0,1-1.446-1.832l.569-5.483a1.19,1.19,0,0,1,.46-.819,1.435,1.435,0,0,1,1.08-.277h0c.546.077,1.319.172,2.136.273,1.721.212,3.864.477,5.051.712l.026.005a1.822,1.822,0,0,1,1.5,1.625,27.406,27.406,0,0,1-1.034,6.1A1.615,1.615,0,0,1,1733.867,2034.527Zm-5.805-9.325a.928.928,0,0,0-.7.175.694.694,0,0,0-.27.475l-.568,5.483a1.257,1.257,0,0,0,1.055,1.29l6.381,1.409.013,0a1.113,1.113,0,0,0,1.353-.737,27.271,27.271,0,0,0,1.021-5.953,1.341,1.341,0,0,0-1.123-1.166c-1.17-.231-3.3-.494-5.015-.706-.82-.1-1.594-.2-2.145-.274Z" transform="translate(-1720.238 -2009.916)" fill="#fff"/>
        <path id="Path_174" data-name="Path 174" d="M1744.731,2042.63c1.363.191,4.344.51,5.733.785a1.265,1.265,0,0,1,1.058,1.117,22.206,22.206,0,0,1-.821,4.814,1.088,1.088,0,0,1-1.33.736l-5.1-1.126a1.206,1.206,0,0,1-1-1.247l.454-4.382A.848.848,0,0,1,1744.731,2042.63Z" transform="translate(-1736.336 -2026.646)" fill="#fff" opacity="0.6"/>
        <g id="Group_288" data-name="Group 288" transform="translate(19.993 20.528)" opacity="0.6">
          <path id="Path_175" data-name="Path 175" d="M1938.374,2112.342a1.623,1.623,0,0,0,1.3,1.509l59.265,11.964a1.227,1.227,0,0,0,.5-2.4l-59.1-12.738A1.622,1.622,0,0,0,1938.374,2112.342Z" transform="translate(-1938.372 -2110.637)" fill="#fff"/>
        </g>
        <path id="Path_176" data-name="Path 176" d="M1756.564,2011.888h0a1,1,0,0,1,1.276.654l.785,2.526a.322.322,0,0,0,.568.094l4.6-6.3a.357.357,0,0,1,.636.292,14.051,14.051,0,0,1-6.017,8.725s-1.722-1.124-2.533-4.76A1.052,1.052,0,0,1,1756.564,2011.888Z" transform="translate(-1748.074 -1995.005)" fill="url(#linear-gradient-5)"/>
        <path id="Path_177" data-name="Path 177" d="M1690.727,2239.216l-.018,0-6.381-1.409a1.756,1.756,0,0,1-1.446-1.832l.568-5.483a1.192,1.192,0,0,1,.46-.819,1.434,1.434,0,0,1,1.08-.277h0c.546.077,1.319.172,2.136.273,1.722.212,3.864.477,5.051.711l.026.005a1.822,1.822,0,0,1,1.5,1.625,27.41,27.41,0,0,1-1.034,6.1A1.615,1.615,0,0,1,1690.727,2239.216Zm-5.805-9.325a.929.929,0,0,0-.7.175.693.693,0,0,0-.27.475l-.569,5.483a1.257,1.257,0,0,0,1.055,1.29l6.381,1.409.013,0a1.113,1.113,0,0,0,1.353-.737,27.275,27.275,0,0,0,1.021-5.953,1.339,1.339,0,0,0-1.123-1.166c-1.17-.231-3.3-.494-5.015-.706-.82-.1-1.594-.2-2.144-.274Z" transform="translate(-1679.986 -2200.902)" fill="#fff"/>
        <path id="Path_178" data-name="Path 178" d="M1701.591,2247.318c1.363.191,4.344.51,5.733.785a1.265,1.265,0,0,1,1.058,1.117,22.212,22.212,0,0,1-.821,4.815,1.087,1.087,0,0,1-1.329.736l-5.1-1.126a1.206,1.206,0,0,1-1-1.247l.454-4.382A.848.848,0,0,1,1701.591,2247.318Z" transform="translate(-1696.084 -2217.631)" fill="#fff" opacity="0.6"/>
        <g id="Group_289" data-name="Group 289" transform="translate(17.105 34.231)" opacity="0.6">
          <path id="Path_179" data-name="Path 179" d="M1895.235,2317.031a1.622,1.622,0,0,0,1.3,1.509L1955.8,2330.5a1.227,1.227,0,0,0,.5-2.4l-59.1-12.738A1.622,1.622,0,0,0,1895.235,2317.031Z" transform="translate(-1895.233 -2315.326)" fill="#fff"/>
        </g>
        <path id="Path_180" data-name="Path 180" d="M1713.424,2216.577h0a1,1,0,0,1,1.276.653l.785,2.526a.322.322,0,0,0,.568.094l4.6-6.3a.357.357,0,0,1,.636.292,14.052,14.052,0,0,1-6.017,8.725s-1.722-1.125-2.533-4.76A1.052,1.052,0,0,1,1713.424,2216.577Z" transform="translate(-1707.823 -2185.99)" fill="url(#linear-gradient-6)"/>
        <path id="Path_181" data-name="Path 181" d="M1647.587,2443.9l-.017,0-6.381-1.409a1.756,1.756,0,0,1-1.446-1.831l.569-5.483a1.192,1.192,0,0,1,.46-.819,1.436,1.436,0,0,1,1.08-.277h0c.546.077,1.319.172,2.136.273,1.722.212,3.864.477,5.051.711l.026.005a1.822,1.822,0,0,1,1.5,1.624,27.4,27.4,0,0,1-1.034,6.1A1.615,1.615,0,0,1,1647.587,2443.9Zm-5.805-9.325a.929.929,0,0,0-.7.175.692.692,0,0,0-.27.475l-.569,5.483a1.256,1.256,0,0,0,1.055,1.29l6.381,1.409.013,0a1.113,1.113,0,0,0,1.353-.737,27.272,27.272,0,0,0,1.021-5.952,1.337,1.337,0,0,0-1.123-1.166c-1.17-.231-3.3-.494-5.015-.706-.82-.1-1.594-.2-2.144-.274Z" transform="translate(-1639.734 -2391.886)" fill="#fff"/>
        <path id="Path_182" data-name="Path 182" d="M1658.451,2452.007c1.363.191,4.344.51,5.733.785a1.265,1.265,0,0,1,1.058,1.117,22.205,22.205,0,0,1-.821,4.814,1.087,1.087,0,0,1-1.329.736l-5.1-1.126a1.206,1.206,0,0,1-1-1.247l.454-4.382A.848.848,0,0,1,1658.451,2452.007Z" transform="translate(-1655.833 -2408.616)" fill="#fff" opacity="0.6"/>
        <g id="Group_290" data-name="Group 290" transform="translate(14.217 47.935)" opacity="0.6">
          <path id="Path_183" data-name="Path 183" d="M1852.095,2521.719h0a1.622,1.622,0,0,0,1.3,1.509l59.265,11.964a1.227,1.227,0,0,0,.5-2.4l-59.1-12.738A1.622,1.622,0,0,0,1852.095,2521.719Z" transform="translate(-1852.093 -2520.015)" fill="#fff"/>
        </g>
        <path id="Path_184" data-name="Path 184" d="M1670.284,2421.266h0a1,1,0,0,1,1.276.653l.785,2.526a.322.322,0,0,0,.568.094l4.6-6.3a.357.357,0,0,1,.636.292,14.051,14.051,0,0,1-6.017,8.725s-1.722-1.125-2.533-4.76A1.052,1.052,0,0,1,1670.284,2421.266Z" transform="translate(-1667.571 -2376.976)" fill="url(#linear-gradient-7)"/>
      </g>
    </g>
    <g id="Group_305" data-name="Group 305" transform="translate(461.721 464.487)">
      <path id="Path_185" data-name="Path 185" d="M486.208,614.593a3.13,3.13,0,0,1,2.857-3.766c12.6-.828,55.813-4.249,90.133-14.007a2.894,2.894,0,0,1,3.6,2.055l33.51,129.357a3.33,3.33,0,0,1-2.369,4.055c-14.487,3.846-74.193,19.466-96.19,21.584a2.639,2.639,0,0,1-2.833-2.089Z" transform="translate(-486.141 -596.709)" fill="#b03bd9"/>
      <path id="Path_186" data-name="Path 186" d="M517.761,668.544a3.012,3.012,0,0,1,2.75-3.624c12.126-.8,53.711-4.089,86.739-13.479a2.785,2.785,0,0,1,3.462,1.977L642.96,777.9a3.205,3.205,0,0,1-2.28,3.9c-13.941,3.7-71.4,18.733-92.568,20.771a2.539,2.539,0,0,1-2.727-2.01Z" transform="translate(-515.583 -647.676)" fill="#fff" opacity="0.6"/>
      <path id="Path_187" data-name="Path 187" d="M710.481,918.642l6.733,26.725a1.75,1.75,0,0,0,2,1.3c5.025-.874,20.672-3.657,29.371-5.9a1.954,1.954,0,0,0,1.438-2.22c-.86-5.094-3.484-19.895-5.888-25.817a2.206,2.206,0,0,0-2.409-1.342l-29.744,4.966A1.861,1.861,0,0,0,710.481,918.642Z" transform="translate(-695.409 -890.29)" fill="#fff" opacity="0.78"/>
      <circle id="Ellipse_12" data-name="Ellipse 12" cx="5.918" cy="5.918" r="5.918" transform="matrix(0.068, -0.998, 0.998, 0.068, 27.719, 40.048)" fill="#91b3fa"/>
      <path id="Path_188" data-name="Path 188" d="M888.927,1250.371l18.478-3.753a1.46,1.46,0,0,0,.754-2.45,12.168,12.168,0,0,0-11.739-3.76,13.144,13.144,0,0,0-9.195,7.858A1.526,1.526,0,0,0,888.927,1250.371Z" transform="translate(-860.253 -1197.008)" fill="#91b3fa"/>
      <g id="Group_293" data-name="Group 293" transform="translate(55.872 13.853)" opacity="0.6">
        <path id="Path_189" data-name="Path 189" d="M1354.264,805.474a.975.975,0,0,0,.842-1.113,1.069,1.069,0,0,0-1.266-.7l-32.5,6a.7.7,0,0,0-.5,1.116l.244.408a1.628,1.628,0,0,0,1.6.708Z" transform="translate(-1320.697 -803.635)" fill="#fff"/>
      </g>
      <g id="Group_294" data-name="Group 294" transform="translate(56.894 18.883)" opacity="0.6">
        <path id="Path_190" data-name="Path 190" d="M1336.595,884.784a.7.7,0,0,0-.5,1.116l.245.409a1.628,1.628,0,0,0,1.6.708l31.585-6.415a.975.975,0,0,0,.842-1.113,1.069,1.069,0,0,0-1.266-.7Z" transform="translate(-1335.956 -878.763)" fill="#fff"/>
      </g>
      <g id="Group_295" data-name="Group 295" transform="translate(57.93 23.986)" opacity="0.6">
        <path id="Path_191" data-name="Path 191" d="M1352.076,961a.7.7,0,0,0-.5,1.116l.245.409a1.628,1.628,0,0,0,1.6.708L1385,956.821a.975.975,0,0,0,.842-1.113,1.069,1.069,0,0,0-1.266-.7Z" transform="translate(-1351.437 -954.982)" fill="#fff"/>
      </g>
      <g id="Group_296" data-name="Group 296" transform="translate(22.645 47.977)" opacity="0.6">
        <path id="Path_192" data-name="Path 192" d="M901.386,1315.15a.933.933,0,0,0,.809-1.106,1.1,1.1,0,0,0-1.3-.687L824.9,1328.168c-.58.113-.684.516-.231.9l.778.653a2.528,2.528,0,0,0,1.875.476Z" transform="translate(-824.39 -1313.333)" fill="#fff"/>
      </g>
      <g id="Group_297" data-name="Group 297" transform="translate(23.667 53.006)" opacity="0.6">
        <path id="Path_193" data-name="Path 193" d="M840.162,1403.3c-.58.113-.684.516-.231.9l.778.653a2.528,2.528,0,0,0,1.875.476l74.061-15.042a.934.934,0,0,0,.809-1.107,1.105,1.105,0,0,0-1.3-.687Z" transform="translate(-839.649 -1388.46)" fill="#fff"/>
      </g>
      <path id="Path_194" data-name="Path 194" d="M855.151,1712.6c1.8-.51,5.2-1.269,7.074-1.677a1.739,1.739,0,0,1,1.947.962,28.348,28.348,0,0,1,2.2,6.723,1.544,1.544,0,0,1-1.226,1.792l-6.955,1.335a1.7,1.7,0,0,1-1.948-1.178l-1.936-6.4A1.239,1.239,0,0,1,855.151,1712.6Z" transform="translate(-829.608 -1636.289)" fill="#fff" opacity="0.6"/>
      <g id="Group_298" data-name="Group 298" transform="translate(38.166 73.578)" opacity="0.6">
        <path id="Path_195" data-name="Path 195" d="M1056.98,1698.542a.855.855,0,0,0-.693,1.178l.4,1.085a1.29,1.29,0,0,0,1.42.8l16.854-3.423a1.061,1.061,0,0,0,.825-1.263l-.061-.284a1.15,1.15,0,0,0-1.287-.88Z" transform="translate(-1056.226 -1695.737)" fill="#fff"/>
      </g>
      <path id="Path_196" data-name="Path 196" d="M1419.852,1597.9c1.8-.51,5.2-1.269,7.074-1.677a1.739,1.739,0,0,1,1.947.962,28.353,28.353,0,0,1,2.2,6.723,1.544,1.544,0,0,1-1.226,1.792l-6.955,1.335a1.7,1.7,0,0,1-1.948-1.178l-1.936-6.4A1.239,1.239,0,0,1,1419.852,1597.9Z" transform="translate(-1356.503 -1529.272)" fill="#fff" opacity="0.6"/>
      <g id="Group_299" data-name="Group 299" transform="translate(75.972 65.899)" opacity="0.6">
        <path id="Path_197" data-name="Path 197" d="M1621.68,1583.847a.855.855,0,0,0-.693,1.178l.4,1.085a1.29,1.29,0,0,0,1.42.795l16.854-3.423a1.061,1.061,0,0,0,.825-1.263l-.062-.284a1.149,1.149,0,0,0-1.287-.88Z" transform="translate(-1620.926 -1581.042)" fill="#fff"/>
      </g>
      <g id="Group_304" data-name="Group 304" transform="translate(30.399 81.416)">
        <path id="Path_198" data-name="Path 198" d="M950.407,1971.995l-.018,0-6.416,1.239a1.757,1.757,0,0,1-2.054-1.107l-1.654-5.259a1.191,1.191,0,0,1,.1-.934,1.435,1.435,0,0,1,.882-.683h0c.532-.146,1.279-.365,2.069-.6,1.664-.489,3.736-1.1,4.919-1.352a1.826,1.826,0,0,1,2.048.89,27.406,27.406,0,0,1,1.471,6.006A1.615,1.615,0,0,1,950.407,1971.995Zm-9.029-6.255a.929.929,0,0,0-.574.438.693.693,0,0,0-.059.543l1.654,5.259a1.257,1.257,0,0,0,1.48.765l6.416-1.239.013,0a1.113,1.113,0,0,0,.949-1.213,27.281,27.281,0,0,0-1.425-5.869,1.348,1.348,0,0,0-1.493-.624c-1.165.252-3.227.857-4.883,1.343-.793.232-1.541.452-2.077.6Z" transform="translate(-940.211 -1953.188)" fill="#fff"/>
        <path id="Path_199" data-name="Path 199" d="M960.15,1984.345c1.327-.365,4.19-1.256,5.573-1.555a1.265,1.265,0,0,1,1.415.605,22.2,22.2,0,0,1,1.157,4.745,1.087,1.087,0,0,1-.928,1.2l-5.127.99a1.206,1.206,0,0,1-1.412-.748l-1.322-4.2A.848.848,0,0,1,960.15,1984.345Z" transform="translate(-958.182 -1971.379)" fill="#fff" opacity="0.6"/>
        <g id="Group_300" data-name="Group 300" transform="translate(14.927)" opacity="0.6">
          <path id="Path_200" data-name="Path 200" d="M1163.344,1826.9a1.622,1.622,0,0,0,1.792.869l59.145-12.539a1.227,1.227,0,0,0-.493-2.4l-59.3,11.764A1.623,1.623,0,0,0,1163.344,1826.9Z" transform="translate(-1163.175 -1812.803)" fill="#fff"/>
        </g>
        <path id="Path_201" data-name="Path 201" d="M992.044,2176.969l-.018,0-6.416,1.239a1.757,1.757,0,0,1-2.054-1.107l-1.654-5.258a1.191,1.191,0,0,1,.1-.934,1.435,1.435,0,0,1,.882-.683h0c.532-.146,1.279-.365,2.069-.6,1.664-.488,3.736-1.1,4.919-1.352l.026-.006a1.822,1.822,0,0,1,2.022.9,27.407,27.407,0,0,1,1.471,6.006A1.615,1.615,0,0,1,992.044,2176.969Zm-9.029-6.256a.929.929,0,0,0-.574.439.693.693,0,0,0-.06.543l1.654,5.259a1.257,1.257,0,0,0,1.481.765l6.416-1.239.013,0a1.113,1.113,0,0,0,.949-1.213,27.29,27.29,0,0,0-1.425-5.869,1.341,1.341,0,0,0-1.493-.624c-1.165.252-3.227.856-4.883,1.343-.793.232-1.541.452-2.077.6Z" transform="translate(-979.061 -2144.438)" fill="#fff"/>
        <path id="Path_202" data-name="Path 202" d="M1001.787,2189.345c1.326-.365,4.19-1.256,5.573-1.555a1.265,1.265,0,0,1,1.415.605,22.211,22.211,0,0,1,1.157,4.745,1.087,1.087,0,0,1-.928,1.2l-5.127.99a1.206,1.206,0,0,1-1.412-.748l-1.322-4.2A.848.848,0,0,1,1001.787,2189.345Z" transform="translate(-997.032 -2162.655)" fill="#fff" opacity="0.6"/>
        <g id="Group_301" data-name="Group 301" transform="translate(17.715 13.724)" opacity="0.6">
          <path id="Path_203" data-name="Path 203" d="M1204.981,2031.9a1.622,1.622,0,0,0,1.792.869l59.146-12.539a1.227,1.227,0,0,0-.493-2.4l-59.3,11.764A1.623,1.623,0,0,0,1204.981,2031.9Z" transform="translate(-1204.812 -2017.803)" fill="#fff"/>
        </g>
        <path id="Path_204" data-name="Path 204" d="M1033.682,2381.968l-.018,0-6.416,1.239a1.756,1.756,0,0,1-2.054-1.107l-1.654-5.258a1.192,1.192,0,0,1,.1-.935,1.436,1.436,0,0,1,.881-.682h0c.532-.146,1.279-.365,2.069-.6,1.664-.488,3.736-1.1,4.919-1.352l.026-.006a1.823,1.823,0,0,1,2.022.9,27.41,27.41,0,0,1,1.471,6.006A1.615,1.615,0,0,1,1033.682,2381.968Zm-9.029-6.256a.929.929,0,0,0-.574.439.693.693,0,0,0-.059.543l1.654,5.258a1.256,1.256,0,0,0,1.48.765l6.416-1.239.013,0a1.113,1.113,0,0,0,.949-1.213,27.281,27.281,0,0,0-1.425-5.869,1.339,1.339,0,0,0-1.493-.624c-1.165.252-3.227.857-4.884,1.343-.792.232-1.541.452-2.077.6Z" transform="translate(-1017.911 -2335.713)" fill="#fff"/>
        <path id="Path_205" data-name="Path 205" d="M1043.424,2394.344c1.326-.365,4.19-1.256,5.573-1.555a1.266,1.266,0,0,1,1.415.6,22.2,22.2,0,0,1,1.157,4.745,1.087,1.087,0,0,1-.928,1.2l-5.127.99a1.206,1.206,0,0,1-1.412-.748l-1.322-4.2A.848.848,0,0,1,1043.424,2394.344Z" transform="translate(-1035.881 -2353.93)" fill="#fff" opacity="0.6"/>
        <g id="Group_302" data-name="Group 302" transform="translate(20.502 27.449)" opacity="0.6">
          <path id="Path_206" data-name="Path 206" d="M1246.618,2236.9a1.623,1.623,0,0,0,1.792.87l59.145-12.539a1.227,1.227,0,0,0-.493-2.4l-59.3,11.764A1.622,1.622,0,0,0,1246.618,2236.9Z" transform="translate(-1246.449 -2222.802)" fill="#fff"/>
        </g>
        <path id="Path_207" data-name="Path 207" d="M1075.319,2586.968l-.017,0-6.416,1.239a1.756,1.756,0,0,1-2.054-1.107l-1.654-5.259a1.192,1.192,0,0,1,.1-.934,1.434,1.434,0,0,1,.881-.682h0c.532-.146,1.279-.366,2.069-.6,1.664-.488,3.736-1.1,4.919-1.352l.026-.006a1.823,1.823,0,0,1,2.022.9,27.393,27.393,0,0,1,1.471,6.006A1.615,1.615,0,0,1,1075.319,2586.968Zm-9.03-6.256a.928.928,0,0,0-.574.438.694.694,0,0,0-.059.544l1.654,5.258a1.257,1.257,0,0,0,1.48.765l6.416-1.239.013,0a1.113,1.113,0,0,0,.949-1.213,27.285,27.285,0,0,0-1.425-5.869,1.337,1.337,0,0,0-1.493-.624c-1.165.252-3.227.857-4.883,1.343-.793.233-1.541.452-2.077.6Z" transform="translate(-1056.76 -2526.988)" fill="#fff"/>
        <path id="Path_208" data-name="Path 208" d="M1085.061,2599.344c1.327-.365,4.19-1.256,5.573-1.555a1.265,1.265,0,0,1,1.415.605,22.2,22.2,0,0,1,1.157,4.745,1.087,1.087,0,0,1-.928,1.2l-5.127.99a1.207,1.207,0,0,1-1.412-.748l-1.322-4.2A.848.848,0,0,1,1085.061,2599.344Z" transform="translate(-1074.731 -2545.205)" fill="#fff" opacity="0.6"/>
        <g id="Group_303" data-name="Group 303" transform="translate(23.29 41.173)" opacity="0.6">
          <path id="Path_209" data-name="Path 209" d="M1288.255,2441.9h0a1.622,1.622,0,0,0,1.792.869l59.146-12.539a1.227,1.227,0,0,0-.493-2.4l-59.3,11.764A1.623,1.623,0,0,0,1288.255,2441.9Z" transform="translate(-1288.087 -2427.802)" fill="#fff"/>
        </g>
        <path id="Path_210" data-name="Path 210" d="M1096.295,2550.625h0a1,1,0,0,1,1.431.094l1.723,2.008a.322.322,0,0,0,.559-.139l1.716-7.611a.357.357,0,0,1,.7.015,14.051,14.051,0,0,1-2.06,10.4s-2.027-.349-4.214-3.363A1.052,1.052,0,0,1,1096.295,2550.625Z" transform="translate(-1085.521 -2495.699)" fill="url(#linear-gradient-8)"/>
      </g>
    </g>
    <g id="Group_308" data-name="Group 308" transform="translate(459.969 536.851)">
      <g id="Group_306" data-name="Group 306" transform="translate(3.922)">
        <path id="Path_211" data-name="Path 211" d="M554.809,1735.032a171.257,171.257,0,0,0,3.623,21.332h1.041a116.4,116.4,0,0,1-3.534-33.452c.586-13.489,3.889-29.866-2.271-37.69-5.127-6.511-26.882-7.485-34.036-7.628a1.056,1.056,0,0,0-.849,1.712c2.743,3.451,8.486,11.443,8.986,18.422.66,9.2,7.809,16.418,14.912,19.424S553.61,1722.45,554.809,1735.032Z" transform="translate(-518.552 -1677.594)" fill="#23035b"/>
        <path id="Path_212" data-name="Path 212" d="M665.559,1762.461a34.3,34.3,0,0,1,12.2,5.874,26.852,26.852,0,0,1,4.9,4.775,23.216,23.216,0,0,1,3.417,5.957l.3.807c.1.27.174.548.262.821s.173.551.245.824l.217.818q.438,1.634.855,3.274.832,3.28,1.561,6.585c.974,4.406,1.812,8.841,2.377,13.326a.2.2,0,0,1-.388.06v-.006c-.4-2.208-.846-4.415-1.332-6.61s-.979-4.389-1.505-6.575l-.8-3.276-.837-3.267q-.417-1.634-.862-3.26l-.219-.814c-.073-.272-.16-.529-.239-.794s-.152-.53-.247-.789l-.288-.775a23.039,23.039,0,0,0-3.239-5.746,25.479,25.479,0,0,0-2.191-2.491l-.292-.3-.3-.285c-.2-.189-.4-.383-.608-.568-.419-.364-.834-.733-1.273-1.074a34.4,34.4,0,0,0-5.607-3.624,35.784,35.784,0,0,0-6.188-2.564l-.01,0a.158.158,0,0,1,.085-.3Z" transform="translate(-655.534 -1756.775)" fill="#fff" opacity="0.5"/>
      </g>
      <g id="Group_307" data-name="Group 307" transform="translate(0 43.041)">
        <path id="Path_213" data-name="Path 213" d="M500.354,2343.235c3.721,5.462,3.243,8.519,3.357,11.108.02.46.046,1.109.1,1.877h1.016a22.274,22.274,0,0,1-.407-3.158c-.362-7.15-1.975-19.353-8.141-26.653s-12.918-7.966-21.426-1.33c-7.09,5.531-11.513,8.321-14.106,8.84a.98.98,0,0,0-.657,1.429c1.663,3.063,6.367,10.1,14.264,9.6C484.425,2344.32,496.633,2337.772,500.354,2343.235Z" transform="translate(-459.969 -2320.49)" fill="#23035b"/>
        <path id="Path_214" data-name="Path 214" d="M724.643,2446.2a20.265,20.265,0,0,1,1.757-1.47c.609-.46,1.237-.9,1.89-1.3a18.944,18.944,0,0,1,4.172-1.963,13.1,13.1,0,0,1,2.282-.513,9.729,9.729,0,0,1,2.367-.009c.2.032.4.051.59.094s.393.083.581.137l1.11.344,1.086.422,1.053.506a13.264,13.264,0,0,1,3.668,2.869,16.481,16.481,0,0,1,2.541,3.863l.253.518c.087.172.15.353.226.529.143.355.3.707.431,1.065l.374,1.083c.132.359.217.732.324,1.1a39.985,39.985,0,0,1,.964,4.455.153.153,0,0,1-.3.062v-.005c-.355-1.465-.7-2.933-1.184-4.353-.221-.718-.5-1.411-.763-2.112-.141-.346-.3-.683-.45-1.024-.079-.169-.145-.344-.234-.507l-.26-.494a16.8,16.8,0,0,0-2.517-3.631,12.911,12.911,0,0,0-3.475-2.652l-.993-.471-1.029-.394-1.057-.322c-.176-.05-.348-.083-.522-.125s-.352-.057-.528-.088a8.872,8.872,0,0,0-2.156-.005,12.339,12.339,0,0,0-2.146.436,20.618,20.618,0,0,0-4.086,1.74c-.652.363-1.3.742-1.926,1.152s-1.243.845-1.832,1.3l0,0a.159.159,0,0,1-.207-.241Z" transform="translate(-706.878 -2432.824)" fill="#fff" opacity="0.5"/>
      </g>
    </g>
    <g id="Group_322" data-name="Group 322" transform="translate(500.564 466.569)">
      <path id="Path_215" data-name="Path 215" d="M1066.328,920.62a10.135,10.135,0,0,1,10.135-10.135h86.187a8.929,8.929,0,0,1,8.917,8.475l6.362,124.955a6.584,6.584,0,0,1-6.456,6.918l-98.781,1.8a6.25,6.25,0,0,1-6.364-6.249Z" transform="translate(-1066.328 -891.56)" fill="#b03bd9"/>
      <g id="Group_321" data-name="Group 321" transform="translate(7.061 17.885)">
        <path id="Path_216" data-name="Path 216" d="M1171.794,897.913a2.944,2.944,0,0,1,3.339-2.936c11.77,1.6,52.242,6.532,85.7,3.964a2.722,2.722,0,0,1,2.932,2.567l6.671,125.512a3.132,3.132,0,0,1-2.943,3.294c-14.073.833-72.033,4.053-92.706,1.887a2.482,2.482,0,0,1-2.221-2.456Z" transform="translate(-1171.794 -894.949)" fill="#91b3fa"/>
        <path id="Path_217" data-name="Path 217" d="M1192.5,946.448a2.833,2.833,0,0,1,3.213-2.826c11.326,1.536,50.275,6.286,82.477,3.814a2.62,2.62,0,0,1,2.821,2.471l6.419,120.785a3.015,3.015,0,0,1-2.832,3.171c-13.544.8-69.32,3.9-89.215,1.816a2.389,2.389,0,0,1-2.137-2.364Z" transform="translate(-1191.116 -940.34)" fill="#fff" opacity="0.6"/>
        <path id="Path_218" data-name="Path 218" d="M1349.09,1099.764l1.2,25.9a1.646,1.646,0,0,0,1.6,1.57c4.8.135,19.74.5,28.178.06a1.838,1.838,0,0,0,1.741-1.777c.161-4.856.513-18.991-.594-24.9a2.075,2.075,0,0,0-1.97-1.688l-28.347-.991A1.751,1.751,0,0,0,1349.09,1099.764Z" transform="translate(-1337.219 -1084.343)" fill="#fff" opacity="0.78"/>
        <circle id="Ellipse_13" data-name="Ellipse 13" cx="5.567" cy="5.567" r="5.567" transform="translate(21.486 28.818) rotate(-76.717)" fill="#0038cf"/>
        <path id="Path_219" data-name="Path 219" d="M1446.431,1399.193h17.735a1.373,1.373,0,0,0,1.153-2.117,11.445,11.445,0,0,0-10.116-5.664,12.363,12.363,0,0,0-9.946,5.522A1.435,1.435,0,0,0,1446.431,1399.193Z" transform="translate(-1426.704 -1358.171)" fill="#0038cf"/>
        <g id="Group_309" data-name="Group 309" transform="translate(50.927 15.366)" opacity="0.6">
          <path id="Path_220" data-name="Path 220" d="M1964.353,1126.774a.917.917,0,0,0,.984-.869,1,1,0,0,0-1.035-.887l-31.084-.554a.656.656,0,0,0-.674.935l.149.422a1.532,1.532,0,0,0,1.345.952Z" transform="translate(-1932.49 -1124.464)" fill="#fff"/>
        </g>
        <g id="Group_310" data-name="Group 310" transform="translate(50.927 20.193)" opacity="0.6">
          <path id="Path_221" data-name="Path 221" d="M1933.218,1196.572a.656.656,0,0,0-.674.935l.149.422a1.532,1.532,0,0,0,1.345.952h30.315a.917.917,0,0,0,.984-.869,1,1,0,0,0-1.035-.887Z" transform="translate(-1932.49 -1196.571)" fill="#fff"/>
        </g>
        <g id="Group_311" data-name="Group 311" transform="translate(50.927 25.091)" opacity="0.6">
          <path id="Path_222" data-name="Path 222" d="M1933.218,1269.728a.656.656,0,0,0-.674.934l.149.422a1.531,1.531,0,0,0,1.345.953h30.315a.917.917,0,0,0,.984-.869,1,1,0,0,0-1.035-.887Z" transform="translate(-1932.49 -1269.727)" fill="#fff"/>
        </g>
        <g id="Group_312" data-name="Group 312" transform="translate(12.313 48.7)" opacity="0.6">
          <path id="Path_223" data-name="Path 223" d="M1429.212,1624.693a.878.878,0,0,0,.953-.869,1.039,1.039,0,0,0-1.067-.877l-72.822-.574c-.555,0-.727.347-.381.782l.595.747a2.379,2.379,0,0,0,1.639.79Z" transform="translate(-1355.716 -1622.374)" fill="#fff"/>
        </g>
        <g id="Group_313" data-name="Group 313" transform="translate(12.313 53.527)" opacity="0.6">
          <path id="Path_224" data-name="Path 224" d="M1356.275,1694.48c-.555,0-.727.348-.381.782l.595.747a2.379,2.379,0,0,0,1.639.79h71.083a.878.878,0,0,0,.953-.869,1.039,1.039,0,0,0-1.067-.877Z" transform="translate(-1355.716 -1694.48)" fill="#fff"/>
        </g>
        <path id="Path_225" data-name="Path 225" d="M1344.193,1811.784c1.751-.134,5.03-.2,6.835-.222a1.636,1.636,0,0,1,1.615,1.251,26.655,26.655,0,0,1,.768,6.608,1.453,1.453,0,0,1-1.466,1.422l-6.661-.072a1.6,1.6,0,0,1-1.575-1.45l-.585-6.266A1.165,1.165,0,0,1,1344.193,1811.784Z" transform="translate(-1331.649 -1750.197)" fill="#0038cf"/>
        <g id="Group_314" data-name="Group 314" transform="translate(23.991 64.16)" opacity="0.6">
          <path id="Path_226" data-name="Path 226" d="M1531.02,1853.295a.8.8,0,0,0-.859.956l.161,1.074a1.213,1.213,0,0,0,1.16,1h16.176a1,1,0,0,0,1-1.01l0-.273a1.082,1.082,0,0,0-1.021-1.052Z" transform="translate(-1530.15 -1853.294)" fill="#fff"/>
        </g>
        <path id="Path_227" data-name="Path 227" d="M1886.19,1811.784c1.751-.134,5.03-.2,6.835-.222a1.636,1.636,0,0,1,1.615,1.251,26.666,26.666,0,0,1,.769,6.608,1.453,1.453,0,0,1-1.466,1.422l-6.661-.072a1.6,1.6,0,0,1-1.575-1.45l-.586-6.266A1.165,1.165,0,0,1,1886.19,1811.784Z" transform="translate(-1837.36 -1750.197)" fill="#0038cf"/>
        <g id="Group_315" data-name="Group 315" transform="translate(60.277 64.16)" opacity="0.6">
          <path id="Path_228" data-name="Path 228" d="M2073.017,1853.295a.8.8,0,0,0-.859.956l.162,1.074a1.213,1.213,0,0,0,1.16,1h16.177a1,1,0,0,0,1-1.01l0-.273a1.081,1.081,0,0,0-1.021-1.052Z" transform="translate(-2072.147 -1853.294)" fill="#fff"/>
        </g>
        <g id="Group_320" data-name="Group 320" transform="translate(13.547 75.943)">
          <path id="Path_229" data-name="Path 229" d="M1382.534,2068.917h-.017l-6.146-.059a1.652,1.652,0,0,1-1.686-1.405l-.54-5.157a1.122,1.122,0,0,1,.265-.843,1.352,1.352,0,0,1,.94-.464h0c.518-.035,1.247-.1,2.019-.163,1.626-.138,3.649-.311,4.787-.325a1.718,1.718,0,0,1,1.721,1.2,25.778,25.778,0,0,1,.231,5.812A1.519,1.519,0,0,1,1382.534,2068.917Zm-7.152-7.457a.876.876,0,0,0-.611.3.653.653,0,0,0-.156.49l.54,5.157a1.183,1.183,0,0,0,1.221.983l6.146.059h.012a1.047,1.047,0,0,0,1.1-.94,25.657,25.657,0,0,0-.215-5.677,1.268,1.268,0,0,0-1.259-.855c-1.121.014-3.135.186-4.753.323-.774.066-1.505.128-2.027.164Z" transform="translate(-1374.139 -2058.412)" fill="#fff"/>
          <path id="Path_230" data-name="Path 230" d="M1391.547,2077.344c1.291-.088,4.1-.374,5.428-.39a1.19,1.19,0,0,1,1.191.823,20.9,20.9,0,0,1,.178,4.59,1.022,1.022,0,0,1-1.081.935l-4.912-.047a1.135,1.135,0,0,1-1.162-.954l-.432-4.121A.8.8,0,0,1,1391.547,2077.344Z" transform="translate(-1389.642 -2073.764)" fill="#fff" opacity="0.6"/>
          <g id="Group_316" data-name="Group 316" transform="translate(13.742 5.166)" opacity="0.6">
            <path id="Path_231" data-name="Path 231" d="M1579.457,2108.37a1.526,1.526,0,0,0,1.489,1.137l56.866-.485a1.154,1.154,0,0,0,0-2.308l-56.868-.26A1.526,1.526,0,0,0,1579.457,2108.37Z" transform="translate(-1579.406 -2106.455)" fill="#fff"/>
          </g>
          <path id="Path_232" data-name="Path 232" d="M1399.71,2033.686h0a.943.943,0,0,1,1.3.354l1.212,2.173a.3.3,0,0,0,.541-.023l3.007-6.694a.336.336,0,0,1,.642.145,13.215,13.215,0,0,1-3.846,9.2s-1.8-.7-3.255-3.889A.99.99,0,0,1,1399.71,2033.686Z" transform="translate(-1397.544 -2029.297)" fill="#0038cf"/>
          <path id="Path_233" data-name="Path 233" d="M1382.534,2265.672h-.017l-6.146-.059a1.652,1.652,0,0,1-1.686-1.405l-.54-5.157a1.121,1.121,0,0,1,.265-.843,1.348,1.348,0,0,1,.94-.464h0c.518-.035,1.247-.1,2.019-.163,1.626-.139,3.649-.311,4.787-.325h.025a1.714,1.714,0,0,1,1.7,1.2,25.775,25.775,0,0,1,.231,5.812A1.519,1.519,0,0,1,1382.534,2265.672Zm-7.152-7.457a.876.876,0,0,0-.611.3.652.652,0,0,0-.156.49l.54,5.157a1.183,1.183,0,0,0,1.221.983l6.146.059h.012a1.047,1.047,0,0,0,1.1-.94,25.659,25.659,0,0,0-.215-5.677,1.261,1.261,0,0,0-1.26-.855c-1.121.014-3.135.186-4.752.323-.774.066-1.505.128-2.027.164Z" transform="translate(-1374.139 -2241.995)" fill="#fff"/>
          <path id="Path_234" data-name="Path 234" d="M1391.547,2274.1c1.291-.088,4.1-.373,5.428-.39a1.19,1.19,0,0,1,1.191.823,20.9,20.9,0,0,1,.178,4.59,1.023,1.023,0,0,1-1.081.936l-4.912-.047a1.135,1.135,0,0,1-1.162-.954l-.432-4.121A.8.8,0,0,1,1391.547,2274.1Z" transform="translate(-1389.642 -2257.349)" fill="#fff" opacity="0.6"/>
          <g id="Group_317" data-name="Group 317" transform="translate(13.742 18.338)" opacity="0.6">
            <path id="Path_235" data-name="Path 235" d="M1579.457,2305.128a1.526,1.526,0,0,0,1.489,1.137l56.866-.485a1.154,1.154,0,0,0,0-2.308l-56.868-.26A1.526,1.526,0,0,0,1579.457,2305.128Z" transform="translate(-1579.406 -2303.213)" fill="#fff"/>
          </g>
          <path id="Path_236" data-name="Path 236" d="M1399.71,2230.444h0a.943.943,0,0,1,1.3.354l1.212,2.173a.3.3,0,0,0,.541-.023l3.007-6.694a.336.336,0,0,1,.642.145,13.215,13.215,0,0,1-3.846,9.2s-1.8-.7-3.255-3.889A.989.989,0,0,1,1399.71,2230.444Z" transform="translate(-1397.544 -2212.883)" fill="#0038cf"/>
          <path id="Path_237" data-name="Path 237" d="M1382.534,2462.429h-.017l-6.146-.059a1.651,1.651,0,0,1-1.686-1.405l-.54-5.156a1.122,1.122,0,0,1,.265-.843,1.349,1.349,0,0,1,.94-.464h0c.518-.035,1.247-.1,2.019-.163,1.626-.138,3.649-.311,4.787-.325h.025a1.714,1.714,0,0,1,1.7,1.2,25.777,25.777,0,0,1,.231,5.812A1.519,1.519,0,0,1,1382.534,2462.429Zm-7.152-7.457a.874.874,0,0,0-.611.3.652.652,0,0,0-.156.49l.54,5.157a1.182,1.182,0,0,0,1.221.982l6.146.059h.012a1.047,1.047,0,0,0,1.1-.94,25.659,25.659,0,0,0-.215-5.677,1.259,1.259,0,0,0-1.26-.855c-1.121.014-3.135.186-4.752.323-.774.066-1.505.128-2.027.164Z" transform="translate(-1374.139 -2425.579)" fill="#fff"/>
          <path id="Path_238" data-name="Path 238" d="M1391.547,2470.86c1.291-.089,4.1-.374,5.428-.39a1.19,1.19,0,0,1,1.191.823,20.9,20.9,0,0,1,.178,4.59,1.023,1.023,0,0,1-1.081.936l-4.912-.047a1.135,1.135,0,0,1-1.162-.954l-.432-4.121A.8.8,0,0,1,1391.547,2470.86Z" transform="translate(-1389.642 -2440.933)" fill="#fff" opacity="0.6"/>
          <g id="Group_318" data-name="Group 318" transform="translate(13.742 31.511)" opacity="0.6">
            <path id="Path_239" data-name="Path 239" d="M1579.457,2501.886a1.526,1.526,0,0,0,1.489,1.137l56.866-.485a1.154,1.154,0,0,0,0-2.308l-56.868-.259A1.526,1.526,0,0,0,1579.457,2501.886Z" transform="translate(-1579.406 -2499.971)" fill="#fff"/>
          </g>
          <path id="Path_240" data-name="Path 240" d="M1399.71,2427.2h0a.944.944,0,0,1,1.3.354l1.212,2.173a.3.3,0,0,0,.541-.024l3.007-6.694a.336.336,0,0,1,.642.145,13.216,13.216,0,0,1-3.846,9.2s-1.8-.7-3.255-3.889A.99.99,0,0,1,1399.71,2427.2Z" transform="translate(-1397.544 -2396.468)" fill="#0038cf"/>
          <path id="Path_241" data-name="Path 241" d="M1382.534,2659.187h-.017l-6.146-.059a1.651,1.651,0,0,1-1.686-1.405l-.54-5.157a1.122,1.122,0,0,1,.265-.843,1.351,1.351,0,0,1,.94-.464h0c.518-.035,1.247-.1,2.019-.163,1.626-.139,3.649-.311,4.787-.325h.025a1.714,1.714,0,0,1,1.7,1.2,25.775,25.775,0,0,1,.231,5.812A1.519,1.519,0,0,1,1382.534,2659.187Zm-7.152-7.457a.875.875,0,0,0-.611.3.654.654,0,0,0-.156.49l.54,5.157a1.182,1.182,0,0,0,1.221.982l6.146.059h.012a1.047,1.047,0,0,0,1.1-.94,25.661,25.661,0,0,0-.215-5.677,1.257,1.257,0,0,0-1.26-.855c-1.121.014-3.135.185-4.752.323-.774.066-1.505.128-2.027.164Z" transform="translate(-1374.139 -2609.164)" fill="#fff"/>
          <path id="Path_242" data-name="Path 242" d="M1391.547,2667.617c1.291-.088,4.1-.373,5.428-.39a1.189,1.189,0,0,1,1.191.823,20.893,20.893,0,0,1,.178,4.59,1.022,1.022,0,0,1-1.081.936l-4.912-.047a1.134,1.134,0,0,1-1.162-.954l-.432-4.121A.8.8,0,0,1,1391.547,2667.617Z" transform="translate(-1389.642 -2624.519)" fill="#fff" opacity="0.6"/>
          <g id="Group_319" data-name="Group 319" transform="translate(13.742 44.683)" opacity="0.6">
            <path id="Path_243" data-name="Path 243" d="M1579.457,2698.644h0a1.526,1.526,0,0,0,1.489,1.137l56.866-.485a1.154,1.154,0,0,0,0-2.308l-56.868-.259A1.526,1.526,0,0,0,1579.457,2698.644Z" transform="translate(-1579.406 -2696.729)" fill="#fff"/>
          </g>
          <path id="Path_244" data-name="Path 244" d="M1399.71,2623.96h0a.944.944,0,0,1,1.3.354l1.212,2.173a.3.3,0,0,0,.541-.023l3.007-6.694a.336.336,0,0,1,.642.145,13.216,13.216,0,0,1-3.846,9.2s-1.8-.7-3.255-3.889A.99.99,0,0,1,1399.71,2623.96Z" transform="translate(-1397.544 -2580.053)" fill="#0038cf"/>
        </g>
      </g>
      <path id="Path_245" data-name="Path 245" d="M1795.714,629.7a8.756,8.756,0,0,0-7.726-1.561,3.8,3.8,0,0,0-2.7,4l.822,8.97,9.779.868S1801.819,633.945,1795.714,629.7Zm-4.3,7.236a2.438,2.438,0,1,1,2.438-2.438A2.438,2.438,0,0,1,1791.413,636.933Z" transform="translate(-1737.14 -627.809)" fill="#b03bd9"/>
      <path id="Path_246" data-name="Path 246" d="M1803.935,655.634a.236.236,0,0,1-.235-.215l-.131-1.428a.236.236,0,1,1,.47-.043l.131,1.428a.236.236,0,0,1-.214.257Zm-.256-2.8a.236.236,0,0,1-.235-.215l-.1-1.084a3.628,3.628,0,0,1,2.572-3.807,7.309,7.309,0,0,1,3.574-.147.236.236,0,1,1-.095.462,6.85,6.85,0,0,0-3.346.137,3.155,3.155,0,0,0-2.236,3.311l.1,1.084a.236.236,0,0,1-.213.256Z" transform="translate(-1753.988 -646.115)" fill="#fff"/>
      <path id="Path_247" data-name="Path 247" d="M1598.432,811.745v-4.51a2.752,2.752,0,0,1,2.846-2.75l31.093,1.065a2.676,2.676,0,0,1,2.58,2.515l.26,4.333Z" transform="translate(-1562.808 -792.655)" fill="#b03bd9"/>
      <path id="Path_248" data-name="Path 248" d="M1749.681,823.312h-1.337a.236.236,0,1,1,0-.472h1.337a.236.236,0,1,1,0,.472Z" transform="translate(-1702.464 -809.783)" fill="#fff"/>
      <path id="Path_249" data-name="Path 249" d="M1620.281,827.457a.236.236,0,0,1-.236-.236V825.4a2.559,2.559,0,0,1,2.557-2.556h4.916a.236.236,0,1,1,0,.472H1622.6a2.087,2.087,0,0,0-2.085,2.084v1.824A.236.236,0,0,1,1620.281,827.457Z" transform="translate(-1582.975 -809.783)" fill="#fff"/>
      <path id="Path_250" data-name="Path 250" d="M2066.72,990.942l-7.32-5.968-7.32,5.968a125.394,125.394,0,0,0,.547-18.674c-.1-2.165-.25-4.261-.445-6.286a.926.926,0,0,1,.923-1.015h12.737a.926.926,0,0,1,.925.877q.244,4.664.3,9.647C2067.129,980.907,2066.993,986.066,2066.72,990.942Z" transform="translate(-1986.087 -942.395)" fill="#b03bd9"/>
      <path id="Path_251" data-name="Path 251" d="M1407.488,891.065a2.93,2.93,0,0,1,2.927-2.789h54.371a4.019,4.019,0,0,1,3.96,3.333l.046.266a3.451,3.451,0,0,1-3.4,4.04h-55.782a2.244,2.244,0,0,1-2.241-2.352Z" transform="translate(-1384.534 -870.836)" fill="#0038cf"/>
    </g>
    <g id="Group_325" data-name="Group 325" transform="translate(587.692 529.828)">
      <path id="Path_252" data-name="Path 252" d="M2723.239,3108.5c-2.848.131-5.605.049-7.446-.046a37.368,37.368,0,0,1,8.768-4.822l2.218-.133a9.037,9.037,0,0,1,1.02,3.759C2727.431,3107.719,2726.357,3108.358,2723.239,3108.5Z" transform="translate(-2692.492 -3001.016)" fill="url(#linear-gradient-9)"/>
      <path id="Path_253" data-name="Path 253" d="M2713.162,3160.856l.023-.016c1.841.094,4.6.177,7.446.046,3.118-.143,4.192-.783,4.56-1.241.012.121.025.24.035.367a1.039,1.039,0,0,1-.954,1.122c-2.333.177-8.116.576-10.906.43A.389.389,0,0,1,2713.162,3160.856Z" transform="translate(-2689.885 -3053.4)" fill="url(#linear-gradient-10)"/>
      <path id="Path_254" data-name="Path 254" d="M3131.114,3109.538a21.534,21.534,0,0,1,.8-3.764c.406-.775,1.793,0,1.793,0a3.686,3.686,0,0,1,1.423,1.211c.286.483,1.076,1.856,1.612,2.789a.621.621,0,0,1,.084.332l-5.557.194A1.109,1.109,0,0,1,3131.114,3109.538Z" transform="translate(-3079.996 -3002.815)" fill="url(#linear-gradient-11)"/>
      <path id="Path_255" data-name="Path 255" d="M3139.193,3175.285a.633.633,0,0,1-.616.615l-3.959.109a1.118,1.118,0,0,1-.982-.53Z" transform="translate(-3082.362 -3067.994)" fill="url(#linear-gradient-12)"/>
      <path id="Path_256" data-name="Path 256" d="M3124.959,3034.522c.048.16.766,3.642,1.081,5.169a.872.872,0,0,0,.9.7c.235-.012.509-.033.8-.07a1.053,1.053,0,0,0,.916-1c.051-1.338.076-3.908-.415-4.9C3127.556,3033.038,3124.959,3034.522,3124.959,3034.522Z" transform="translate(-3074.266 -2936.008)" fill="url(#linear-gradient-13)"/>
      <path id="Path_257" data-name="Path 257" d="M2843.241,3043.643c-.308-.01.123,1.59-.343,3.163a.809.809,0,0,1-.74.638c-.24,0-.524,0-.812-.025a.893.893,0,0,1-.823-.8l-.379-4.079Z" transform="translate(-2808.519 -2944.132)" fill="url(#linear-gradient-14)"/>
      <path id="Path_258" data-name="Path 258" d="M2757.728,2383.816c.137.669,4.99,28.971,5.284,43.616a.5.5,0,0,0,.429.485,9.8,9.8,0,0,0,2.979-.02.351.351,0,0,0,.289-.323c.17-2.729,1.533-25.8-.137-36.665,0,0,13.8,29.036,15.887,37.042a.421.421,0,0,0,.431.315,10.425,10.425,0,0,0,2.8-.5.731.731,0,0,0,.461-.858c-1.168-4.792-9.357-37.8-14.916-45.077Z" transform="translate(-2731.62 -2327.665)" fill="url(#linear-gradient-15)"/>
      <path id="Path_259" data-name="Path 259" d="M2861.561,2488.7a.181.181,0,0,0,.129-.308l-1.847-1.889a.181.181,0,1,0-.259.253l1.847,1.889A.18.18,0,0,0,2861.561,2488.7Z" transform="translate(-2826.609 -2425.275)" fill="url(#linear-gradient-16)"/>
      <path id="Path_260" data-name="Path 260" d="M2634.67,1854.427c4.127-.621,12.229-1.51,17.512.041l-.573,16.332-19.144-2.064-1.624-2.308S2631.593,1854.889,2634.67,1854.427Z" transform="translate(-2613.228 -1834.797)" fill="url(#linear-gradient-17)"/>
      <path id="Path_261" data-name="Path 261" d="M2743.014,1735.294s.383,6.5.31,8.516c0,0-5.318.87-6.584-.04l1-7.7Z" transform="translate(-2712.038 -1724.408)" fill="url(#linear-gradient-18)"/>
      <g id="Group_323" data-name="Group 323" transform="translate(23.004 0)">
        <path id="Path_262" data-name="Path 262" d="M2714.173,1638.117s-2.142,3.759-2.479,5.816-.929,3.352,1.419,4.027a5.117,5.117,0,0,0,5.807-2.245s2.053-2.993,1.81-4.335S2714.173,1638.117,2714.173,1638.117Z" transform="translate(-2711.37 -1633.737)" fill="url(#linear-gradient-19)"/>
        <path id="Path_263" data-name="Path 263" d="M2728.726,1583.1l-.3-.033s1.522-2.423.475-2.99-5.29-1.919-6.061-3.559a2.879,2.879,0,0,1,1.53-3.819.162.162,0,0,1,.2.1l.08.2a.164.164,0,0,0,.3,0h0a.163.163,0,0,1,.3-.013c.237.491.933,1.323,2.972,1.932,2.894.863,4.718,2.268,4.546,4.314a.163.163,0,0,0,.237.16c.232-.109.588-.134,1.012.308.737.769.215,2.5-1.719,3.765a.162.162,0,0,0-.021.261c.3.245.726.8-.59,1.327a3.338,3.338,0,0,1-2.368.285.163.163,0,0,1-.1-.182l.306-1.8a.163.163,0,0,0-.144-.19Z" transform="translate(-2721.834 -1572.694)" fill="url(#linear-gradient-20)"/>
        <path id="Path_264" data-name="Path 264" d="M2812.591,1708.715s.926-2.449,1.979-1.621-.89,2.759-1.808,2.756Z" transform="translate(-2805.815 -1697.937)" fill="url(#linear-gradient-21)"/>
      </g>
      <g id="Group_324" data-name="Group 324" transform="translate(0 28.971)">
        <path id="Path_265" data-name="Path 265" d="M2470.081,2008.863l.508-2a1.908,1.908,0,0,1,2.231-1.4l47.811,9.754a2,2,0,0,1,1.559,2.375l-2.915,13.817Z" transform="translate(-2463.23 -2005.429)" fill="url(#linear-gradient-22)"/>
        <path id="Path_266" data-name="Path 266" d="M2402.37,2047.437l3.6-25.845a.924.924,0,0,1,1.116-.775l49.1,10.9a1.932,1.932,0,0,1,1.464,2.321l-4.121,17.865Z" transform="translate(-2400.053 -2019.766)" fill="#fff"/>
        <path id="Path_267" data-name="Path 267" d="M2421.74,2067.015l1.377-23.068a.972.972,0,0,1,1.171-.893l49.621,10.5a1.343,1.343,0,0,1,1.049,1.525l-2.643,16.663Z" transform="translate(-2418.126 -2040.515)" fill="#fff"/>
        <path id="Path_268" data-name="Path 268" d="M2367.776,2107.9l3.124-24.986a2.176,2.176,0,0,1,2.563-1.868l50.883,9.6a1.9,1.9,0,0,1,1.516,2.221l-4.3,22.769a2.057,2.057,0,0,1-2.294,1.658l-49.327-6.587A2.519,2.519,0,0,1,2367.776,2107.9Z" transform="translate(-2367.757 -2075.945)" fill="url(#linear-gradient-23)"/>
        <path id="Path_269" data-name="Path 269" d="M2508.336,2069.932h0a1.953,1.953,0,0,1-2.281,1.557l-11.345-2.141a1.954,1.954,0,0,1-1.557-2.282h0a1.953,1.953,0,0,1,2.282-1.557l11.345,2.141A1.953,1.953,0,0,1,2508.336,2069.932Z" transform="translate(-2484.725 -2061.455)" fill="url(#linear-gradient-24)"/>
      </g>
      <path id="Path_270" data-name="Path 270" d="M2869.848,1873.622l5.34-7.121s8.581,9.115,10.227,20.684l-5.352,2.61C2878.4,1885.9,2875.343,1880.622,2869.848,1873.622Z" transform="translate(-2836.234 -1846.831)" fill="url(#linear-gradient-25)"/>
      <path id="Path_271" data-name="Path 271" d="M2970.44,2193.979a31.1,31.1,0,0,1,2.469-3.7,2.578,2.578,0,0,0-1.6-.218c-1.053.13-1.878-.384-1.847-.958l5.027-1.542c.226-.472,1.22-3.149-1.482-9.487l5.353-2.61a24.111,24.111,0,0,1-1.88,13.676s-1.662,5.162-3.572,6.308C2967.921,2198.436,2970.2,2194.385,2970.44,2193.979Z" transform="translate(-2929.175 -2135.108)" fill="url(#linear-gradient-26)"/>
    </g>
    <g id="Group_326" data-name="Group 326" transform="translate(486.198 521.379)">
      <path id="Path_272" data-name="Path 272" d="M1054.628,1446.836l-1.055,1.335,0,.005a.224.224,0,1,1-.352-.278l0,0,1.094-1.32a.2.2,0,0,1,.317.257Z" transform="translate(-1039.684 -1446.501)" fill="#fff"/>
      <path id="Path_273" data-name="Path 273" d="M988.723,1518.067l-1.788,2.852-.009.014a.309.309,0,0,1-.523-.328l0-.005,1.859-2.843a.276.276,0,0,1,.465.3Z" transform="translate(-977.345 -1512.87)" fill="#fff"/>
      <path id="Path_274" data-name="Path 274" d="M933.863,1616.257l-1.434,3.041-.008.018a.378.378,0,1,1-.683-.322l0-.006,1.5-3.05a.347.347,0,0,1,.626.3Z" transform="translate(-926.349 -1604.414)" fill="#fff"/>
      <path id="Path_275" data-name="Path 275" d="M891.977,1720.849l-1.041,3.192-.008.024a.446.446,0,1,1-.848-.277l0-.008,1.113-3.219a.416.416,0,0,1,.789.265Z" transform="translate(-887.494 -1701.953)" fill="#fff"/>
      <path id="Path_276" data-name="Path 276" d="M864.707,1830.539l-.621,3.294-.006.029a.5.5,0,1,1-.976-.184v-.005l.668-3.344a.478.478,0,0,1,.939.182Z" transform="translate(-862.337 -1804.273)" fill="#fff"/>
      <path id="Path_277" data-name="Path 277" d="M852.995,1943.886l-.164,3.345,0,.033a.539.539,0,0,1-1.076-.053v-.006l.2-3.407a.52.52,0,0,1,1.039.056Z" transform="translate(-851.752 -1910.048)" fill="#fff"/>
      <path id="Path_278" data-name="Path 278" d="M853.466,2058.572l.3,3.334,0,.035a.58.58,0,0,1-1.156.1v-.006l-.266-3.406a.562.562,0,0,1,1.12-.094Z" transform="translate(-852.302 -2017.086)" fill="#fff"/>
      <path id="Path_279" data-name="Path 279" d="M866.922,2172.413l.749,3.26.008.036a.622.622,0,1,1-1.213.279v-.007l-.73-3.34a.6.6,0,0,1,1.178-.264Z" transform="translate(-864.786 -2123.344)" fill="#fff"/>
      <path id="Path_280" data-name="Path 280" d="M895.8,2283.26l1.169,3.133.013.035a.654.654,0,1,1-1.226.457v0l-1.179-3.209a.646.646,0,1,1,1.212-.445Z" transform="translate(-891.675 -2226.816)" fill="#fff"/>
      <path id="Path_281" data-name="Path 281" d="M939.538,2389.621l1.562,2.957.018.033a.668.668,0,0,1-1.182.624v0l-1.586-3.029a.662.662,0,1,1,1.173-.614Z" transform="translate(-932.481 -2326.121)" fill="#fff"/>
      <path id="Path_282" data-name="Path 282" d="M996.609,2489.509l1.922,2.737.021.031a.682.682,0,1,1-1.117.784v0l-1.954-2.805a.676.676,0,0,1,1.109-.773Z" transform="translate(-985.744 -2419.385)" fill="#fff"/>
      <path id="Path_283" data-name="Path 283" d="M1065.76,2581.431l2.248,2.474.026.029a.7.7,0,1,1-1.03.936l0,0-2.291-2.54a.69.69,0,0,1,1.025-.924Z" transform="translate(-1050.289 -2505.212)" fill="#fff"/>
      <path id="Path_284" data-name="Path 284" d="M1145.954,2663.857l2.549,2.157.033.028a.71.71,0,1,1-.917,1.083h0l-2.606-2.222a.7.7,0,1,1,.913-1.071Z" transform="translate(-1125.147 -2582.177)" fill="#fff"/>
      <path id="Path_285" data-name="Path 285" d="M1236.46,2734.747l1.413.881.706.441c.237.145.467.3.71.434a.724.724,0,0,1-.7,1.268l0,0-.019-.01c-.25-.139-.487-.3-.731-.449l-.727-.457-1.452-.913a.717.717,0,0,1,.764-1.215Z" transform="translate(-1209.644 -2648.377)" fill="#fff"/>
      <path id="Path_286" data-name="Path 286" d="M1337.023,2791q1.514.691,3.074,1.28a.728.728,0,0,1-.512,1.364q-1.606-.6-3.17-1.312a.732.732,0,1,1,.608-1.331Z" transform="translate(-1303.568 -2700.926)" fill="#fff"/>
      <path id="Path_287" data-name="Path 287" d="M1445.051,2830.555l3.237.8.044.011a.718.718,0,0,1-.344,1.394l-3.328-.816a.722.722,0,0,1,.344-1.4h0Z" transform="translate(-1404.452 -2737.865)" fill="#fff"/>
      <path id="Path_288" data-name="Path 288" d="M1558.109,2853.894l3.322.353.04,0a.707.707,0,0,1-.147,1.407l-3.4-.351a.713.713,0,1,1,.146-1.418h0Z" transform="translate(-1510.046 -2759.663)" fill="#fff"/>
      <path id="Path_289" data-name="Path 289" d="M1673.441,2861.38l3.346-.054h.035a.678.678,0,0,1,.027,1.356l-3.416.081a.691.691,0,0,1-.033-1.381h.041Z" transform="translate(-1617.762 -2766.605)" fill="#fff"/>
      <path id="Path_290" data-name="Path 290" d="M1789.037,2850.465l3.323-.43.03,0a.648.648,0,0,1,.172,1.285l-3.38.465a.662.662,0,0,1-.18-1.311h.005Z" transform="translate(-1725.721 -2756.061)" fill="#fff"/>
      <path id="Path_291" data-name="Path 291" d="M1903.5,2827.847l3.267-.761.025-.006a.591.591,0,0,1,.277,1.15l-3.307.822a.616.616,0,0,1-.3-1.2h.005Z" transform="translate(-1832.619 -2734.638)" fill="#fff"/>
      <path id="Path_292" data-name="Path 292" d="M2015.7,2794.277l3.183-1.073.021-.007a.534.534,0,0,1,.349,1.01l-3.209,1.134a.56.56,0,1,1-.373-1.055l0,0Z" transform="translate(-1937.396 -2703.012)" fill="#fff"/>
      <path id="Path_293" data-name="Path 293" d="M2124.594,2750.752l3.077-1.356.017-.007a.478.478,0,0,1,.392.872l-3.091,1.417a.5.5,0,1,1-.419-.914l0,0Z" transform="translate(-2039.082 -2662.125)" fill="#fff"/>
      <path id="Path_294" data-name="Path 294" d="M2229.691,2698.614l2.962-1.6.012-.007a.391.391,0,0,1,.38.683l-2.948,1.687a.432.432,0,0,1-.429-.75l.007,0Z" transform="translate(-2137.216 -2613.243)" fill="#fff"/>
      <path id="Path_295" data-name="Path 295" d="M2330.59,2638.318l2.825-1.839.009-.006a.3.3,0,0,1,.331.5l-2.8,1.918a.339.339,0,1,1-.383-.559l.005,0Z" transform="translate(-2231.431 -2556.762)" fill="#fff"/>
      <path id="Path_296" data-name="Path 296" d="M2426.87,2584.987l1.365-1.022,0,0a.2.2,0,0,1,.25.322l-1.337,1.071a.232.232,0,1,1-.29-.361l.005,0Z" transform="translate(-2321.328 -2507.773)" fill="#fff"/>
    </g>
  </g>
</svg>
