<svg xmlns="http://www.w3.org/2000/svg" version="1.1" viewBox="0 0 1600 1600" width="1280" height="1280">
<path transform="translate(427,124)" d="m0 0h16l16 2 15 5 8 7 3 7v8l-4 16-8 17-12 20 1 3 3 2 2 7-2 6-1 1v12l5 13 5 10 6 7 9 17 4 16 1 7v28l-2 16-4 11-7 11-9 9-12 7-16 5-27 6-12 6-10 8-1 2h12l10 3 5 4 9-1 19-5 21-8 21-10 19-11 11-7 10-47 10-48 3-20 2-19-18 5-13 6-5 1-6-4-1-4 7-9 8-9-3-5-10-6-12-5-11-3-3-4 1-7 5-4 7-3h6l6 1 4-3 11 2 7 2 12 2 12 3 11 2 17 8 11 8 5 5 11 4 4 6 1 8 1 5 3 4-1 10-5 26-8 47-3 18-3 23-1 14v10l1 13-9 11-15 12-23 16-21 14-11 9-12 11-11 14-7 15-2 9-7 53-1 16 22-2h24l12 6 8 9 5 11 3 22 12 133 2 24v12l-3 10-6 10-8 7-7 3-5 1 2 4 13 18 14 21 12 17 16 21 13 16 13 17 9 13 5 11v20l-2 23-3 74-1 38-1 160-2 2-7 2 2 5 5 3 9 4 2 3 1 9 4 6 6 11 3 2 18-1h18l8 4 10 12 9 14 5 11 4 19v6l-3 3 45 1 8 3 5 5 2 6v83l-2 7-4 5-4 2-9 1h-284l-7-2-6-5-3-9v-82l3-7 5-5 6-2 61-1-2-4 1-10 6-41 1-15-2-12 5-5-1-17 3-7-8-1-2-2-1-8-1-25-1-100v-132l2-26 1-6-11-9-15-16-11-12-9-11-15-16-7-8-6-6v-2l-3-1-7-8-8-7-13-12-10-8-17-12-5-3-4 10-7 27-9 48-7 45-4 32-3 31-2 38-6 31-5 27-18 128-8 67-5 46-3 15-2 3-7 1 3 8 10 5 3 4v10l5 7 1 7 21-2h21l8 4 11 12 9 16 2 7-1 9 4 15-1 5-6 1-36 1h-83l-35-1-15-1-5-2-1-7 1-9 3-49v-19l5-5 1-17 3-4v-2l-8-4-1-4 4-47 12-112 11-104 6-37 2-11 1-33 8-84 3-47 1-39-4 2h-11l-3 2-9-1-5-3-6 1-9 1-6-3-7-8-9-16-16-47-6-26-4-4-2-7-1-8-6-3-1-3-5-50-5-76-2-16-4-16-1-2v-6l7-11 8-11 28-38 16-21 9-11 12-14 9-10 18-18 16-12 13-8 12-7 4-8 11-12 9-1 1-2-1-13-5-12-9-14-14-18-5-8-9-3-6-8-6-14-6-23-3-18-2-18v-12l2-25 4-19 7-21 5-13 16-17 8-7 12-6 16-4 13-2 13-1h35l19-8 13-4zm32 97 2 4h2l-2-4zm-183 340-12 11-13 13-7 8-13 14-5 9 1 1h11l43-4 3-2-1-26-3-20-1-4z" fill="#CACFD9"/>
<path transform="translate(1182,929)" d="m0 0h282l12 2 6 7 1 2v570l-6 8-4 2-16 1h-277l-7-2-7-7-1-3-1-15v-518l1-35 3-6 5-4z" fill="#0b323c"/>
<path transform="translate(531,840)" d="m0 0h2l11 15 19 28 12 17 16 21 13 16 13 17 9 13 5 11v20l-2 23-3 74-1 38-1 160-2 2-7 2 2 5 5 3 9 4 2 3 1 9 4 6 6 11 3 2 18-1h18l8 4 10 12 9 14 5 11 4 19v6l-3 3 45 1 8 3 5 5 2 6v83l-2 7-4 5-4 2-9 1h-284l-7-2-6-5-3-9v-82l3-7 5-5 6-2 61-1-2-4 1-10 6-41 1-15-2-12 5-5-1-17 3-7-8-1-2-2-1-8-1-25-1-100v-132l2-26 1-6-11-9-15-16-11-12-9-11-15-16-7-8-6-6v-2l-3-1-7-8-8-7-13-12-10-8-17-12-5-3-4 10-7 27-9 48-7 45-4 32-3 31-2 38-6 31-5 27-18 128-8 67-5 46-3 15-2 3-7 1 3 8 10 5 3 4v10l5 7 1 7 21-2h21l8 4 11 12 9 16 2 7-1 9 4 15-1 5-6 1-36 1h-83l-35-1-15-1-5-2-1-7 1-9 3-49v-19l5-5 1-17 3-4v-2l-8-4-1-4 4-47 12-112 11-104 6-37 2-11 1-33 8-84 3-47 1-41 1-5-1-4 8-3 2-3 1-6 48-4 110-10z" fill="#2A2A39"/>
<path transform="translate(825,1169)" d="m0 0h289l9 3 6 7v332l-7 8-12 2h-284l-7-2-7-8-1-5v-324l3-7 7-5z" fill="#0b323c"/>
<path transform="translate(1182,929)" d="m0 0h282l12 2 6 7 1 2v570l-6 8-4 2-16 1h-26v-1l22-1-5-1-4 1v-2l-6 1-40-5h-26l-14-3-3-2-2-9-1-47-1-56v-444l-1-9-4-1-23 4-25 2h-27l-14-1-9 1-40-1-7-1h-17l-9-1-7-1-2-6 5-6 4-2z" fill="#0b323c"/>
<path transform="translate(427,124)" d="m0 0h16l16 2 15 5 8 7 3 7v8l-4 16-8 17-12 20 1 3 3 2 2 7-2 6-1 1v12l5 13 5 10 6 7 9 17 4 16 1 7v28l-2 16-4 11-7 11-9 9-12 7-16 5-27 6-12 6-10 8v2l7 1v2h2v3h2l-1 5-4 4v7l5 11-1 3-9-14-11-9-16-8-16-3-30-2 1-3-1-13-5-12-9-14-14-18-5-8-9-3-6-8-6-14-6-23-3-18-2-18v-12l2-25 4-19 7-21 5-13 16-17 8-7 12-6 16-4 13-2 13-1h35l19-8 13-4zm32 97 2 4h2l-2-4z" fill="#CA8590"/>
<path transform="translate(323,430)" d="m0 0h18l15 3 12 5 16 9 7 7 5 11 6 21 10 40 7 36 5 32 1 3-6 2-13 2-39 3-73 7h-10l-1-7-2-28-2-11v-4l-7 4-20 20-7 8-13 14-5 9 1 2 3 70 4 59 1 15-5-2-1-1h-8l-31 5-9 2-12 1-2-4-5-50-5-76-2-16-4-16-1-2v-6l7-11 8-11 28-38 16-21 9-11 12-14 9-10 18-18 16-12 13-8 16-8 10-4z" fill="#292A39"/>
<path transform="translate(1056,1177)" d="m0 0 20 1 13 2 10 4 2 4h2l2 9 4 10 2 10 1 2 3 37 2 10v32l-2 18v29l1 17v37l-2 21-2 18v30l1 4 1 26 1 1-1 10h-4l1 5-6 5-3 1h-71l-23-3-6-4-3-6h2l-2-4 2-2-2-1 1-4-4-4 3-19 2-2 1 2v-64l2-41v-105l1-19 1-36 2-12 5-4 7-8 15-5z" fill="#0b323c"/>
<path transform="translate(532,1407)" d="m0 0h7l5 1h171l46 1 8 3 5 5 2 6v83l-2 7-4 5-4 2-9 1h-284l-7-2-6-5-3-9v-82l3-7 5-5 6-2 61-1z" fill="#0b323c"/>
<path transform="translate(508,194)" d="m0 0 11 2 7 2 12 2 12 3 11 2 17 8 11 8 5 5 11 4 4 6 1 8 1 5 3 4-1 10-5 26-8 47-3 18-3 23-1 14v10l1 13-9 11-15 12-23 16-21 14-11 9-12 11-11 14-7 15-2 9-7 53-2 16-22 2h-11l2-10 6-24 4-22 1-7v-34l-4-18-8-16-6-8-8-9-3-5 2-5 3-4v-6l-3-3 8-4 20-6 24-10 21-11 21-13 10-47 10-48 3-20 2-19-18 5-13 6-5 1-6-4-1-4 7-9 8-9-3-5-10-6-12-5-11-3-3-4 1-7 5-4 7-3h6l6 1z" fill="#2A2B3A"/>
<path transform="translate(227,617)" d="m0 0h2v3l5-1h9l3 3 4 14 3 16 5 32 1 11 2 11 5 1 1 8 4-10 20-1 22-2 1 1 1 20 1 7 2 26 1 12h-4v2l-5 1h-10l-3-3-1-3-3-42-1-5-11 51-2 4-5 2-3 8-1 4v7l3 6 2 6 9 13v32l1 4-1 6 15 1v1h-15v6l-5 5-6 1 2 6-2 5-4 2h-11l-3 2-9-1-5-3-6 1-9 1-6-3-7-8-9-16-16-47-6-26-4-4-2-7-1-8-2-2 12-2 6-2 31-5h8l6 4-3-26-3-48z" fill="#9E818E"/>
<path transform="translate(427,124)" d="m0 0h16l16 2 15 5 8 7 3 7v8l-4 16-8 17-12 20 1 3 3 2 2 7-2 6-2 1-2-5-3 1h-13v-6l3-5 10-2-4-9-56-1h-18l-10 2-14 8-11 10-6 10-5 15-5 38-4 13-5 6h-4l-2-3-2-24-3-21-4-11-5-8-3-1h-16l-11 4-9 7h-2l1-16 4-19 7-21 5-13 16-17 8-7 12-6 16-4 13-2 13-1h35l19-8 13-4z" fill="#292A39"/>
<path transform="translate(541,1296)" d="m0 0h43l25 1 6 2 4 5 11 4 3 4 1 9 4 6 6 11 3 2 18-1h18l8 4 10 12 9 14 5 11 4 19v6l-3 3-6 1h-166l-12-2-2-3 1-10 6-41 1-15-2-12 5-5-1-17 3-7z" fill="#2A2B3A"/>
<path transform="translate(235,1408)" d="m0 0 21 3 27 4 16 1 6 1 1-2 3 8 10 5 3 4v10l5 7 1 7 21-2h21l8 4 11 12 9 16 2 7-1 9 4 15-1 5-6 1-36 1h-83l-35-1-15-1-5-2-1-7 1-9 3-49v-19l5-5 1-17z" fill="#2B2C3B"/>
<path transform="translate(1054,1172)" d="m0 0h50l17 1 6 3 2 3v332l-7 8-12 2h-284l-7-2-7-8 1-6 3-6 7-6 8-1h33l66 3 12 1h16l1-1-16-2v-1l12-1-3-3 6-2 11-1h2l7-2v2h2v-2h5l1-7 2 1 2 5 3-19 2-25v-26l1-5 1-16 2-9 1-17 1-9 1-35 1-6-1-17v-73l2-26 3-15 2-4 16-5zm2 5-21 2-15 5-7 8-5 4-2 15-1 40-1 13v109l-2 36v65l-2-3-1 2-2 14-1 5 4 5-1 3 2 2-2 2 2 3-2 1 3 5 7 4 22 3h71l7-4 2-2-1-5h4l1-10-1-1-1-26-1-4v-30l3-28 1-12v-41l-1-12v-29l2-19v-31l-2-10-3-37-2-4-2-10-4-13-1-4h-2l-2-4-10-4-13-2z" fill="#0b323c"/>
<path transform="translate(403,206)" d="m0 0m-6 1h6l-1 4-13 5-10 7h-2v2h-2v4h6l6 3-2 6 6-4 5-2 14-2-1 9-1 1v5l6 3 4-4h2l-2-7-1-2h3l3 5h5l2-4 6-5h9l4-1 4 1-1 4-1 5-2 1 1 4 4 1 1 1h5l1-2v-8l-1-5h2l-1-7h2l1 12 5 13 5 10 6 7 9 17 4 16 1 7v28l-2 16-4 11-3 5-1-3-4-1-17-1-9-3-13-4-14-8-3-2v-2l-3-1-9-15v-5h-2l-5-10-2-6-5-8-4-5-6-4-5-3-5-6-8-8-6-4-3-8-1-12-1-6 1-2 1-9 4-4h2l2-4 4-4h2l1-3 2-1 5 1v-2l3-1 4-4 5-1z" fill="#FDACBC"/>
<path transform="translate(682,1414)" d="m0 0h10l15 2 13 4 20-1 8 1 3 5 3 7 3 18 4 26-1 3 1 8 1 2v19l1 1v9l-5 2h-101l-2-2-14-5-5-3v-1l7-2-1-2 2-2-5-3-1-4 7-3 4-13 2-19 6-15 4-5 3-5 3-3 1-8 6-4v-5z" fill="#0b323c"/>
<path transform="translate(380,197)" d="m0 0h18l56 1 2 2 2 8-10 3-2 4-1 6 16-1-2 1 3 6v5h-2l2 5v8l-2 3h-5l-3-2-3-1-1-5h3l-1-3 3-6-12 1h-5l-7 6-1 2-5 1-3-4v-2l-2 1 2 3v5h-2l-2 4-3 1-6-4v-5l1-5 2-5-16 4-10 5 2-6-5-3-6-1v-4h2v-2l12-8 10-4h3l1-4-8 2-7 2-2 3h-3v2h-5l-5 4-6 7-5 2-1 11-1 6 1 2 1 13 4 8 7 4 3 4v2l4 2 3 3v2l4 1 5 4 6 5 5 9 4 8 3 9h2l2 7 8 13 2 1v2l4 2 15 8 19 5 5 1 15 1 3 3-3 7-9 9-3-2h-6l-6-3-1-2-11-2v-2l-7-1-5-3-6-2-11-6-5-3-5-2-4-6-4-2-5-5-5-2v-2l-8-1-9-2-9-3-8-3-5-4v-2l-16-4-8-4-1-6-5-2v-2l-4-1 3-1 6-9 3-11 5-38 5-15 6-10 7-7 10-7 12-6z" fill="#F0A1AE"/>
<path transform="translate(314,416)" d="m0 0h28l19 2 10 3 17 9 10 9 7 11-5-12v-7l5-5 1-4h-2v-3h-2v-2l-5 1-2-2h11l10 3 5 4 12-1-1 2-4 2 3 2v6l-5 7 2 5 6 8 8 9 8 15 4 15 1 6v34l-4 24-6 26-4 13 22-2h10v1l-30 3-17 1-6 1h-9v-1l13-2-3-15-6-36-8-37-10-38-5-13-4-6-7-6-19-10-14-4-7-1h-18l-10 1-12 5-2-1 4-8z" fill="#0b323c"/>
<path transform="translate(710,1408)" d="m0 0 51 1 8 3 5 5 2 6v83l-2 7-4 5-4 2h-8l4-2v-9l-1-1v-20l-1-1-1-9 1-3-4-25-3-18-3-7-2-4-13-1-15 1-13-4-15-2h-10l-8 1 1 5-6 4-1 9-4 2-2 5-4 5-6 15-2 19-4 13-7 3 1 4 5 3v3l-3 3-5 1 13 5 6 3 1 1 100 1v1h-284l-7-2-6-5-2-4v-21l2-7 4 1 2 2 1 5 6 3 6 4 7-1 2 1h7l8 2h58l10 1 5-1h43l8-6 4 1 3-5 3-3-2-5 7-5 4-9v-7l3-15 2-16 3-11 6-4 15-2 2-1-130-1v-1z" fill="#0b323c"/>
<path transform="translate(1352,1204)" d="m0 0h1v91l1 34 1 36 1 7 1 5v21l1 8 3-1v10l3 11-1 4-1 1v6l5 1 2 2-1 11 3 7-1 4h2l1 7 3 1 4-3 10 2 7 4h3v2h2v2l10 1 1 1h9l10-5 2-2h3l1-3 7-4 4-7 7-4v-2h2l2-4 2-1v-2l5-2 6 1 3 2v6h2l2 9 2 6 1 17v26l-6 8-4 2-16 1h-26v-1l22-1-5-1-4 1v-2l-6 1-40-5h-26l-14-3-3-2-2-9-1-47-1-56v-182z" fill="#0b323c"/>
<path transform="translate(221,775)" d="m0 0 5 1 3 6 4 3 11 6 15 9v2l5 2 11 10 1 5-6-1-4-4-2-1h-7l-1 2 1 18h2l6 14 4 6 5 4 8 5 1 2v6l-4 4-6 1 2 6-2 5-4 2h-11l-3 2-9-1-5-3-6 1-9 1-6-3-7-8-9-16-16-47-6-27 13-4 19-6z" fill="#C98590"/>
<path transform="translate(1182,1467)" d="m0 0 5 4h6l1 4h7l2 2v3l7-1 4 2v3l5-1 4 2 8 2 7 2h5l1-4h5l4 2h4l2 2 9 1v2h11 3l5-1-4-4-3-1 7-3h5l-1 5h2l1-2h7l2 2 4-1 9-4 3-2v2h5l5-2 2 4 4-2 4 1 1-3h2l4 13 2 14 1 10-2 2-103 1h-64l-7-2-7-7-1-3v-21l2-4 1-7 2-3h6l4-6z" fill="#0b323c"/>
<path transform="translate(1e3 1316)" d="m0 0h1v57l-2 36v68l-3-4-2 14-1 5 4 5-2 3 3 1-2 3 1 5 5 6 4 1 21 3v1l-124 1h-81l-7-2-7-8 1-6 3-6 7-6 8-1h33l66 3 12 1h16l1-1-16-2v-1l12-1-3-3 6-2 11-1h2l7-2v2h2v-2h5l1-7 2 1 2 5 3-19 2-25v-26l1-5 1-16 2-9 1-17 1-9 1-35z" fill="#0b323c"/>
<path transform="translate(508,194)" d="m0 0 11 2 7 2 12 2 12 3 11 2 17 8 11 8 5 5 11 4 4 6 1 8 1 6-5 18-4 6-8 1-16-9-8-6-2-5 1-1-12-3-10-3-1 2v-3l-18 5-13 6-5 1-6-4-1-4 7-9 8-9-3-5-10-6-12-5-11-3-3-4 1-7 5-4 7-3h6l6 1z" fill="#936A81"/>
<path transform="translate(1182,929)" d="m0 0h282l12 2 6 7v2h-16l-10 1-27 1-11 3h-6v3l-2 1 1 5 7 3 1 7-3 2-1 9-3 4 1 7-5 5-5-1-4-4-4 1-2 6-5 3-1-9-3-6-5-2-5-1v-2l-3-1-4-1v2h-4l-3 9-6 2-1-3-1-41v-7l-62-2-108-1-10 1-5 4 2-4 6-4z" fill="#0b323c"/>
<path transform="translate(235,619)" d="m0 0h8l3 3 4 14 3 16 5 32 1 11 2 11 5 1 1 8 4-10 20-1 22-2 1 1 1 20 1 7 2 26 1 12h-4v2l-5 1h-10l-3-3-1-3-3-42-1-5-11 51-2 4h-19l-2-3-4-2-4-18-3-9-2-9-1-13 2-10h-6v-1l12-2 2-4-2-29-4-20-3-14-2-11-2-7-6-1z" fill="#0b323c"/>
<path transform="translate(292,717)" d="m0 0h1l2 18 2 30 1 5h16l1 2-8 1h-11l-2 4-4 11-1 11 4 17 3 9 1 14 2 15 8 3 12-3 15-2h10l15-3 25-2 31-4 26-2 20-2 19-1 48-6 18-4 6-2 2 1-2 4-8 6-13 4-89 9-132 12h-26l-1-2 1-6-1-3v-32l-10-14-2-6-2-7v-8l3-5 2-5 5-2 5-21 7-33z" fill="#B7BED0"/>
<path transform="translate(460,847)" d="m0 0h21l-2 2 1 3 3 1 4 15 2 14-1 8-4 8v7l-3 9-7-1-4-4v-2h-2v-2h-3v-2l-4-2-12-11-3-3-5-2-5-5-9-7v-2l-6-2-11-6-5-5v-2l-9 2-7 3-5-1-2-1h-18l-16 2-16 6-12 1-10 1-5 5-6 8-5 2-4-10-7-2 1-9 48-4 110-10z" fill="#14151F"/>
<path transform="translate(374,696)" d="m0 0h9l3 38 2 23-1 4-4 2-4 1h-9l-3-3-2-16-4-36-1-2-2 5-2 8-11-2-6-1v3l9 4 10 6 5 8v14l-4 8-7 6-6 2h-16l-7-3-4-6-1-12 3-1 8 1 5 1h3l4 2-2-5-10-5-5-5-6-7-1-3v-12l6-9 8-5h21l8 4 1-6z" fill="#0b323c"/>
<path transform="translate(825,1169)" d="m0 0h289l9 3 2 3-4-1-17-1-64-1h-45l-10 2-10 3-7 4h-2v2l-11 3-20 3-4 1-17 1-7-1h-41l-11-1-10-1-8-1-2-3h-9l-4-2h-9l-1 324h-1v-324l3-7 7-5z" fill="#0b323c"/>
<path transform="translate(493,685)" d="m0 0h12l1 4 3 44v18l-6 2h-15l-5-3-8-14-4-6v24l-2 2h-14l-3-4-4-37-2-17v-7l2-2 8-1h16l9 17 4 6v-25z" fill="#0b323c"/>
<path transform="translate(408,692)" d="m0 0h17l12 6 6 7 4 13v19l-3 9-6 8-9 6-6 1h-11l-11-4v-2h-3l-8-13-3-15v-10l3-9 4-8 7-6z" fill="#0b323c"/>
<path transform="translate(338,228)" d="m0 0 1 4-2 5-4 24-1 9 6-2 6 6 2 9 5 8 20 7 6 3 9 6 4 8 4 3 1 3 2 1 3 6 3 4 3 8 4 2 3 4 5 3 2 4 5 1 7 4 30 10 5 2h13l-2 6-6 5-2-2h-6l-6-3-1-2-11-2v-2l-7-1-5-3-6-2-11-6-5-3-5-2-4-6-4-2-5-5-5-2v-2l-8-1-9-2-9-3-8-3-5-4v-2l-16-4-8-4-1-6-5-2v-2l-4-1 3-1 6-9 3-11 5-38z" fill="#DF929C"/>
<path transform="translate(497,592)" d="m0 0h24l12 6 8 9 5 11 3 22 12 133 2 24v12l-3 10h-7l-1-2-4-55-7-80-3-33-3-25-5-12-7-9-7-4-4-1h-30l-47 4-15 2-17 1-9-1-11 2-1 1h-16v1l-18 2h-30v-1l61-6 27-3 20-2 39-3z" fill="#FDFDFD"/>
<path transform="translate(377,370)" d="m0 0 16 2v2h7l7 2v-2l12 3v2l7 1 7 4 10 4 2 4-1 2-27 6-12 6-10 8v2l7 1v2h2v3h2l-1 5-4 4v7l5 11-1 3-9-14-11-9-16-8-17-5v-9l3-7 6-3 1-2h2l1-5 5-4h3l3-2-2-5h-5l1-3 6-4z" fill="#926A80"/>
<path transform="translate(1064,1172)" d="m0 0h40l17 1 6 3 2 3v332l-7 8-6 1v-8l4-6 1-13-3-25v-21l2-16 1-14 1-5v-19l1-19v-12l-2-34 1-22 1-17 1-4 1-22-1-6-1-23-2-12-2-5-2-8-2-5-2-15-3-6-17-6-13-3-16-1z" fill="#0b323c"/>
<path transform="translate(227,617)" d="m0 0h2v3l6-1 7 2 3 10 3 17 5 27 2 28-3 4-6 2 1 3-2 8 2 16 3 12 4 15 1 5 5 3v2h10v1l-7 2-3 6-7-1-7-2-5-12-5-5-3-26-3-48z" fill="#91687F"/>
<path transform="translate(281,231)" d="m0 0h16l5 3 7 14 1 20 1 2v12l-2 5-2 4h-2v2l-10 3h-11l-7-1-2-4-3-1v-2h-2l-8-13-2-2h-1l-1-9v-12l1-9 13-9z" fill="#DF929C"/>
<path transform="translate(1182,932)" d="m0 0 115 1 53 2 2 1 1 8 1 40-1 48h-1l-1-80-1-9-4-1-23 4-25 2h-27l-14-1-9 1-40-1-7-1h-17l-9-1-7-1-2-6 6-5z" fill="#0b323c"/>
<path transform="translate(356,355)" d="m0 0 11 2 13 4 20 3 15 5 11 4 3 1 1 2 21 6 2 2 6 2 1 3-12 4-4-1-1-3-10-4-10-5-4-1v-2l-10-2-2-1v2l-14-2v-2h-12-2l-4 2-5 3-1 2h5v2l2 1v3l-6 3h-2l-3 4-1 3h-2l-1 3-3 2h-3l-2 7-1 9 7 1v1l-17-1-5-1v-1l8-1-1-12 1-10-6-10-2-6-1-1v-5l3-5 2-3 7-3 4-3z" fill="#9E828F"/>
<path transform="translate(309,702)" d="m0 0 5 1 1 20 1 7 2 26 1 12h-4v2l-5 1h-10l-3-3-1-3-3-42-1-5h-1v-9l-4 1v7l-4 20-3 9-3 2h-3l-2-6v-19l2-13 1-3h-5l1-2 20-1z" fill="#0b323c"/>
<path transform="translate(551,263)" d="m0 0 9 3 14 7 1 2-2 6-9 8-6 10-4 16-3 10-1 10 2 29-1 8-2 17-1 5-5-1-12-6v-7l4-28 2-9 2-11 1-11 3-9 1-2 4-32 2-13z" fill="#14151F"/>
<path transform="translate(407,209)" d="m0 0h16l8 4 1 8-3 1 4 2 4-1 3-1 1-3h2l1-2v6h14v-3l3 1h-2l3 6v5h-2l2 5v8l-2 3h-5l-3-2-3-1-1-5h3l-1-3 3-6-12 1h-5l-7 6-1 2-5 1-3-4v-2l-2 1 2 3v5h-2l-2 4-3 1-6-4v-5l1-5 2-5-16 4-10 5 2-6-5-3-6-1v-4h2v-2l12-8 13-5z" fill="#F0A1AE"/>
<path transform="translate(221,775)" d="m0 0 5 1 3 6 4 3 11 6 15 9v2l5 2 11 10 1 5-6-1-4-4-2-1h-7l-1 2 1 18h2l6 14 1 6h-3l-3-3v-2l-4-1v-3l-3-1-4-6v-2l-4-2-3-5-8-7v-2l-3-1-3-7-3-6-5-4-4-5-3-5-1-8 4-5z" fill="#F0A1AE"/>
<path transform="translate(508,194)" d="m0 0 11 2 7 2 12 2 12 3 11 2 17 8 11 8 5 5 3 1 4 8 1 7v10l-6-1-5-2-3-4v-2l-4-2-13-10-19-10-6-3v-2l-18-2-4-4v-4h-10v2l-3 1-4-2-1-2v-7l-2-1z" fill="#FDACBC"/>
<path transform="translate(235,1408)" d="m0 0 21 3 27 4 16 1 6 1 1-2 3 8 1 2-26 2-6 3-2 3-1 10-4 1-24-6-15-2h-6l1-3 3-2 1-17z" fill="#C5CCD8"/>
<path transform="translate(214,777)" d="m0 0 4 1-5 5 1 8 8 11 4 3 3 6 3 7 5 5 8 7 2 4 5 5 2 4 2 1v3l4 1v2l3 1v2l2-1 1-4 3 5 5 4 8 5 1 5-2 2-1-4-3 1v-2l-3 1-7-4-8-5v-2h-3l-3-3-4-3-2-3v-2l-4-2-4-3v-2h-2l-3-5-6-4v-2l-4-2-5-5-5-3-4-4-11-1-3-1-6 2-1 3h-1l-6-27 13-4z" fill="#DF939D"/>
<path transform="translate(541,1296)" d="m0 0h43l25 1 6 2 4 6-24 1-1 2-3 1-2 6v8l-1 1h-43l-1 1h-6l3-4-1-17 3-7z" fill="#C2C5D1"/>
<path transform="translate(395,416)" d="m0 0h11l10 3 5 4 12-1-1 2-4 2 3 2v6l-5 7 2 5 6 8 8 9 8 15 4 15 1 6v34l-4 24-6 26-4 13 22-2h10v1l-19 2h-24l-2-2v-3h-2l-1-6 2-2h5l2 2h4l7-28 2-10 4-19v-28l-4-11-3-14-3-6-3-4-3-5-7-8-6-8-10-2-5-2v-2h-2l2 9v4h2l5 9v2l-4-2-5-9-1-5-4-9v-7l5-5 1-4h-2v-3h-2v-2l-5 1z" fill="#0b323c"/>
<path transform="translate(403,131)" d="m0 0 2 1-3 1-2 4-15 10-11 3-7 2-8-1-14 1-5 2-16 2-11 3-4 2h-3l-1 2-8 2-5 3-5 2-2 3h-7l6-8 13-13 11-6 11-4 15-3 20-2h35z" fill="#2C3E69"/>
<path transform="translate(234,619)" d="m0 0 7 1 3 8 5 25 4 22 2 28-3 4-5 1h-8l-3-2v-5l2-3 1-14-1-8-4-9-2-9-2-3-1-35z" fill="#9E828F"/>
<path transform="translate(239,617)" d="m0 0 15 2v3l4 2 5 16 5 21 4 12 3 6 2 12v10l-3 3h17v1l-20 1-3 10-2-1v-8h-5l-2-6-2-14-2-18-7-35-3-14h-16l1-2z" fill="#BEC4D4"/>
<path transform="translate(281,231)" d="m0 0h16l3 1 1 5-6-2-5 3-5 1-9 2-1 4-1 5 2 4h2l1 5 2 4v7l3 1 3 10 11 2 6 3v3l-7 2-9 1-8-2-3-2h-3v-2l-4-2-3-4v-3h-2l-1-5-2-1v-2h-2l-1 4-1-9v-12l1-9 13-9z" fill="#EDA0AD"/>
<path transform="translate(714,1408)" d="m0 0 47 1 8 3 5 5 2 6v83l-2 7-4 5h-2l-1-8 1-5-1-6 4 1-2-12v-16l1-6-8-27-2-6-1-6 2-12-4-2-40-1-5-2z" fill="#0b323c"/>
<path transform="translate(535,1408)" d="m0 0 10 3 10 5-4 4-7 2-29 2-17-2-19-1h-12l-8-1 1-4 5-5 6-2z" fill="#0b323c"/>
<path transform="translate(440,305)" d="m0 0 12 1h24l5-1 3 9v13l-3 6-12 6h-9l-13-4-8-4-4-4-7-6v-2h38l12-3-1-5-5-1-10 2h-20l-12-2v-3z" fill="#CE8893"/>
<path transform="translate(261,281)" d="m0 0 4 5 8 9 10 5 9 3-1 25-4 18-6-1-6-8-6-14-6-23-2-10z" fill="#2E2D3D"/>
<path transform="translate(222,758)" d="m0 0h8l5 4-1 5-5 5-14 4-27 8-4 2-5-1-3-8-1-8-2-2 12-2 6-2z" fill="#0b323c"/>
<path transform="translate(314,416)" d="m0 0h28l19 2 10 3 17 9 10 9 7 11-1 2-8-11-5-4v-2l-9-2-3 1-5-2v-5l-5 1v-2l-3-1-2-2h-6l-1 3-10 3-1 2h-23l-10 1-12 5-2-1 4-8z" fill="#0b323c"/>
<path transform="translate(492,196)" d="m0 0h6l8 2 1 9 7 1v-2l8-1 2 1 2 5 2 2 13 1 5 2v2l6 2 19 10 13 10 5 5 2 4 5 1 6 2-1-15 2 3v13l-3 2-10 1-2-7-9-7-5-4-5-3v-2l-5-2-2-1-9-1-4-5-9-6-8-1-3 1-6-5-6-3-9 1-3-2v-5l-7 1v7l-1 2h2l2 3 6 3v2l-18-6-7-2-3-4 1-7 5-4z" fill="#C5848F"/>
<path transform="translate(492,398)" d="m0 0 2 1-4 5-5 1-1 2-2-1 1 3-9 4-5 3-9 5-10 6-2 5h3v2l3 1 1 6-7 3-4-1-2 1-13-1-2-2v-3l3-4v-6l-3-3 8-4 20-6 24-10z" fill="#2F406B"/>
<path transform="translate(597,227)" d="m0 0 8 3 4 6 1 8 1 6-5 18-4 6-8 1-16-9-8-6-2-5 1-1 23 1 10-2v-13l-5-10z" fill="#0b323c"/>
<path transform="translate(448,262)" d="m0 0h6l2 1v4l10 4v2l8 1 1 2 4 1v5l-4 4-3 1-6 6-12-1-2-1v-2l-4-2v-2l-3-1-3-13-1-2 2-4z" fill="#F1A2AF"/>
<path transform="translate(643,1338)" d="m0 0 4 2 18-1h18l8 4 10 12 2 4-3 1v-2l-5-1v1l-2 2 2 2-2 1 2 5 3 4 6 2 1 3-4-1-6-2-9-2 2-2h5l-2-1-10-3-2-4h2v-2h-2l-1-4h2l-1-4-6-3h-3l-3-7h-10l-19 1-8-1-1-2 12-1 2 1z" fill="#2D3E68"/>
<path transform="translate(364,856)" d="m0 0h10l-2 2-24 3-16 6-12 1-10 1-5 5-6 8-5 2-4-10-7-2 1-9 48-4z" fill="#151621"/>
<path transform="translate(426,445)" d="m0 0 4 4 7 8 6 8 8 16 4 18v34l-4 24-6 26-4 13 22-2h10v1l-19 2h-24l-2-2v-3h-2l-1-6 2-2h5l2 2h4l7-28 2-10 1-3h2l1-11 2-9v-17l-2-17-4-14-7-12-7-9-6-7z" fill="#0b323c"/>
<path transform="translate(380,197)" d="m0 0h18l56 1 2 2-1 4-9 1h-59v-2l-13 2-10 2h-6l3-3 12-6z" fill="#E0939D"/>
<path transform="translate(235,619)" d="m0 0h8l3 3 4 14 3 16 5 32 1 11 2 11 5 1 1 8 2-3-1 13-2 8h-2l-7-18-1-6-4-2 2-5-2-29-4-20-3-14-2-11-2-7-6-1z" fill="#0b323c"/>
<path transform="translate(373,476)" d="m0 0 2 2 5 19 5 24 9 27 3 10 9 21 5 10 5 4 1 5-8 1-1-4-6-9-9-19-7-24-5-23-3-15-5-22z" fill="#14151F"/>
<path transform="translate(407,209)" d="m0 0h16l5 3 3 5-1 3-2 1-21 1-12 2-17 2 1-4 10-7 13-5z" fill="#292A39"/>
<path transform="translate(223,776)" d="m0 0h3l3 6 4 3 11 6 15 9v2l5 2 11 10 1 5-6-1-5-6-3-2v-2l-6-1-3-3-6-1h-4v2l-4 1-4-3v-2l-3-1-4-8-5-9-2-5h2z" fill="#FCABBB"/>
<path transform="translate(452,203)" d="m0 0 5 1 1 4-10 3-2 4-1 6h13v2h-14l-1-4-7 6-9-2 2-2h3l-1-8-4-1-4-2h-21l2-4 4-2h43z" fill="#DC95A3"/>
<path transform="translate(323,430)" d="m0 0h18v1l-14 2-14 3-6 2-7 5-9 5-5 2v2l-9 5-6 5-9 5-8 5-3 3-5 3-11 11-9 11-4 3 2-4 13-15 21-21 16-12 13-8 16-8 10-4z" fill="#384773"/>
<path transform="translate(426,443)" d="m0 0 3 1 3 3v2l4 1 8 11 4 6 6 14 4 18v36l-5 27-7 25-1 8-4 1 2-10 6-24 4-22 1-7v-34l-4-18-8-16-6-8-8-9z" fill="#2B3D68"/>
<path transform="translate(316,714)" d="m0 0h1l1 11 3 6 8 7v2l5 1 7 5v4l-4-1h-3l-9-2h-6l1 12 4 6 6 2 12 1-5 4-1 1h-8l-6-2h-6l-1-3h4l-2-12-2-26-1-7v-8z" fill="#B8C5D9"/>
<path transform="translate(492,196)" d="m0 0h6l8 2 1 8h-2v-2l-7 1v7l-1 2h2l2 3 6 3v2l-18-6-7-2-3-4 1-7 5-4z" fill="#CF8995"/>
<path transform="translate(416,711)" d="m0 0 5 1 3 6 1 6v10l-3 8-5 1-5-5-2-7v-15z" fill="#C6CDD9"/>
<path transform="translate(428,319)" d="m0 0h9l3 1 15 2 3 5 5 3 5 2 1 5-5 1-20-4-5-3-4-4-7-6z" fill="#92687F"/>
<path transform="translate(517,204)" d="m0 0h8l1 5 21 3 10 6 12 6v2l4 1 6 4 4 2 2 2h2l4 6 6 7 4 1v-7h1v10l-6-1-5-2-3-4v-2l-4-2-13-10-19-10-6-3v-2l-18-2-4-4v-4l-7-1z" fill="#F0A1AE"/>
<path transform="translate(223,762)" d="m0 0h7l1 7-10 4-23 6-8 3h-6l3-6h3v-2l10-4z" fill="#0b323c"/>
<path transform="translate(235,1408)" d="m0 0 21 3 27 4 16 1 6 1 1-2-1 5-15 1-23-2-25-4-7-3z" fill="#926980"/>
<path transform="translate(550,249)" d="m0 0 22 4-3 2 2 5 9 6 14 8h8l-2 2h-9l-13-4-15-8-11-6-2-2z" fill="#2B3D68"/>
<path transform="translate(427,311)" d="m0 0h8l14 2h9l11-2h7l1 5-6 3-5 1h-24l-14-2-2-5z" fill="#FEFEFE"/>
<path transform="translate(452,275)" d="m0 0h6l5 2 9 1 1 3 3 1-2 4-8 7-9-1-8-7v-7z" fill="#E0939D"/>
<path transform="translate(238,708)" d="m0 0 8 1 1 3-2 8 2 16 3 12 3 11-1 4-6-14-9-23-3-9v-7z" fill="#2A3C67"/>
<path transform="translate(597,227)" d="m0 0 8 3 4 6 1 8 1 6-5 18-5 1-1-7h-2l-3-5-3-2 10-2v-13l-5-10z" fill="#0b323c"/>
<path transform="translate(613,1299)" d="m0 0h2l4 6-24 1-1 2-5 1v2l-7 1h-6l-4-3-1-4 7-3 13-1 4-1z" fill="#F6F6F8"/>
<path transform="translate(541,1296)" d="m0 0h43l25 1 5 1-1 2-18 1h-52v-4z" fill="#946E83"/>
<path transform="translate(226,760)" d="m0 0h7l2 2-1 5-5 5-14 4-27 8-4 2-5-1-3-8v-4h9l10-4 15-4h3v-2zm-3 2-29 10-4 2v2l-4 1-2 5 9-1 12-4 19-5 7-3-1-7z" fill="#0b323c"/>
<path transform="translate(314,416)" d="m0 0h9v3l13 4 2 4v2l-30 1-5 2-2 1 2-5z" fill="#0b323c"/>
<path transform="translate(360,706)" d="m0 0 2 3 3 26v8l-1 7h-1l-1-12-5-8-12-7-7-3 1-3 12 1 5 2 2-12z" fill="#C8CED8"/>
<path transform="translate(470,729)" d="m0 0 5 5 7 13 4 4 2 1 9 1v1l-7 1-3 3-6 1-9-2-2-3z" fill="#BFC5D4"/>
<path transform="translate(403,232)" d="m0 0h6v7l-1 1v5l2 1v4h-5l-2-1-7-1-3-3-6-2 1-5 9-4z" fill="#FDFDFE"/>
<path transform="translate(458,207)" d="m0 0 7 4 2 7-2 6-2 1-2-5-3 1h-13v-6l3-5z" fill="#2E2D3C"/>
<path transform="translate(380,197)" d="m0 0h18l56 1 2 2-1 4-1-2-6-1h-18l-21 1-7-1h-28l-9 2 5-4z" fill="#926980"/>
<path transform="translate(354,137)" d="m0 0h36v2l-7 3-11 1v-2h-23l-17 1-15 4h-7l2-2 16-4 13-2z" fill="#0b323c"/>
<path transform="translate(442,711)" d="m0 0 2 3v5h2v23l-6 10-7 6-7 3-12-1v-1l12-2 8-5 6-12 1-4z" fill="#0b323c"/>
<path transform="translate(710,1408)" d="m0 0 4 1 3 2 40 1 1 2-27 2h-10l-18-2-4-1-13-2v-1z" fill="#0b323c"/>
<path transform="translate(414,205)" d="m0 0 14 1 7 1v2l7 2 2 2-1 6-7 6-9-2 2-2h3l-1-8-4-1-4-2v-2l-11-1z" fill="#FAAABA"/>
<path transform="translate(440,305)" d="m0 0 12 1h24l5-1-1 3-3 3-5-1-10 2h-20l-12-2v-3z" fill="#DC909A"/>
<path transform="translate(481,686)" d="m0 0h4l1 8v18l-4-4-9-16-1-3-9-1v-1h15z" fill="#BDC4D5"/>
<path transform="translate(371,421)" d="m0 0 16 2 5-2 3 6 5 4 1 7 5 11-1 3-9-14-11-9-14-7z" fill="#C88792"/>
<path transform="translate(208,779)" d="m0 0 3 1-6 3h-2v3l-9 6-1 7-3 7-3-3v-5l-1-2 1-3-2-1-3-5 13-4z" fill="#C98590"/>
<path transform="translate(464,715)" d="m0 0 3 3 2 5 2 13v18l-1 1h-14l-3-4v-8l2 4 2 6h9l-1-24z" fill="#0b323c"/>
<path transform="translate(412,230)" d="m0 0 8 1 2 2v3h-4l2 3v5h-2l-2 4-3 1-6-4v-5l1-5 2-4z" fill="#C38693"/>
<path transform="translate(313,723)" d="m0 0h2l1 7 2 26 1 12h-4v2l-5 1h-10l-1-6 1 2h13z" fill="#0b323c"/>
<path transform="translate(317,735)" d="m0 0 2 2 1 8-1 3 1 11 4 6 6 2 12 1-5 4-1 1h-8l-6-2h-6l-1-3h4l-2-12-1-9v-10z" fill="#BDC4D3"/>
<path transform="translate(444,562)" d="m0 0h1v10l-2 5-4 20h-9l-2-2v-3h-2l-1-6 2-2h5l2 2h4z" fill="#0b323c"/>
<path transform="translate(216,861)" d="m0 0 5 2 8 8 9 12-1 3-7 1-2-5-6-8-6-10z" fill="#926980"/>
<path transform="translate(381,714)" d="m0 0h2l2 10 2 17 1 19-4 3-3-1v-2h2l-1-11-1-23z" fill="#0b323c"/>
<path transform="translate(391,602)" d="m0 0h7l-4 2-11 2-1 1h-16v1l-18 2h-30v-1l61-6z" fill="#FEFEFE"/>
<path transform="translate(261,823)" d="m0 0 4 1 1 6h2v14l3 9 1 2-4-2-5-8-5-12v-9z" fill="#926980"/>
<path transform="translate(374,200)" d="m0 0h28l7 1 21-1h18l6 1v1l-10 1-44 1-6-2h-12l-13 2-7 3-4-1 5-3z" fill="#CB8590"/>
<path transform="translate(426,445)" d="m0 0 4 4 7 8 6 8 8 16 4 18v34l-1 7-2 1v-10l1-6v-17l-2-17-4-14-7-12-7-9-6-7z" fill="#0b323c"/>
<path transform="translate(242,853)" d="m0 0 5 2 8 9 3 2v2l4 2 5 3 5-1 8-1 2-1-1 3-5 2h-3l2 6-2 3v-5l-6-1-3-2v-2l-5-1-5-5-8-7-4-6z" fill="#73566B"/>
<path transform="translate(228,857)" d="m0 0 4 2 8 9 5 6 5 5 1 3 2 1 4 5-4 2-6-5-13-18-6-9z" fill="#926980"/>
<path transform="translate(438,464)" d="m0 0 4 2 6 11 4 14 2 20v14l-4 20-2-2 3-14v-28l-4-11-3-14-3-6-3-4z" fill="#0b323c"/>
<path transform="translate(1050,1169)" d="m0 0h64l9 3 2 3-4-1-17-1-5-1-49-2z" fill="#0b323c"/>
<path transform="translate(267,1421)" d="m0 0 26 1-1 2h-8v2h-6l-3 6-5-1-4-3-1-6z" fill="#FAFBFC"/>
<path transform="translate(525,210)" d="m0 0 7 2h7l8 3 19 10 12 8 14 12 2 4h-3l-3-4v-2l-4-2-13-10-19-10-6-3v-2l-18-2z" fill="#E0939D"/>
<path transform="translate(292,717)" d="m0 0h1l1 6v17l-3 6h-2v2l-3-1 1-10 4-19z" fill="#C9CED8"/>
<path transform="translate(218,868)" d="m0 0 4 4 6 9 2 2 1 5-8-1-7-6-1-4 3-1z" fill="#A28491"/>
<path transform="translate(355,730)" d="m0 0 6 4 2 4v14l-4 8-7 6h-2l2-6 2-3h2l1-4 2-4v-8l-3-8z" fill="#0b323c"/>
<path transform="translate(587,256)" d="m0 0h8l3 4v2h2l2 6h3l-1 4-7-1-1-3h-3l-1-5h-3l-3-6z" fill="#0b323c"/>
<path transform="translate(483,202)" d="m0 0 7 1 2 2v8l-2 2h-6l-5-5 1-5z" fill="#966B81"/>
<path transform="translate(395,417)" d="m0 0h7v2h2v3h2l-1 5-4 4-4-2-4-4 1-7z" fill="#2B3D68"/>
<path transform="translate(235,1410)" d="m0 0 25 5 8 2 10 1h27l1-3-1 5-15 1-23-2-25-4-7-3z" fill="#9E818E"/>
<path transform="translate(274,179)" d="m0 0h5l3 4-8 9-3 6-3 5-3 9-1-4 7-21z" fill="#916E86"/>
<path transform="translate(257,812)" d="m0 0h7l6 4v2l6 1 1-3 1 4-5 1-16-3 1 15-2-4-1-14z" fill="#CE8792"/>
<path transform="translate(428,431)" d="m0 0h2v5l-4 5h-9l-6-4v-2l3-2h13z" fill="#0b323c"/>
<path transform="translate(446,302)" d="m0 0 1 2 3-1 9 1h22l-2 2-3 1h-30l-6-1-10 1 1-2 5-2z" fill="#F1A2AF"/>
<path transform="translate(260,272)" d="m0 0 3 3 6 10 1 3h2l7 9 4 3-5-1-8-6-9-11h-1z" fill="#BE808D"/>
<path transform="translate(303,272)" d="m0 0 3 1 1 7-1 1h-12l-5-4v-2l7-1h7z" fill="#CB8590"/>
<path transform="translate(212,758)" d="m0 0h10v1l-31 5-9 2-8 1 3-4 16-3z" fill="#2B3D68"/>
<path transform="translate(429,213)" d="m0 0h2l1 8-7 2-23 1-3 1h-9v2h-14l2-4v3l20-4 9-1 23-1z" fill="#AF788A"/>
<path transform="translate(455,281)" d="m0 0 9 2v2l3-1 2 1-1 5-2 1h-9l-3-4v-5z" fill="#CB8590"/>
<path transform="translate(356,702)" d="m0 0 3 1-2 14-1 3-11-2h-7-3l1-4 13 1 4 1z" fill="#0b323c"/>
<path transform="translate(479,305)" d="m0 0h2l-1 3-3 3-5-1-13 2v-2l-12-1 1-3h28z" fill="#E0939D"/>
<path transform="translate(1346,1399)" d="m0 0h2l1 10v10h-2l1 17-2 1v-5h-2v-5h2l-2-7v-10l2-2z" fill="#0b323c"/>
<path transform="translate(451,745)" d="m0 0h1l2 9 1 1 13 1-1 2-11 2h-8l-1-1v-6h2l1-4z" fill="#BFC5D4"/>
<path transform="translate(1165,1494)" d="m0 0 4 2 1 12 4 7-1 4-7-7-1-3z" fill="#0b323c"/>
<path transform="translate(227,1433)" d="m0 0 12 1 23 5 12 3v-9h1v10l-4 1-24-6-15-2h-6z" fill="#967185"/>
<path transform="translate(393,425)" d="m0 0 7 6 1 7 5 11-1 3-9-14-3-2-1-4z" fill="#765D79"/>
<path transform="translate(411,232)" d="m0 0 4 1 4 7-1 6-5 3-4-3v-4l5-1-3-6z" fill="#25293C"/>
<path transform="translate(454,234)" d="m0 0h5l3 5v6l-2 3h-5l-3-3 1-4 3-2z" fill="#272A3C"/>
<path transform="translate(305,1419)" d="m0 0h2l3 6-26 1v-2l8-1 1-2z" fill="#B7BACB"/>
<path transform="translate(643,1338)" d="m0 0 4 2 18-1h18v1l-38 3-15-1-1-2 12-1 2 1z" fill="#0b323c"/>
<path transform="translate(474,699)" d="m0 0 5 2 8 16 2 5v3h-3l-5-12-5-7z" fill="#0b323c"/>
<path transform="translate(208,764)" d="m0 0h5l-3 2-21 6-4 2h-7l-2-1v-3l13-2z" fill="#0b323c"/>
<path transform="translate(313,282)" d="m0 0h1v15l-4 5-4 2-10-1 1-2 10-4 5-5z" fill="#926980"/>
<path transform="translate(329,428)" d="m0 0 7 1v1l-23 2-12 5-2-1 1-3 4-3 4-1z" fill="#0b323c"/>
<path transform="translate(412,709)" d="m0 0h5l-6 7-1 1-1 17-2-2-1-3v-15l4-4z" fill="#0b323c"/>
<path transform="translate(597,227)" d="m0 0 5 2v3l3 1 2 5-1 9-2 5h-1l-1-12-5-10z" fill="#0b323c"/>
<path transform="translate(506,738)" d="m0 0 2 4v7l-3 2h-17l-3-1 1-3 4 1h7l7-2 1-7z" fill="#0b323c"/>
<path transform="translate(283,611)" d="m0 0 14 1v1l-13 2-2 1h-26l3-2 22-2z" fill="#FDFDFD"/>
<path transform="translate(484,694)" d="m0 0h2v18l-4-4-4-7v-3l5-2z" fill="#CACFD8"/>
<path transform="translate(327,1452)" d="m0 0 1 4 21-2h21v1l-32 2-7 1h-12l-1-3h9z" fill="#959DC0"/>
<path transform="translate(1370,947)" d="m0 0h13l9 1-3 2-9 3h-7v2h-2v-5z" fill="#0b323c"/>
<path transform="translate(394,755)" d="m0 0h2l3 5 6 2-2 4-5 1-5-2-1-4z" fill="#BFC5D4"/>
<path transform="translate(464,715)" d="m0 0 3 3 1 17 1 1v17h-2l-1-5z" fill="#0b323c"/>
<path transform="translate(458,230)" d="m0 0h2l2 9-3-3v-2l-4 1 1 3 2 2-5 2-1 4-3-1-1-5h3l-1-3 4-6z" fill="#AEB7CF"/>
<path transform="translate(442,711)" d="m0 0 2 3 1 8v15l-3 5h-1z" fill="#0b323c"/>
<path transform="translate(305,147)" d="m0 0 2 1-12 9-10 10 2 3-2 3h-7l6-8 13-13z" fill="#0b323c"/>
<path transform="translate(352,760)" d="m0 0v3l-3 4-3 1h-16l-1-3 14-1 7-2z" fill="#0b323c"/>
<path transform="translate(423,589)" d="m0 0 5 3 2 4 13 1v1l-17 1-6 1h-9v-1l13-2z" fill="#0b323c"/>
<path transform="translate(338,228)" d="m0 0 1 4-2 5-4 24-1 9-2 1 1-15 3-17z" fill="#B67C8C"/>
<path transform="translate(401,430)" d="m0 0 2 1v7l4 10v4h2l5 9v2l-4-2-5-9-1-5-4-9v-7z" fill="#0b323c"/>
<path transform="translate(215,775)" d="m0 0 2 1-9 4-21 6-5 1 4-3 18-6z" fill="#775D78"/>
<path transform="translate(384,724)" d="m0 0h1l2 17 1 19-2 1-1-2-1-16z" fill="#0b323c"/>
<path transform="translate(408,204)" d="m0 0h10l-2 2 7 2v1l-21 1 2-4z" fill="#D390A0"/>
<path transform="translate(492,196)" d="m0 0h6l3 3-3 4-3 7-2-1z" fill="#FAA9B8"/>
<path transform="translate(284,819)" d="m0 0 2 2v23l-1 10-2-3v-12z" fill="#0b323c"/>
<path transform="translate(226,760)" d="m0 0h7l2 2-1 5-3 4-4-1 3-1v-7l-10 2-6 1-1-2z" fill="#0b323c"/>
<path transform="translate(451,233)" d="m0 0 1 2-1 5-2 1v2h-2l-1 2-3-3v-6z" fill="#FEFEFE"/>
<path transform="translate(242,880)" d="m0 0 4 2 5 6 2 2-7-1-5-3-4-2 1-3h3z" fill="#A48390"/>
<path transform="translate(501,198)" d="m0 0h5l1 8h-2v-2l-7 1-2 6h-3l1-2 2-3 3-6z" fill="#D18994"/>
<path transform="translate(324,401)" d="m0 0 2 1 5 10-1 4h-7l1-3z" fill="#DF99A3"/>
<path transform="translate(626,1334)" d="m0 0 7 1 4 2 3 2-10 2-2 1-3-2-1-2h2z" fill="#2B3D6A"/>
<path transform="translate(402,377)" d="m0 0 5 1 1 4-7 1-3-1h-6l-2-1v-2h9z" fill="#9D818E"/>
<path transform="translate(374,200)" d="m0 0h20v1l-21 2-10 3-5 1 3-3z" fill="#C4818E"/>
<path transform="translate(281,870)" d="m0 0v3l-5 2h-3l2 6-2 3v-5l-6-1-3-3h3l4-2 1-1 8-1z" fill="#926980"/>
<path transform="translate(323,701)" d="m0 0 2 1-10 15-1-2v-6l3-4h2v-2h4z" fill="#F1F3F6"/>
<path transform="translate(395,416)" d="m0 0h11l3 1v8l-5 4 2-7h-2v-3h-2v-2l-5 1z" fill="#0b323c"/>
<path transform="translate(272,779)" d="m0 0 2 1-1 8-1 4 1 1v7l-3-3-1-5v-8z" fill="#0b323c"/>
<path transform="translate(596,1323)" d="m0 0 4 2 1 5-3 1-1 2-4-1 1-7z" fill="#2B3D68"/>
<path transform="translate(249,877)" d="m0 0 9 3 1 3h2v2h-2l-1 3-6-4-1-4-2-1z" fill="#A0828F"/>
<path transform="translate(317,735)" d="m0 0 2 2 1 8-1 3v11l-2-3-1-9v-10z" fill="#C3C9D5"/>
<path transform="translate(602,229)" d="m0 0 5 3 3 7v10l-2 2-1-2-1-11-2-5-2-1z" fill="#0b323c"/>
<path transform="translate(410,760)" d="m0 0h13l1 2-7 2-5 3-4-1z" fill="#BBBECD"/>
<path transform="translate(443,308)" d="m0 0 16 1v3h-13l-4-2z" fill="#CB8590"/>
<path transform="translate(354,1487)" d="m0 0h3l3 5v4h-5l-2-2z" fill="#926980"/>
<path transform="translate(415,419)" d="m0 0 5 3 4 3v3l-8-1-1-2-4-2 3-1z" fill="#0b323c"/>
<path transform="translate(508,743)" d="m0 0h1v8l-6 2h-15v-2l17-1 2-1z" fill="#0b323c"/>
<path transform="translate(316,714)" d="m0 0h1l1 11 1 6-4-1-1-7v-8z" fill="#C6CBD7"/>
<path transform="translate(393,421)" d="m0 0 5 2 1 4h4v3l-4 1-5-4z" fill="#292A3B"/>
<path transform="translate(434,202)" d="m0 0h21l-4 3h-15l-3-2z" fill="#DF929C"/>
<path transform="translate(354,1455)" d="m0 0h19l6 4 2 3-4-2-6-2-17-2z" fill="#384772"/>
<path transform="translate(355,730)" d="m0 0 6 4 1 4-1 13-2 4-1-3 1-3v-8l-3-8z" fill="#0b323c"/>
<path transform="translate(293,242)" d="m0 0h2v6h-11l-1-3 4-2z" fill="#CB8590"/>
<path transform="translate(517,204)" d="m0 0h8l1 5 14 2 3 2h-13l-6-3v-4l-7-1z" fill="#EB9CA8"/>
<path transform="translate(328,140)" d="m0 0 3 1-5 3-9 2h-7l2-2z" fill="#0b323c"/>
<path transform="translate(409,234)" d="m0 0 3 1 2 6-5 1-1 4-1-1v-5z" fill="#A9AAC7"/>
<path transform="translate(232,1413)" d="m0 0h1l1 13 1 5h-4v-17z" fill="#FEFEFE"/>
<path transform="translate(506,196)" d="m0 0h2l-1 8 10 1-3 1v2l-3 1-4-2-1-2v-7l-2-1z" fill="#EC9DA9"/>
<path transform="translate(235,785)" d="m0 0 7 2 12 8-3 1-14-8z" fill="#9E7285"/>
<path transform="translate(485,199)" d="m0 0h7v6l-9-2-3 2 2-4z" fill="#CB8692"/>
<path transform="translate(257,812)" d="m0 0h7l6 4v2l-4-2-8-1-2 7h-1v-7z" fill="#E0939D"/>
<path transform="translate(429,585)" d="m0 0 4 2-1 5-1 2h-3l-1-6z" fill="#293048"/>
<path transform="translate(427,124)" d="m0 0h16l10 1v1l-16 1-10-2z" fill="#706889"/>
<path transform="translate(327,701)" d="m0 0 4 1-6 5-1 3-4 2 2-7z" fill="#0b323c"/>
<path transform="translate(276,557)" d="m0 0 1 4-8 7h-2l2-5z" fill="#201E2A"/>
<path transform="translate(453,743)" d="m0 0 2 4 2 6h9v-5h1l1 6-1 1h-11l-3-4z" fill="#0b323c"/>
<path transform="translate(261,278)" d="m0 0 4 4 7 10 3 4-4-2-7-8-3-5z" fill="#926980"/>
<path transform="translate(411,232)" d="m0 0 4 1 2 5-2 6-2 1-1-4h2l-3-6z" fill="#2B3C66"/>
<path transform="translate(356,207)" d="m0 0 2 1-14 14-2-1 9-10z" fill="#C28494"/>
<path transform="translate(356,702)" d="m0 0 3 1-1 9h-2l-1 6-2-1z" fill="#0b323c"/>
<path transform="translate(309,252)" d="m0 0h1l2 12v8l-3-4z" fill="#AB7587"/>
<path transform="translate(542,834)" d="m0 0h2v3l-10 3h-8v-1l8-2 2-1h6z" fill="#0b323c"/>
<path transform="translate(485,694)" d="m0 0h1v18l-4-4-1-3 3-1z" fill="#B5C4DA"/>
<path transform="translate(371,421)" d="m0 0 15 2v2l-5 2-10-5z" fill="#9F828F"/>
<path transform="translate(492,398)" d="m0 0 2 1-4 5-5 1-1 2-3-3z" fill="#484D72"/>
<path transform="translate(458,230)" d="m0 0h2l2 9-3-3v-2l-4 1-1 3-1-1v-5z" fill="#A17487"/>
<path transform="translate(425,222)" d="m0 0 5 2-1 5h-2v-2l-4-1-1-3z" fill="#E0939D"/>
<path transform="translate(327,1452)" d="m0 0 1 4 3 2h-12l-1-3h9z" fill="#936B81"/>
<path transform="translate(364,856)" d="m0 0h10l-2 2-8 1-10-1v-1z" fill="#1F202C"/>
<path transform="translate(601,235)" d="m0 0 3 1 2 6-2 10h-1l-1-12z" fill="#2B3D68"/>
<path transform="translate(408,230)" d="m0 0h2v2l-11 2-10 3 2-3 5-2z" fill="#FCAEBD"/>
<path transform="translate(426,449)" d="m0 0 3 1 7 8 3 4-1 2-8-8z" fill="#0b323c"/>
<path transform="translate(315,293)" d="m0 0 1 2h7l-2 4-5 1z" fill="#161722"/>
<path transform="translate(445,742)" d="m0 0 2 2-4 8-5 4-2-1 6-7z" fill="#BFC5D4"/>
<path transform="translate(447,714)" d="m0 0 2 1v13l-2 1-1-14z" fill="#C7CCD7"/>
<path transform="translate(426,153)" d="m0 0h5l-2 5-5 1-1-4z" fill="#926980"/>
<path transform="translate(394,436)" d="m0 0 5 5 6 9-1 2-8-11-2-2z" fill="#0b323c"/>
<path transform="translate(1464,1516)" d="m0 0 6 1 1 3h-9z" fill="#0b323c"/>
<path transform="translate(409,693)" d="m0 0h11v1l-9 2h-8l2-2z" fill="#0b323c"/>
<path transform="translate(375,225)" d="m0 0 1 2h14v-2h3l-1 3-7 1-10-1z" fill="#DB909A"/>
<path transform="translate(282,168)" d="m0 0 5 1-2 4h-7z" fill="#936C82"/>
<path transform="translate(430,422)" d="m0 0 3 1-5 3 3 2v6l-2-4-4-4v-2z" fill="#0b323c"/>
<path transform="translate(417,126)" d="m0 0 5 1v1l-11 3-3-1 3-2z" fill="#375088"/>
<path transform="translate(431,546)" d="m0 0h4v6l-4 1z" fill="#212536"/>
<path transform="translate(448,478)" d="m0 0h2l3 10v3h-2l-3-10z" fill="#0b323c"/>
<path transform="translate(461,225)" d="m0 0h2l1 14h-2l-2-4v-3h2z" fill="#F9B2C1"/>
</svg>