<svg xmlns="http://www.w3.org/2000/svg" width="173.315" height="186.021" viewBox="0 0 173.315 186.021">
  <g id="Group_433" data-name="Group 433" transform="translate(-241.782 -141.553)">
    <g id="window" transform="translate(271.316 179.594)">
      <rect id="Rectangle_108" data-name="Rectangle 108" width="121.385" height="120.917" transform="translate(0 0)" fill="#d2deff"/>
    </g>
    <g id="shadow" transform="translate(252.32 260.352)">
      <path id="shadow-2" data-name="shadow" d="M362.908,2235.467H521.356a.875.875,0,0,0,.875-.875h0a.875.875,0,0,0-.875-.875H362.908a.875.875,0,0,0-.875.875h0A.875.875,0,0,0,362.908,2235.467Z" transform="translate(-362.033 -2168.244)" fill="#d5305c"/>
      <g id="plant" transform="translate(9.947 0)">
        <g id="Group_382" data-name="Group 382" transform="translate(13.308 31.122)">
          <g id="Group_381" data-name="Group 381">
            <path id="Rectangle_109" data-name="Rectangle 109" d="M0,0H21.711a0,0,0,0,1,0,0V14.8A10.855,10.855,0,0,1,10.855,25.654h0A10.855,10.855,0,0,1,0,14.8V0A0,0,0,0,1,0,0Z" transform="translate(1.203)" fill="#a06ff5"/>
            <rect id="Rectangle_110" data-name="Rectangle 110" width="1.203" height="22.97" transform="translate(0 11.184)" fill="#0e0e0e"/>
            <rect id="Rectangle_111" data-name="Rectangle 111" width="1.203" height="22.97" transform="translate(22.914 11.184)" fill="#0e0e0e"/>
            <rect id="Rectangle_112" data-name="Rectangle 112" width="1.203" height="22.97" transform="translate(13.707 11.184)" fill="#0e0e0e"/>
          </g>
          <rect id="Rectangle_113" data-name="Rectangle 113" width="22.97" height="1.203" transform="translate(0 25.654)" fill="#0e0e0e"/>
        </g>
        <g id="Group_383" data-name="Group 383" transform="translate(26.015 5.548)">
          <path id="Path_486" data-name="Path 486" d="M788.659,1551.01c1.31,1.887-1.327,3.513-1.738,6.129s2.586,4.087-.592,7.512c-1.957,2.109-3.609-.693-5.2,2.54s-.337,3.778-2.125,4.941c-3.117,2.028-7.886-2.454-6.282-5.683s4.848-2.94,3.347-5.6-2.059-3.8.529-5.167c3.2-1.69,6.027-.138,6.285-2.61S786.926,1548.514,788.659,1551.01Z" transform="translate(-772.401 -1549.885)" fill="#ffca59"/>
          <path id="Path_487" data-name="Path 487" d="M796.038,1611.993l-.539-.106a49,49,0,0,1,10.984-21.8l.4.379A48.42,48.42,0,0,0,796.038,1611.993Z" transform="translate(-793.475 -1586.568)" fill="#0e0e0e"/>
        </g>
        <g id="Group_384" data-name="Group 384">
          <path id="Path_488" data-name="Path 488" d="M475.826,1488.531c-1.354,2.761,2.463,4.382,3.532,7.761s-2.868,4.572,2.025,8.466c3.014,2.4,3.645.9,4.753,6.263.976,4.723,4.564.229,7.247,3,3.462,3.576,8.873-4.273,6.1-8.224s-6.006-2.929-4.554-6.747-.28-6.694-3.98-7.98c-4.579-1.592-6.226,2.251-7.065-.968S477.617,1484.879,475.826,1488.531Z" transform="translate(-475.538 -1486.574)" fill="#ed5a24"/>
          <path id="Path_489" data-name="Path 489" d="M546.924,1564.539c-5.839-16.189-18.55-26.2-18.678-26.3l.451-.581c.129.1,13.009,10.247,18.919,26.634Z" transform="translate(-523.627 -1533.179)" fill="#0e0e0e"/>
        </g>
      </g>
    </g>
    <g id="system" transform="translate(241.782 142.574)">
      <g id="Group_417" data-name="Group 417" transform="translate(0 0)">
        <g id="Group_413" data-name="Group 413" transform="translate(0.221)">
          <circle id="Ellipse_31" data-name="Ellipse 31" cx="46.428" cy="46.428" r="46.428" transform="translate(13.042 11.465)" fill="none" stroke="#b03bd9" stroke-width="8.731" stroke-dasharray="13.096 13.096"/>
          <path id="Path_490" data-name="Path 490" d="M726.6,671.743a8.179,8.179,0,0,0-15.639-4.288,5.711,5.711,0,0,0-9.515,4.267h-1.067a5.537,5.537,0,0,0-5.521,5.521h0a5.537,5.537,0,0,0,5.521,5.521h25.814a5.537,5.537,0,0,0,5.521-5.521h0A5.535,5.535,0,0,0,726.6,671.743Z" transform="translate(-655.373 -616.897)" fill="#fff"/>
          <g id="Group_390" data-name="Group 390" transform="translate(39.635 81.694)">
            <rect id="Rectangle_114" data-name="Rectangle 114" width="38.773" height="33.207" rx="16.604" fill="#23035b"/>
            <g id="Group_389" data-name="Group 389" transform="translate(6.361 2.631)">
              <g id="Group_388" data-name="Group 388">
                <path id="Path_491" data-name="Path 491" d="M793.94,1274.668H770.566a1.4,1.4,0,0,1-1.391-1.391h0a1.4,1.4,0,0,1,1.391-1.391H793.94a1.4,1.4,0,0,1,1.391,1.391h0A1.4,1.4,0,0,1,793.94,1274.668Z" transform="translate(-769.175 -1257.248)" fill="#fff"/>
                <path id="Path_492" data-name="Path 492" d="M793.94,1325.781H770.566a1.4,1.4,0,0,1-1.391-1.391h0a1.4,1.4,0,0,1,1.391-1.391H793.94a1.4,1.4,0,0,1,1.391,1.391h0A1.4,1.4,0,0,1,793.94,1325.781Z" transform="translate(-769.175 -1303.883)" fill="#fff"/>
                <g id="Group_387" data-name="Group 387" transform="translate(7.712)">
                  <circle id="Ellipse_32" data-name="Ellipse 32" cx="5.373" cy="5.373" r="5.373" fill="#fff"/>
                  <g id="Group_386" data-name="Group 386" transform="translate(2.386 1.767)">
                    <g id="Group_385" data-name="Group 385" transform="translate(1.3)">
                      <path id="Path_493" data-name="Path 493" d="M900.942,1128.4a1.7,1.7,0,0,0,1.318-.646,1.655,1.655,0,0,0,.363-1.049,1.688,1.688,0,1,0-3.376,0,1.652,1.652,0,0,0,.363,1.049A1.7,1.7,0,0,0,900.942,1128.4Z" transform="translate(-899.247 -1125.013)" fill="#23035b"/>
                    </g>
                    <path id="Path_494" data-name="Path 494" d="M890.387,1171.6c0,1.07-5.973,1.07-5.973,0l0-1.246c.236-1.7,5.486-1.776,5.972,0Z" transform="translate(-884.414 -1165.186)" fill="#23035b"/>
                  </g>
                </g>
              </g>
              <rect id="Rectangle_115" data-name="Rectangle 115" width="7.025" height="2.383" rx="1.191" transform="translate(8.958 23.855)" fill="#fff"/>
            </g>
          </g>
          <g id="Group_398" data-name="Group 398" transform="translate(0 55.881)">
            <g id="Group_396" data-name="Group 396" transform="translate(0 0)">
              <g id="Group_392" data-name="Group 392">
                <g id="Group_391" data-name="Group 391">
                  <path id="Path_495" data-name="Path 495" d="M244.649,850.086h0c0-.038,0-.055,0-.059S244.649,850.086,244.649,850.086Z" transform="translate(-244.619 -843.913)" fill="#d9ffff"/>
                  <path id="Path_496" data-name="Path 496" d="M244.649,850.086h0c0-.038,0-.055,0-.059S244.649,850.086,244.649,850.086Z" transform="translate(-244.619 -843.913)" fill="#d9ffff"/>
                  <path id="Path_497" data-name="Path 497" d="M505.384,851.252s0-.052,0-.059,0,.021,0,.059Z" transform="translate(-482.505 -844.977)" fill="#d9ffff"/>
                  <path id="Path_498" data-name="Path 498" d="M505.384,851.252s0-.052,0-.059,0,.021,0,.059Z" transform="translate(-482.505 -844.977)" fill="#d9ffff"/>
                  <path id="Path_499" data-name="Path 499" d="M255.806,780.259a22.783,22.783,0,0,1-11.458,6.185c0,.3-.009,1.986-.043,9.74-.046,10.344,9.8,15.4,11.326,16.174,1.481-.682,11.449-5.728,11.5-16.072.035-7.754.042-9.436.044-9.74A22.66,22.66,0,0,1,255.806,780.259Z" transform="translate(-244.304 -780.259)" fill="#fff"/>
                </g>
              </g>
              <g id="Group_395" data-name="Group 395" transform="translate(1.243 1.869)">
                <g id="Group_393" data-name="Group 393">
                  <path id="Path_500" data-name="Path 500" d="M268.719,801.592a24.179,24.179,0,0,1-10.192,5.3l-.039,8.764a14.79,14.79,0,0,0,4.735,10.783,22.65,22.65,0,0,0,5.367,3.924l.151-.078V801.612Z" transform="translate(-258.488 -801.592)" fill="#4903c2"/>
                </g>
                <g id="Group_394" data-name="Group 394" transform="translate(10.254 0.02)">
                  <path id="Path_501" data-name="Path 501" d="M375.5,801.825v28.669a22.657,22.657,0,0,0,5.251-3.8,14.79,14.79,0,0,0,4.831-10.74l.039-8.764A24.19,24.19,0,0,1,375.5,801.825Z" transform="translate(-375.499 -801.825)" fill="#23035b"/>
                </g>
              </g>
            </g>
            <g id="Group_397" data-name="Group 397" transform="translate(6.881 9.773)">
              <path id="Path_502" data-name="Path 502" d="M322.831,945.973v6.79c0,.756,9.231.756,9.231,0v-6.79Zm5.082,3.606V951.5a.467.467,0,1,1-.934,0v-1.929a1.135,1.135,0,1,1,.934,0Z" transform="translate(-322.831 -941.225)" fill="#fff"/>
              <path id="Path_503" data-name="Path 503" d="M339.672,896.053h-.934V895.6a2.873,2.873,0,1,0-5.745,0v.457h-.934V895.6a3.807,3.807,0,1,1,7.614,0Z" transform="translate(-331.249 -891.788)" fill="#fff"/>
            </g>
          </g>
          <g id="Group_403" data-name="Group 403" transform="translate(63.151)">
            <g id="Group_399" data-name="Group 399">
              <rect id="Rectangle_116" data-name="Rectangle 116" width="16.674" height="20.813" fill="#296acc"/>
            </g>
            <g id="Group_400" data-name="Group 400" transform="translate(2.162 2.149)">
              <rect id="Rectangle_117" data-name="Rectangle 117" width="16.674" height="20.813" fill="#fff" stroke="#23035b" stroke-width="6.341"/>
            </g>
            <g id="Group_401" data-name="Group 401" transform="translate(4.909 4.259)">
              <rect id="Rectangle_118" data-name="Rectangle 118" width="16.674" height="20.813" fill="#fff" stroke="#6816f6" stroke-width="6.341"/>
            </g>
            <g id="Group_402" data-name="Group 402" transform="translate(6.907 6.409)">
              <rect id="Rectangle_119" data-name="Rectangle 119" width="16.674" height="20.813" fill="#5896fa"/>
              <rect id="Rectangle_120" data-name="Rectangle 120" width="8.625" height="1.354" transform="translate(5.455 3.417)" fill="#23035b"/>
              <rect id="Rectangle_121" data-name="Rectangle 121" width="11.176" height="1.354" transform="translate(2.904 6.597)" fill="#23035b"/>
              <rect id="Rectangle_122" data-name="Rectangle 122" width="11.176" height="1.354" transform="translate(2.904 9.778)" fill="#23035b"/>
              <rect id="Rectangle_123" data-name="Rectangle 123" width="11.176" height="1.354" transform="translate(2.904 12.958)" fill="#23035b"/>
              <rect id="Rectangle_124" data-name="Rectangle 124" width="11.176" height="1.354" transform="translate(2.904 16.138)" fill="#23035b"/>
            </g>
          </g>
          <g id="Group_406" data-name="Group 406" transform="translate(2.769 10.475)">
            <circle id="Ellipse_33" data-name="Ellipse 33" cx="5.889" cy="5.889" r="5.889" transform="translate(16.746 16.605) rotate(-77.096)" fill="#fff"/>
            <g id="Group_404" data-name="Group 404" transform="translate(11.626)">
              <path id="Path_504" data-name="Path 504" d="M430.038,279.886a10.8,10.8,0,0,0,1.443-4.016l.439.064.866.127h.011a12.1,12.1,0,0,0-.228-4.705l-1.289.319a10.808,10.808,0,0,0-1.823-3.858l1.068-.794a12.045,12.045,0,0,0-3.487-3.17L426.35,265a10.785,10.785,0,0,0-4.016-1.443l.193-1.316a12.174,12.174,0,0,0-4.705.228l.319,1.289a10.811,10.811,0,0,0-3.858,1.823l-.794-1.068a12.048,12.048,0,0,0-3.17,3.488l1.141.688a10.787,10.787,0,0,0-1.443,4.016l-.931-.137-.381-.053,0,0a12.176,12.176,0,0,0,.227,4.705l1.289-.319a10.829,10.829,0,0,0,1.827,3.86l-1.068.794a12.021,12.021,0,0,0,3.483,3.167l.688-1.141a10.813,10.813,0,0,0,4.02,1.446l-.151,1.023-.041.293a12.151,12.151,0,0,0,4.7-.23l-.319-1.289a10.922,10.922,0,0,0,3.865-1.825l.794,1.068a12.113,12.113,0,0,0,3.163-3.486Zm-12.331-.557a5.888,5.888,0,1,1,8.082-2.005A5.887,5.887,0,0,1,417.707,279.329Z" transform="translate(-408.57 -262.106)" fill="#18444c"/>
            </g>
            <g id="Group_405" data-name="Group 405" transform="translate(0 13.86)">
              <path id="Path_505" data-name="Path 505" d="M286.952,423.409a5.689,5.689,0,0,0-1.584-1.594l.13-.194.256-.383,0-.005a6.371,6.371,0,0,0-2.289-.955l-.139.685a5.692,5.692,0,0,0-2.247,0l-.136-.687a6.341,6.341,0,0,0-2.3.942l.387.585a5.678,5.678,0,0,0-1.594,1.584l-.582-.389a6.411,6.411,0,0,0-.955,2.289l.685.139a5.691,5.691,0,0,0,0,2.247l-.687.136a6.344,6.344,0,0,0,.942,2.3l.585-.387a5.679,5.679,0,0,0,1.584,1.594l-.276.412-.111.169h0a6.412,6.412,0,0,0,2.289.955l.14-.685a5.7,5.7,0,0,0,2.249,0l.136.687a6.331,6.331,0,0,0,2.293-.941l-.387-.585a5.692,5.692,0,0,0,1.6-1.585l.452.3.13.086a6.4,6.4,0,0,0,.953-2.288l-.685-.14a5.753,5.753,0,0,0,.006-2.25l.687-.136a6.377,6.377,0,0,0-.943-2.292Zm-3.051,5.738a3.1,3.1,0,1,1,.873-4.3A3.1,3.1,0,0,1,283.9,429.147Z" transform="translate(-275.899 -420.271)" fill="#18444c"/>
            </g>
          </g>
          <g id="Group_407" data-name="Group 407" transform="translate(95.277 30.226)">
            <rect id="Rectangle_125" data-name="Rectangle 125" width="15.409" height="9.215" rx="4.608" transform="translate(0)" fill="#23035b"/>
            <rect id="Rectangle_126" data-name="Rectangle 126" width="15.409" height="1.59" transform="translate(0 1.74)" fill="#5896fa"/>
            <path id="Path_506" data-name="Path 506" d="M1345.519,572.477h-2.266a.261.261,0,0,0-.261.261h0a.261.261,0,0,0,.261.261h2.266a.261.261,0,0,0,.26-.261h0A.261.261,0,0,0,1345.519,572.477Z" transform="translate(-1341.989 -565.03)" fill="#d1f5ff"/>
            <path id="Path_507" data-name="Path 507" d="M1385.275,572.477h-2.266a.261.261,0,0,0-.261.261h0a.261.261,0,0,0,.261.261h2.266a.261.261,0,0,0,.261-.261h0A.261.261,0,0,0,1385.275,572.477Z" transform="translate(-1378.262 -565.03)" fill="#d1f5ff"/>
            <path id="Path_508" data-name="Path 508" d="M1425.033,572.477h-2.265a.261.261,0,0,0-.261.261h0a.261.261,0,0,0,.261.261h2.265a.261.261,0,0,0,.261-.261h0A.261.261,0,0,0,1425.033,572.477Z" transform="translate(-1414.536 -565.03)" fill="#d1f5ff"/>
            <path id="Path_509" data-name="Path 509" d="M1464.79,572.477h-2.266a.261.261,0,0,0-.261.261h0a.261.261,0,0,0,.261.261h2.266a.261.261,0,0,0,.261-.261h0A.261.261,0,0,0,1464.79,572.477Z" transform="translate(-1450.809 -565.03)" fill="#d1f5ff"/>
            <path id="Path_510" data-name="Path 510" d="M1341.78,492.833h0a.288.288,0,0,0-.288.288v.1a.288.288,0,0,0,.288.288h0a.288.288,0,0,0,.288-.288v-.1A.288.288,0,0,0,1341.78,492.833Z" transform="translate(-1340.62 -492.365)" fill="#d1f5ff"/>
            <path id="Path_511" data-name="Path 511" d="M1351.852,493.171h0a.338.338,0,0,0,.338.338h1.2a.338.338,0,0,0,.338-.338h0a.338.338,0,0,0-.338-.338h-1.2A.338.338,0,0,0,1351.852,493.171Z" transform="translate(-1350.072 -492.365)" fill="#d1f5ff"/>
            <rect id="Rectangle_127" data-name="Rectangle 127" width="2.448" height="2.234" rx="1.117" transform="translate(1.173 4.186)" fill="#5896fa"/>
          </g>
          <g id="Group_412" data-name="Group 412" transform="translate(93.525 55.831)">
            <g id="Group_408" data-name="Group 408" transform="translate(0 5.165)">
              <path id="Path_512" data-name="Path 512" d="M1322.5,840.54v-1.053a.865.865,0,0,0-.865-.866h-9.213a.866.866,0,0,0-.865.866v18.607h23.832V840.54Z" transform="translate(-1311.555 -838.622)" fill="#18444c"/>
              <path id="Path_513" data-name="Path 513" d="M1336.378,867.808h-23.369l-1.454,16.915h23.716Z" transform="translate(-1311.555 -865.25)" fill="#fff"/>
              <path id="Path_514" data-name="Path 514" d="M1335.387,878.065h-23.832l2.529-16.7a1,1,0,0,1,.988-.85h21.81a1,1,0,0,1,.988,1.149Z" transform="translate(-1311.555 -858.593)" fill="#d5305c"/>
            </g>
            <g id="Group_411" data-name="Group 411" transform="translate(18.605 0)">
              <g id="Group_409" data-name="Group 409" transform="translate(0)">
                <circle id="Ellipse_34" data-name="Ellipse 34" cx="5.461" cy="5.461" r="5.461" transform="translate(0 7.722) rotate(-45)" fill="#23035b"/>
                <path id="Path_515" data-name="Path 515" d="M1553.041,814.537a5.66,5.66,0,1,1,5.661-5.66A5.667,5.667,0,0,1,1553.041,814.537Zm0-10.921a5.261,5.261,0,1,0,5.26,5.261A5.266,5.266,0,0,0,1553.041,803.616Z" transform="translate(-1545.319 -801.155)" fill="#fff"/>
              </g>
              <g id="Group_410" data-name="Group 410" transform="translate(5.094 4.03)">
                <path id="Path_516" data-name="Path 516" d="M1581.988,856.532V860.4c0,.43,5.257.43,5.257,0v-3.867Zm2.894,2.053v1.1a.266.266,0,1,1-.532,0v-1.1a.646.646,0,1,1,.532,0Z" transform="translate(-1581.988 -853.828)" fill="#fff"/>
                <path id="Path_517" data-name="Path 517" d="M1591.579,828.1h-.532v-.26a1.636,1.636,0,1,0-3.272,0v.26h-.532v-.26a2.168,2.168,0,1,1,4.336,0Z" transform="translate(-1586.783 -825.675)" fill="#fff"/>
              </g>
            </g>
          </g>
        </g>
        <circle id="Ellipse_35" data-name="Ellipse 35" cx="2.09" cy="2.09" r="2.09" transform="translate(99.021 15.765)" fill="#d5305c"/>
        <circle id="Ellipse_36" data-name="Ellipse 36" cx="2.09" cy="2.09" r="2.09" transform="translate(43.802 27.362) rotate(-80.25)" fill="#d5305c"/>
        <circle id="Ellipse_37" data-name="Ellipse 37" cx="1.094" cy="1.094" r="1.094" transform="translate(114.677 52.396)" fill="#fff"/>
        <circle id="Ellipse_38" data-name="Ellipse 38" cx="1.094" cy="1.094" r="1.094" transform="translate(0 56.355) rotate(-76.789)" fill="#d5305c"/>
        <circle id="Ellipse_39" data-name="Ellipse 39" cx="2.09" cy="2.09" r="2.09" transform="translate(15.633 94.421) rotate(-25.745)" fill="#d5305c"/>
        <g id="Group_414" data-name="Group 414" transform="translate(49.669 0.3)">
          <path id="Path_518" data-name="Path 518" d="M831.066,150.605h0a.362.362,0,0,1-.362-.362v-3.878a.362.362,0,0,1,.362-.362h0a.362.362,0,0,1,.362.362v3.878A.362.362,0,0,1,831.066,150.605Z" transform="translate(-828.765 -146.003)" fill="#d5305c"/>
          <path id="Path_519" data-name="Path 519" d="M808.578,168.491h0a.362.362,0,0,1,.362-.362h3.878a.362.362,0,0,1,.362.362h0a.362.362,0,0,1-.362.362H808.94A.362.362,0,0,1,808.578,168.491Z" transform="translate(-808.578 -166.19)" fill="#d5305c"/>
        </g>
        <g id="Group_415" data-name="Group 415" transform="translate(90.896 50.095)">
          <path id="Path_520" data-name="Path 520" d="M1301.514,718.828h0a.362.362,0,0,1-.362-.362v-3.878a.362.362,0,0,1,.362-.362h0a.362.362,0,0,1,.362.362v3.878A.362.362,0,0,1,1301.514,718.828Z" transform="translate(-1299.213 -714.226)" fill="#fff"/>
          <path id="Path_521" data-name="Path 521" d="M1279.025,736.715h0a.362.362,0,0,1,.362-.362h3.878a.362.362,0,0,1,.362.362h0a.362.362,0,0,1-.362.362h-3.878A.362.362,0,0,1,1279.025,736.715Z" transform="translate(-1279.025 -734.414)" fill="#fff"/>
        </g>
        <g id="Group_416" data-name="Group 416" transform="translate(86.953 101.172)">
          <path id="Path_522" data-name="Path 522" d="M1256.521,1301.687h0a.362.362,0,0,1-.362-.362v-3.878a.362.362,0,0,1,.362-.362h0a.362.362,0,0,1,.362.362v3.878A.362.362,0,0,1,1256.521,1301.687Z" transform="translate(-1254.22 -1297.085)" fill="#fff"/>
          <path id="Path_523" data-name="Path 523" d="M1234.033,1319.573h0a.362.362,0,0,1,.362-.362h3.878a.362.362,0,0,1,.362.362h0a.362.362,0,0,1-.362.362H1234.4A.362.362,0,0,1,1234.033,1319.573Z" transform="translate(-1234.033 -1317.272)" fill="#fff"/>
        </g>
        <circle id="Ellipse_40" data-name="Ellipse 40" cx="1.16" cy="1.16" r="1.16" transform="translate(55.818 75.669)" fill="none" stroke="#fff" stroke-width="4.226"/>
      </g>
    </g>
    <g id="male" transform="translate(312.577 228.529)">
      <g id="Group_432" data-name="Group 432" transform="translate(0)">
        <g id="Group_420" data-name="Group 420" transform="translate(0 21.924)">
          <path id="Path_524" data-name="Path 524" d="M1165.039,2128.609H1160.5l-.469-9.865h5.476Z" transform="translate(-1150.359 -2053.446)" fill="#0e0e0e"/>
          <path id="Path_525" data-name="Path 525" d="M2064.912,2128.609h-4.538l-.469-9.865h5.476Z" transform="translate(-1971.375 -2053.446)" fill="#0e0e0e"/>
          <path id="Path_526" data-name="Path 526" d="M1225.592,1421.784q-.75,2.327-1.642,4.777h-75.324s-9.721-39.567,0-46.8a6.411,6.411,0,0,1,.895-.545c13.092-6.728,65.584-8.307,76.241.348.081.064.157.131.229.2C1229.919,1383.364,1233.333,1397.752,1225.592,1421.784Z" transform="translate(-1136.011 -1373.61)" fill="#ea7b00"/>
          <path id="Path_527" data-name="Path 527" d="M1222.186,1689.137H1193.8l2.768-27.731C1201.521,1663.554,1214.7,1674.892,1222.186,1689.137Z" transform="translate(-1181.172 -1636.186)" fill="#982c20"/>
          <path id="Path_528" data-name="Path 528" d="M1769.966,1681.289q-.75,2.327-1.642,4.777h-27.358c4.7-8.726,16.113-21.942,27.192-28.026Z" transform="translate(-1680.385 -1633.115)" fill="#982c20"/>
          <path id="Path_529" data-name="Path 529" d="M1148.671,1656.978h-10.443a3.5,3.5,0,0,0-3.469,3.041l-3.331,25.184h-61.034l-3.33-25.184a3.5,3.5,0,0,0-3.469-3.041h-10.443a3.5,3.5,0,0,0-3.445,4.114l5.8,41.939h90.814l5.8-41.939A3.5,3.5,0,0,0,1148.671,1656.978Z" transform="translate(-1049.651 -1632.146)" fill="#ea7b00"/>
          <g id="Group_419" data-name="Group 419" transform="translate(18.256 38.189)">
            <g id="Group_418" data-name="Group 418">
              <path id="Path_530" data-name="Path 530" d="M1320.891,1810.515c4.915,1.645,3.956,12.05,0,13.65h-59.618c-4.453-1.149-4.829-14.913,1.593-13.878C1302.163,1817.676,1304.067,1805.888,1320.891,1810.515Z" transform="translate(-1257.979 -1809.403)" fill="#f2b066"/>
            </g>
          </g>
        </g>
        <g id="Group_431" data-name="Group 431" transform="translate(30.538)">
          <path id="Path_531" data-name="Path 531" d="M1457.342,1365.952a55.18,55.18,0,0,0,.415,7.431h27.955l1.655-27.3c-1.661-9.97-6.207-12.386-13.4-12.386-6.44,0-10.728,5.253-13.334,12.284A61.072,61.072,0,0,0,1457.342,1365.952Z" transform="translate(-1452.153 -1315.275)" fill="#007880"/>
          <path id="Path_532" data-name="Path 532" d="M1457.359,1494.377l10.116-.609c-5.616-1.839-6.063-10.458-.354-15.821l-6.473-4.064C1458.4,1479.958,1457.4,1487.886,1457.359,1494.377Z" transform="translate(-1452.169 -1443.172)" fill="#005459"/>
          <path id="Path_533" data-name="Path 533" d="M1435.388,1714.813H1473.8v-13.07h-34.6Z" transform="translate(-1432.124 -1651.064)" fill="#0e0e0e"/>
          <g id="Group_423" data-name="Group 423" transform="translate(28.218 50.596)">
            <g id="Group_421" data-name="Group 421">
              <path id="Path_534" data-name="Path 534" d="M1738.5,1709.8l-10.316,37.485h-8.044c2.547-15.951,1.976-26.321,4.372-39.566C1726.617,1696.85,1741.006,1699.728,1738.5,1709.8Z" transform="translate(-1720.144 -1700.799)" fill="#0e0e0e"/>
            </g>
            <g id="Group_422" data-name="Group 422" transform="translate(0 39.328)">
              <path id="Path_535" data-name="Path 535" d="M1778.952,2178.164c0-.024,0-.049,0-.074a5.031,5.031,0,1,1,10.063,0c0,.025,0,.049,0,.074Z" transform="translate(-1773.797 -2171.001)" fill="#b15626"/>
              <path id="Path_536" data-name="Path 536" d="M1731.3,2151.739l-1.829-.559c-1.207-2.375-6.356-2.08-5.639.81a3.779,3.779,0,0,1-3.083-.706l-.6,5.467h10.908Z" transform="translate(-1720.144 -2149.588)" fill="#b15626"/>
            </g>
          </g>
          <g id="Group_426" data-name="Group 426" transform="translate(0.989 50.596)">
            <g id="Group_424" data-name="Group 424">
              <path id="Path_537" data-name="Path 537" d="M1409.715,1709.8l10.316,37.485h8.044c-2.547-15.951-1.976-26.321-4.372-39.566C1421.6,1696.85,1407.214,1699.728,1409.715,1709.8Z" transform="translate(-1409.424 -1700.799)" fill="#0e0e0e"/>
            </g>
            <g id="Group_425" data-name="Group 425" transform="translate(3.435 39.328)">
              <path id="Path_538" data-name="Path 538" d="M1458.685,2178.164c0-.024,0-.049,0-.074a5.032,5.032,0,1,0-10.063,0c0,.025,0,.049,0,.074Z" transform="translate(-1448.624 -2171.001)" fill="#b15626"/>
              <path id="Path_539" data-name="Path 539" d="M1494.973,2151.739l1.829-.559c1.207-2.375,6.356-2.08,5.639.81a3.779,3.779,0,0,0,3.083-.706l.6,5.467h-10.908Z" transform="translate(-1490.911 -2149.588)" fill="#b15626"/>
            </g>
          </g>
          <path id="Path_540" data-name="Path 540" d="M1415.642,1343.708c3.773,2.29,4.311,9.09,2.377,11.8l-10.766,8.02,10.961,5.644-1.781,5.83s-11.441-.931-17.041-6.675C1394.015,1362.81,1407.124,1346.608,1415.642,1343.708Z" transform="translate(-1398.136 -1324.405)" fill="#007880"/>
          <path id="Path_541" data-name="Path 541" d="M1651.642,1355.9c-3.227-4.052-1-10.314,3.115-10.13,13.4,4.716,17.532,17.811,13.288,23.69-3.636,5.036-19.63,6.976-19.63,6.976v-5.514l11.113-2.4S1653.8,1359.641,1651.642,1355.9Z" transform="translate(-1626.483 -1326.281)" fill="#007880"/>
          <g id="Group_428" data-name="Group 428" transform="translate(12.177 29.596)">
            <path id="Path_542" data-name="Path 542" d="M1551.024,1629.457a4.245,4.245,0,0,1,3.652-4.66c4.854-.881,6.611,1.782,7.07,3.686a.806.806,0,0,1-.748.974.82.82,0,0,1-.781-.659,1.877,1.877,0,0,0-.847-1.311c.5.983.292,1.97-1.074,1.97Z" transform="translate(-1549.781 -1610.299)" fill="#f7a594"/>
            <g id="Group_427" data-name="Group 427">
              <path id="Path_543" data-name="Path 543" d="M1549.3,1480.321l3.819-19.153h.81l-4.134,21.082h-11.447l-1.25-1.929Z" transform="translate(-1537.098 -1461.168)" fill="#99c1ff"/>
              <path id="Path_544" data-name="Path 544" d="M1686.13,1461.168h28.423l-4.2,21.082H1682Z" transform="translate(-1669.298 -1461.168)" fill="#fff"/>
            </g>
          </g>
          <g id="Group_430" data-name="Group 430" transform="translate(20.722)">
            <g id="Group_429" data-name="Group 429" transform="translate(0 12.256)">
              <path id="Path_545" data-name="Path 545" d="M1634.6,1271.708c0,2.179,6.533,3.625,8.669,1.334a2.418,2.418,0,0,0,.631-1.293l1.231-5.52-7.8-2.942-.233.721Z" transform="translate(-1634.6 -1263.288)" fill="#f7a594"/>
              <path id="Path_546" data-name="Path 546" d="M1673.182,1281.686l1.23-5.52-7.382-1.988C1665.12,1279.866,1671.939,1284.409,1673.182,1281.686Z" transform="translate(-1663.883 -1273.224)" fill="#f4856d"/>
            </g>
            <path id="Path_547" data-name="Path 547" d="M1658.856,1143.086c-.411,5.425,3.876,10.2,7.474,10.445s8.551-3.776,8.961-9.2-2.935-10.1-7.474-10.445S1659.266,1137.66,1658.856,1143.086Z" transform="translate(-1656.705 -1132.95)" fill="#f7a594"/>
            <path id="Path_548" data-name="Path 548" d="M1663.557,1124.777c4.974-3.15,7.713-.188,10.189,2.954,1.738,2.205,2.969,3.79,5.133,4.121-4.161,5.249-12.484,1.786-15.106-3.474-.258,2.994-3.787,5.474-6.231,5.188C1656.75,1130.235,1659.058,1123.5,1663.557,1124.777Z" transform="translate(-1655.391 -1123.432)" fill="#0e0e0e"/>
            <circle id="Ellipse_41" data-name="Ellipse 41" cx="2.165" cy="2.165" r="2.165" transform="translate(0.616 8.417) rotate(-9.217)" fill="#f7a594"/>
          </g>
        </g>
      </g>
    </g>
  </g>
</svg>
