<svg xmlns="http://www.w3.org/2000/svg" width="197.48" height="189.001" viewBox="0 0 197.48 189.001">
  <g id="Group_380" data-name="Group 380" transform="translate(560.886 520.585)">
    <g id="Background_Complete" data-name="Background Complete" transform="translate(-560.886 -520.585)">
      <path id="Path_297" data-name="Path 297" d="M81.051-454.062,27.265-472.228l-.041-.042L-1.193-501.4l-22.788,20.814-.333-.365,23.141-21.136,28.708,29.425,53.329,18.012,21.888-30.112.4.29Z" transform="translate(91.447 504.398)" fill="#f0f0f0"/>
      <g id="Group_328" data-name="Group 328" transform="translate(0 0)">
        <path id="Path_298" data-name="Path 298" d="M-555.569,220.513a2.658,2.658,0,0,1-2.658,2.658,2.658,2.658,0,0,1-2.658-2.658,2.658,2.658,0,0,1,2.658-2.658A2.658,2.658,0,0,1-555.569,220.513Z" transform="translate(560.886 -125.466)" fill="#f0f0f0"/>
        <path id="Path_299" data-name="Path 299" d="M144.638-517.927a2.658,2.658,0,0,1-2.658,2.658,2.658,2.658,0,0,1-2.658-2.658,2.658,2.658,0,0,1,2.658-2.658A2.658,2.658,0,0,1,144.638-517.927Z" transform="translate(-51.716 520.585)" fill="#f0f0f0"/>
        <path id="Path_300" data-name="Path 300" d="M976.964-381.044a2.658,2.658,0,0,1-2.658,2.658,2.658,2.658,0,0,1-2.658-2.658,2.658,2.658,0,0,1,2.658-2.658A2.658,2.658,0,0,1,976.964-381.044Z" transform="translate(-779.906 400.828)" fill="#f0f0f0"/>
        <path id="Path_301" data-name="Path 301" d="M978.812,740.274a2.658,2.658,0,1,1-2.658-2.658A2.658,2.658,0,0,1,978.812,740.274Z" transform="translate(-781.523 -580.198)" fill="#f0f0f0"/>
        <path id="Path_302" data-name="Path 302" d="M373.095-283.77a2.658,2.658,0,0,1-2.658,2.658,2.658,2.658,0,0,1-2.658-2.658,2.658,2.658,0,0,1,2.658-2.658A2.658,2.658,0,0,1,373.095-283.77Z" transform="translate(-251.59 315.724)" fill="#f0f0f0"/>
      </g>
      <path id="Path_303" data-name="Path 303" d="M-449.914-137.582l-.206-.039-66.671-12.589.092-.485,66.465,12.55,46.541-127.711.464.169Z" transform="translate(522.308 297.727)" fill="#f0f0f0"/>
      <rect id="Rectangle_95" data-name="Rectangle 95" width="0.494" height="30.385" transform="matrix(0.663, -0.749, 0.749, 0.663, 8.38, 44.088)" fill="#f0f0f0"/>
      <path id="Path_304" data-name="Path 304" d="M763.208-11.052,730.245-31.48l.719-.2L765.6-65l-24.711-56.2.452-.2,24.85,56.516-.124.12-34.7,33.388,32.108,19.9Z" transform="translate(-568.707 171.338)" fill="#f0f0f0"/>
      <path id="Path_305" data-name="Path 305" d="M-538.967,72.5l-.415-.268,19.922-30.773-22.968-21.306.167-.181,28.768-31.146.171.1,131.092,75.836-.248.428L-513.4-10.552l-28.332,30.674,22.91,21.253Z" transform="translate(544.737 74.912)" fill="#f0f0f0"/>
    </g>
    <g id="Shadow" transform="translate(-549.879 -342.139)">
      <ellipse id="_Path_" data-name="&lt;Path&gt;" cx="90.367" cy="5.278" rx="90.367" ry="5.278" transform="translate(0)" fill="#f5f5f5"/>
    </g>
    <g id="World" transform="translate(-500.822 -474.936)">
      <g id="Group_334" data-name="Group 334" transform="translate(0 0)">
        <g id="Group_333" data-name="Group 333">
          <g id="Group_329" data-name="Group 329">
            <path id="Path_306" data-name="Path 306" d="M-43.947-75.517q1.994.165,3.95.134A40.1,40.1,0,0,0-11.359-88.044,40,40,0,0,0-.6-112.241c.02-.244.038-.488.055-.73a40.074,40.074,0,0,0-1.71-14.483v0A40.211,40.211,0,0,0-33.251-155.04a41.038,41.038,0,0,0-4.076-.544,40.155,40.155,0,0,0-9.772.379,40.2,40.2,0,0,0-23.809,13.241,40.01,40.01,0,0,0-9.762,23.1A40.079,40.079,0,0,0-79.434-105.1,40.185,40.185,0,0,0-43.947-75.517Z" transform="translate(80.809 155.723)" fill="#407bff"/>
          </g>
          <g id="Group_330" data-name="Group 330" opacity="0.7">
            <path id="Path_307" data-name="Path 307" d="M-43.947-75.517q1.994.165,3.95.134A40.1,40.1,0,0,0-11.359-88.044,40,40,0,0,0-.6-112.241c.02-.244.038-.488.055-.73a40.074,40.074,0,0,0-1.71-14.483v0A40.211,40.211,0,0,0-33.251-155.04a41.038,41.038,0,0,0-4.076-.544,40.155,40.155,0,0,0-9.772.379,40.2,40.2,0,0,0-23.809,13.241,40.01,40.01,0,0,0-9.762,23.1A40.079,40.079,0,0,0-79.434-105.1,40.185,40.185,0,0,0-43.947-75.517Z" transform="translate(80.809 155.723)" fill="#fff"/>
          </g>
          <g id="Group_331" data-name="Group 331" transform="translate(1.375 0.518)">
            <path id="Path_308" data-name="Path 308" d="M-61.1,159.815c-.13.747-1.079,1.015-1.844,1.111l-3.446.429c-.542-1.427-2.232-1.44-3.42-.884a40.185,40.185,0,0,0,35.487,29.58q1.994.165,3.95.134a1.169,1.169,0,0,0,.064-.1c.6-1.053-.27-1.985-.735-2.848-.1-.2-1.09-2.683-.763-2.69a10.623,10.623,0,0,1-3.129-.4.317.317,0,0,1-.2-.119c-.1-.164.134-.325.319-.368.473-.111.965-.137,1.43-.276a1.647,1.647,0,0,0,1.1-.874,8.923,8.923,0,0,0,.151-1.45A2,2,0,0,1-31,179.76a6.547,6.547,0,0,1,1.66-.442c-1.214-.661-.331-2.038-1.282-2.958-.306-.3-.752-.657-.564-1.038.179-.363.821-.358.9-.754.056-.277-.236-.506-.512-.568a3.016,3.016,0,0,1-.825-.177.739.739,0,0,1-.233-1.031c.208-.291.591-.38.906-.548s.6-.557.41-.86a.556.556,0,0,0-.183-.171,1.63,1.63,0,0,0-1.69.284,3.061,3.061,0,0,1-1.616.754.5.5,0,0,1,.2-.683.83.83,0,0,0,.245-.126c.141-.144.035-.381-.061-.558a3.619,3.619,0,0,1-.277-2.759l3.678.07c.031-.276.061-.44.352-.524a38.381,38.381,0,0,1-2.447-2.965.747.747,0,0,0-.328-.318,2.367,2.367,0,0,0-.482-.024c-.531-.073-.616-.8-.562-1.33-.074-.162-.335-.092-.433.057s-.121.342-.24.473a.682.682,0,0,1-.745.081,1.768,1.768,0,0,1-.933-2.291.535.535,0,0,1,.2-.254c.21-.12.464.028.7.07.938.169.8-.868.57-1.359a2.926,2.926,0,0,0-1.884-1.264c-.775-.2-5.948-1.187-5.1-2.874a.78.78,0,0,1,.4-.336,11.82,11.82,0,0,1,1.58-.3c.518-.146,1.02-.685.794-1.173-.09-.2-.278-.331-.383-.519-.292-.525.158-1.207-.05-1.772a4.834,4.834,0,0,0-.454-.69c-.139-.239-.161-.6.075-.743.264-.161.627.078.909-.048a.486.486,0,0,0,.006-.8.836.836,0,0,0-.915.068,1.115,1.115,0,0,1-.442.244c-.3.04-.528-.26-.682-.523l-.735-1.254a.71.71,0,0,0-.583.519c-.095.26-.113.545-.221.8-.52,1.239-2.406,1.092-2.162,2.788a.8.8,0,0,1,.819,1c-.2.6-1.1.929-.971,1.548.044.215.215.39.25.607.1.6-.831.819-1.228.955-1.318.452-1.408-.413-2.551-.465-.523-.024-.992.329-1.512.386-.479.053-.955-.15-1.435-.122-1.322.077-.659,1.868-.565,2.647-.71-.473-1.659.079-2.224.716-.868.979-.787.806-1.936.85a.835.835,0,0,0-.745.439c-.214.484.241,1,.252,1.533.006.254-.093.5-.07.756.061.663.847.952,1.323,1.417a1.821,1.821,0,0,1,.51,1.6,3.815,3.815,0,0,1-1.015-.072l-.6-1.152a2.489,2.489,0,0,0-.671-.917,2.07,2.07,0,0,1-.51-.385c-.25-.344-.048-.816.012-1.238a12.446,12.446,0,0,0-.62-3.757c-.267-1.081-.985-1.506-1.246-2.5a.312.312,0,0,0-.45-.144.688.688,0,0,0-.284.448,1.889,1.889,0,0,0,.109,1.237c-.229-.5-1.5.822-1.58,1.074-.126.412.148,1,.137,1.429-.026,1.062-.283,1.66-1.381.878-.42-.3-.958-.652-1.4-.392a.664.664,0,0,1-.37.751,1.4,1.4,0,0,1-.893.068.889.889,0,0,1-.542-.263,1.464,1.464,0,0,0-.2-.261c-.282-.219-.637.161-.79.484" transform="translate(69.816 -110.364)" fill="#407bff" style="mix-blend-mode: normal;isolation: isolate"/>
            <path id="Path_309" data-name="Path 309" d="M289.966-132.277c.222.348-.012.8-.265,1.127s-.549.709-.439,1.106l1.43.131a.345.345,0,0,1,.246.091.344.344,0,0,1,.039.263l-.112.918c-.3.235-.591-.5-.966-.431-.165.033-.25.211-.341.353-.774,1.214-2.125.3-2.848-.326a4.792,4.792,0,0,0-3.171-.792,1.516,1.516,0,0,0-1.123.3c-.277.276-.293.713-.433,1.083-.24.64-.854,1.06-1.2,1.65-1.216,2.062.97,3.647,2.828,3.086.963-.291.8-.459,1.782-.177.411.118.913.017,1.165.472a.767.767,0,0,1-.67,1.116,3.264,3.264,0,0,1-1.584-.184,6.151,6.151,0,0,1-.071,2.086.911.911,0,0,0-.972,1.216c.314.005.738.122.712.435a.528.528,0,0,1-.11.248c-.218.314-.5.585-.686.919-.288.513-.286,2.051-1.022,2.236-.129.032-.267.022-.394.062a.594.594,0,0,0-.361.687.8.8,0,0,0,.583.565c.183.049.378.044.557.106.95.331.116,1.269.343,1.733a8.4,8.4,0,0,0,1.894,1.261,2.24,2.24,0,0,0-1.07,1.688c-.022.773.565,1.148,1.3,1.378.776.243,1.717.323,2.277.539a.956.956,0,0,0,.921.024c.316-.25.247-.838.611-1.009a1.119,1.119,0,0,1,.376-.062,1.417,1.417,0,0,0,1.21-1.594c.173-.225.509-.2.793-.2s.642-.086.684-.366c.048-.323-.366-.5-.691-.521a3.6,3.6,0,0,0-.991.079,1.18,1.18,0,0,1-.731.03.946.946,0,0,1-.382-.4,2.173,2.173,0,0,1-.4-1.272.925.925,0,0,1,.853-.885,1.865,1.865,0,0,0,.363.021c.308-.05.442-.428.423-.74a2.821,2.821,0,0,1-.039-.929c.085-.3.5-.524.709-.291.175-.4.29-.979-.1-1.171a1.164,1.164,0,0,0-.411-.071c-.859-.081-2.02-1.244-1.065-1.906.628-.435,1.641.473,2.193-.352.264-.394.1-.968.372-1.357.16-.116.348.118.384.313a1.833,1.833,0,0,1-.6,1.69c.483.282,1.246-.04,1.574.413s-.156,1.224.272,1.573a.89.89,0,0,0,.444.15c.773.114,2.216-.017,2.263,1.09a1.6,1.6,0,0,0,.024.4c.119.39.649.427,1.054.386.208-.4-.063-.864-.243-1.276s-.168-1.044.271-1.147c.314-.074.679.2.943.011.122-.085.179-.248.311-.318.319-.17.589.322.933.432.475.151.834-.471.834-.969s-.124-1.065.2-1.442c.1-.12.241-.2.354-.314a2.111,2.111,0,0,0,.467-1.348c.079-.772,3.125,1.227,3.318,1.26,1.465.244,2.364-1.208,3.368-2a8.932,8.932,0,0,1,1.748-.99,40.521,40.521,0,0,0-29.084-27.18,12.958,12.958,0,0,0-1.865-.361c.189.933.766,2.407.139,3.294-.8,1.125-2.48.14-3.1,1.46-.021.337.54.282.8.5a1.173,1.173,0,0,1,.252.5c.072.173.24.348.419.294.209.312-.116.695-.393.949a2.444,2.444,0,0,0-.752,1.068c-.256.882.324,1.759.7,2.6a12.04,12.04,0,0,1,.651,2.179c.006-.351.5-.492.816-.333a3.607,3.607,0,0,1,.758.723c.433.415.991.163,1.457.518.579.439.95,1.227,1.665,1.346.867.146,1.5-.779,1.882-1.568.953.505,1.542,1.723,2.619,1.8a2.773,2.773,0,0,0,1.2-.277l2.366-.933a1.472,1.472,0,0,1,1.018-.141,1.489,1.489,0,0,1,.745.941l.51,1.241a.9.9,0,0,1,.095.535.791.791,0,0,1-.379.431,4.275,4.275,0,0,1-3.066.626,17.315,17.315,0,0,0,.836,4.208c-.806-.208-1.733.061-2.479-.25" transform="translate(-232.723 150.141)" fill="#407bff" style="mix-blend-mode: normal;isolation: isolate"/>
            <path id="Path_310" data-name="Path 310" d="M293.8,244.371a1.594,1.594,0,0,1-1.212.622,7.593,7.593,0,0,1-.852-.161.787.787,0,0,0-.78.259c-.2.31-.01.716.18,1.033a1.217,1.217,0,0,0,.625.617,5.834,5.834,0,0,0,.656.036c.429.07.7.476.989.8s.75.625,1.129.411c.25-.14.357-.455.6-.608.591-.372,1.317.437,1.852.132.634-.361.4-1.393.139-1.975a5.332,5.332,0,0,0-1.261-1.483C294.58,242.812,294.76,243.228,293.8,244.371Z" transform="translate(-245.743 -193.893)" fill="#407bff" style="mix-blend-mode: normal;isolation: isolate"/>
            <path id="Path_311" data-name="Path 311" d="M429.4,180.317c6.32-6.263,10.016-15.389,10.741-24.165.02-.244.037-.488.055-.73-1.219-1.257-3.647-2.058-4.282.2-.25-.018-.3-.167-.492-.308-.3-.222-.72.079-.888.412-.551,1.092-.627,2.463-2.14,2.168-1.8-.351-.581-1.124-1.169-2.119a2.058,2.058,0,0,0-.352-.355,2.043,2.043,0,0,1-.288-1.749.7.7,0,0,0,.948-.395,1.12,1.12,0,0,1,.14-.415c.2-.241.626-.015.724.286a8.874,8.874,0,0,1,.088.941c.065.309.4.613.673.448a.551.551,0,0,0,.211-.324,1.72,1.72,0,0,0-.31-1.566.692.692,0,0,0-.03-1.345c-.44-.1-1.067.163-1.245-.25a1,1,0,0,1-.387.966c-1.165.846-3.786.092-3.525,2.575a9.509,9.509,0,0,1,.172,1.188.916.916,0,0,1-.623.921c.708.571.449,1.878,1.209,2.377a.965.965,0,0,0,1.179-.125.438.438,0,0,1,.166-.131c.138-.043.267.087.409.118.246.053.459-.2.711-.216.351-.02.542.4.6.746s.156.769.494.864c.115.032.24.017.355.049a.6.6,0,0,1,.385.559,1.755,1.755,0,0,1-.16.7c-.146.147-.406.057-.547-.095a4.006,4.006,0,0,0-.388-.484,17.682,17.682,0,0,1-2.125-.063c-.312.723-.47,2.305-1.555,1.9-.383-.142-.774-.4-1.166-.285q.279-.766.54-1.539c-.159-.141-.4.052-.472.253s-.078.445-.248.573a.681.681,0,0,1-.429.087l-1.453-.029a1.756,1.756,0,0,0-1.458.425,1.326,1.326,0,0,0,.239,1.632.55.55,0,0,1,.2.369.539.539,0,0,1-.209.317,2.172,2.172,0,0,0-.713,1.84,1.416,1.416,0,0,0,1.414,1.214c.262-.023.588-.111.742.1.091.125.088.327.229.391.177.08.326-.143.454-.29a.782.782,0,0,1,.959-.155,3.892,3.892,0,0,1,.513,1.8c-.29.5-1.666.3-2.2.325a.782.782,0,0,0-.577.187c-.213.245-.04.635.2.856s.549.392.668.695a1.356,1.356,0,0,1,.053.56,1.427,1.427,0,0,1-.347,1.058c-.136.116-.312.177-.448.293a1.108,1.108,0,0,0-.225,1.137c.108.394.319.757.394,1.158.16.854-.309,1.781.031,2.581.164.387.675.695.995.423.276-.235.274-.79.634-.831s.773.832,1.06,1c.227.134.685-.087,1.1.215C428.969,179.511,429.038,180.051,429.4,180.317Z" transform="translate(-361.313 -113.188)" fill="#407bff" style="mix-blend-mode: normal;isolation: isolate"/>
            <path id="Path_312" data-name="Path 312" d="M4.076-137.976c.355-.452.579-.972,1.246-1.089.909-.158,1.253.351.855,1.213a.385.385,0,0,0-.053.242c.062.262.455.109.678-.042a1.808,1.808,0,0,1,1.744-.084,8.5,8.5,0,0,0,.249-2.721c-.454-1-2.555-.53-2.124-1.621.786-.017,1.592.086,2.381.143l.13-1.138c-.032.283,1.436.224,1.6.14.646-.328.471-1.505,1.631-1.314,1.468.242,1.552,3.127-.117,2.656a7.488,7.488,0,0,0-.594,2.8c-.3,0-.606-.006-.908-.01a.821.821,0,0,0-.111.734,2.27,2.27,0,0,0,2.506.024c.476.365,1.15.015,1.641-.332A1.887,1.887,0,0,0,18-138.626a1.887,1.887,0,0,0-2.027-2.444,2.911,2.911,0,0,0-.619-1.677,3.8,3.8,0,0,0,3.631-2.515c.255-.752.312-1.662.947-2.139.281-.214.638-.3.932-.5a2.852,2.852,0,0,0,.955-2.1q.1-.791.149-1.586A40.2,40.2,0,0,0-1.847-138.342a1.6,1.6,0,0,0,.06.819,1.747,1.747,0,0,0,1.259.779c1.927.509,3.159.4,4.494-1.1Q4.023-137.909,4.076-137.976Z" transform="translate(10.372 151.583)" fill="#407bff" style="mix-blend-mode: normal;isolation: isolate"/>
          </g>
          <g id="Group_332" data-name="Group 332" transform="translate(1.375 0.518)" opacity="0.4">
            <path id="Path_313" data-name="Path 313" d="M-61.1,159.815c-.13.747-1.079,1.015-1.844,1.111l-3.446.429c-.542-1.427-2.232-1.44-3.42-.884a40.185,40.185,0,0,0,35.487,29.58q1.994.165,3.95.134a1.169,1.169,0,0,0,.064-.1c.6-1.053-.27-1.985-.735-2.848-.1-.2-1.09-2.683-.763-2.69a10.623,10.623,0,0,1-3.129-.4.317.317,0,0,1-.2-.119c-.1-.164.134-.325.319-.368.473-.111.965-.137,1.43-.276a1.647,1.647,0,0,0,1.1-.874,8.923,8.923,0,0,0,.151-1.45A2,2,0,0,1-31,179.76a6.547,6.547,0,0,1,1.66-.442c-1.214-.661-.331-2.038-1.282-2.958-.306-.3-.752-.657-.564-1.038.179-.363.821-.358.9-.754.056-.277-.236-.506-.512-.568a3.016,3.016,0,0,1-.825-.177.739.739,0,0,1-.233-1.031c.208-.291.591-.38.906-.548s.6-.557.41-.86a.556.556,0,0,0-.183-.171,1.63,1.63,0,0,0-1.69.284,3.061,3.061,0,0,1-1.616.754.5.5,0,0,1,.2-.683.83.83,0,0,0,.245-.126c.141-.144.035-.381-.061-.558a3.619,3.619,0,0,1-.277-2.759l3.678.07c.031-.276.061-.44.352-.524a38.381,38.381,0,0,1-2.447-2.965.747.747,0,0,0-.328-.318,2.367,2.367,0,0,0-.482-.024c-.531-.073-.616-.8-.562-1.33-.074-.162-.335-.092-.433.057s-.121.342-.24.473a.682.682,0,0,1-.745.081,1.768,1.768,0,0,1-.933-2.291.535.535,0,0,1,.2-.254c.21-.12.464.028.7.07.938.169.8-.868.57-1.359a2.926,2.926,0,0,0-1.884-1.264c-.775-.2-5.948-1.187-5.1-2.874a.78.78,0,0,1,.4-.336,11.82,11.82,0,0,1,1.58-.3c.518-.146,1.02-.685.794-1.173-.09-.2-.278-.331-.383-.519-.292-.525.158-1.207-.05-1.772a4.834,4.834,0,0,0-.454-.69c-.139-.239-.161-.6.075-.743.264-.161.627.078.909-.048a.486.486,0,0,0,.006-.8.836.836,0,0,0-.915.068,1.115,1.115,0,0,1-.442.244c-.3.04-.528-.26-.682-.523l-.735-1.254a.71.71,0,0,0-.583.519c-.095.26-.113.545-.221.8-.52,1.239-2.406,1.092-2.162,2.788a.8.8,0,0,1,.819,1c-.2.6-1.1.929-.971,1.548.044.215.215.39.25.607.1.6-.831.819-1.228.955-1.318.452-1.408-.413-2.551-.465-.523-.024-.992.329-1.512.386-.479.053-.955-.15-1.435-.122-1.322.077-.659,1.868-.565,2.647-.71-.473-1.659.079-2.224.716-.868.979-.787.806-1.936.85a.835.835,0,0,0-.745.439c-.214.484.241,1,.252,1.533.006.254-.093.5-.07.756.061.663.847.952,1.323,1.417a1.821,1.821,0,0,1,.51,1.6,3.815,3.815,0,0,1-1.015-.072l-.6-1.152a2.489,2.489,0,0,0-.671-.917,2.07,2.07,0,0,1-.51-.385c-.25-.344-.048-.816.012-1.238a12.446,12.446,0,0,0-.62-3.757c-.267-1.081-.985-1.506-1.246-2.5a.312.312,0,0,0-.45-.144.688.688,0,0,0-.284.448,1.889,1.889,0,0,0,.109,1.237c-.229-.5-1.5.822-1.58,1.074-.126.412.148,1,.137,1.429-.026,1.062-.283,1.66-1.381.878-.42-.3-.958-.652-1.4-.392a.664.664,0,0,1-.37.751,1.4,1.4,0,0,1-.893.068.889.889,0,0,1-.542-.263,1.464,1.464,0,0,0-.2-.261c-.282-.219-.637.161-.79.484" transform="translate(69.816 -110.364)" fill="#23035b" style="mix-blend-mode: normal;isolation: isolate"/>
            <path id="Path_314" data-name="Path 314" d="M289.966-132.277c.222.348-.012.8-.265,1.127s-.549.709-.439,1.106l1.43.131a.345.345,0,0,1,.246.091.344.344,0,0,1,.039.263l-.112.918c-.3.235-.591-.5-.966-.431-.165.033-.25.211-.341.353-.774,1.214-2.125.3-2.848-.326a4.792,4.792,0,0,0-3.171-.792,1.516,1.516,0,0,0-1.123.3c-.277.276-.293.713-.433,1.083-.24.64-.854,1.06-1.2,1.65-1.216,2.062.97,3.647,2.828,3.086.963-.291.8-.459,1.782-.177.411.118.913.017,1.165.472a.767.767,0,0,1-.67,1.116,3.264,3.264,0,0,1-1.584-.184,6.151,6.151,0,0,1-.071,2.086.911.911,0,0,0-.972,1.216c.314.005.738.122.712.435a.528.528,0,0,1-.11.248c-.218.314-.5.585-.686.919-.288.513-.286,2.051-1.022,2.236-.129.032-.267.022-.394.062a.594.594,0,0,0-.361.687.8.8,0,0,0,.583.565c.183.049.378.044.557.106.95.331.116,1.269.343,1.733a8.4,8.4,0,0,0,1.894,1.261,2.24,2.24,0,0,0-1.07,1.688c-.022.773.565,1.148,1.3,1.378.776.243,1.717.323,2.277.539a.956.956,0,0,0,.921.024c.316-.25.247-.838.611-1.009a1.119,1.119,0,0,1,.376-.062,1.417,1.417,0,0,0,1.21-1.594c.173-.225.509-.2.793-.2s.642-.086.684-.366c.048-.323-.366-.5-.691-.521a3.6,3.6,0,0,0-.991.079,1.18,1.18,0,0,1-.731.03.946.946,0,0,1-.382-.4,2.173,2.173,0,0,1-.4-1.272.925.925,0,0,1,.853-.885,1.865,1.865,0,0,0,.363.021c.308-.05.442-.428.423-.74a2.821,2.821,0,0,1-.039-.929c.085-.3.5-.524.709-.291.175-.4.29-.979-.1-1.171a1.164,1.164,0,0,0-.411-.071c-.859-.081-2.02-1.244-1.065-1.906.628-.435,1.641.473,2.193-.352.264-.394.1-.968.372-1.357.16-.116.348.118.384.313a1.833,1.833,0,0,1-.6,1.69c.483.282,1.246-.04,1.574.413s-.156,1.224.272,1.573a.89.89,0,0,0,.444.15c.773.114,2.216-.017,2.263,1.09a1.6,1.6,0,0,0,.024.4c.119.39.649.427,1.054.386.208-.4-.063-.864-.243-1.276s-.168-1.044.271-1.147c.314-.074.679.2.943.011.122-.085.179-.248.311-.318.319-.17.589.322.933.432.475.151.834-.471.834-.969s-.124-1.065.2-1.442c.1-.12.241-.2.354-.314a2.111,2.111,0,0,0,.467-1.348c.079-.772,3.125,1.227,3.318,1.26,1.465.244,2.364-1.208,3.368-2a8.932,8.932,0,0,1,1.748-.99,40.521,40.521,0,0,0-29.084-27.18,12.958,12.958,0,0,0-1.865-.361c.189.933.766,2.407.139,3.294-.8,1.125-2.48.14-3.1,1.46-.021.337.54.282.8.5a1.173,1.173,0,0,1,.252.5c.072.173.24.348.419.294.209.312-.116.695-.393.949a2.444,2.444,0,0,0-.752,1.068c-.256.882.324,1.759.7,2.6a12.04,12.04,0,0,1,.651,2.179c.006-.351.5-.492.816-.333a3.607,3.607,0,0,1,.758.723c.433.415.991.163,1.457.518.579.439.95,1.227,1.665,1.346.867.146,1.5-.779,1.882-1.568.953.505,1.542,1.723,2.619,1.8a2.773,2.773,0,0,0,1.2-.277l2.366-.933a1.472,1.472,0,0,1,1.018-.141,1.489,1.489,0,0,1,.745.941l.51,1.241a.9.9,0,0,1,.095.535.791.791,0,0,1-.379.431,4.275,4.275,0,0,1-3.066.626,17.315,17.315,0,0,0,.836,4.208c-.806-.208-1.733.061-2.479-.25" transform="translate(-232.723 150.141)" fill="#23035b" style="mix-blend-mode: normal;isolation: isolate"/>
            <path id="Path_315" data-name="Path 315" d="M293.8,244.371a1.594,1.594,0,0,1-1.212.622,7.593,7.593,0,0,1-.852-.161.787.787,0,0,0-.78.259c-.2.31-.01.716.18,1.033a1.217,1.217,0,0,0,.625.617,5.834,5.834,0,0,0,.656.036c.429.07.7.476.989.8s.75.625,1.129.411c.25-.14.357-.455.6-.608.591-.372,1.317.437,1.852.132.634-.361.4-1.393.139-1.975a5.332,5.332,0,0,0-1.261-1.483C294.58,242.812,294.76,243.228,293.8,244.371Z" transform="translate(-245.743 -193.893)" fill="#23035b" style="mix-blend-mode: normal;isolation: isolate"/>
            <path id="Path_316" data-name="Path 316" d="M429.4,180.317c6.32-6.263,10.016-15.389,10.741-24.165.02-.244.037-.488.055-.73-1.219-1.257-3.647-2.058-4.282.2-.25-.018-.3-.167-.492-.308-.3-.222-.72.079-.888.412-.551,1.092-.627,2.463-2.14,2.168-1.8-.351-.581-1.124-1.169-2.119a2.058,2.058,0,0,0-.352-.355,2.043,2.043,0,0,1-.288-1.749.7.7,0,0,0,.948-.395,1.12,1.12,0,0,1,.14-.415c.2-.241.626-.015.724.286a8.874,8.874,0,0,1,.088.941c.065.309.4.613.673.448a.551.551,0,0,0,.211-.324,1.72,1.72,0,0,0-.31-1.566.692.692,0,0,0-.03-1.345c-.44-.1-1.067.163-1.245-.25a1,1,0,0,1-.387.966c-1.165.846-3.786.092-3.525,2.575a9.509,9.509,0,0,1,.172,1.188.916.916,0,0,1-.623.921c.708.571.449,1.878,1.209,2.377a.965.965,0,0,0,1.179-.125.438.438,0,0,1,.166-.131c.138-.043.267.087.409.118.246.053.459-.2.711-.216.351-.02.542.4.6.746s.156.769.494.864c.115.032.24.017.355.049a.6.6,0,0,1,.385.559,1.755,1.755,0,0,1-.16.7c-.146.147-.406.057-.547-.095a4.006,4.006,0,0,0-.388-.484,17.682,17.682,0,0,1-2.125-.063c-.312.723-.47,2.305-1.555,1.9-.383-.142-.774-.4-1.166-.285q.279-.766.54-1.539c-.159-.141-.4.052-.472.253s-.078.445-.248.573a.681.681,0,0,1-.429.087l-1.453-.029a1.756,1.756,0,0,0-1.458.425,1.326,1.326,0,0,0,.239,1.632.55.55,0,0,1,.2.369.539.539,0,0,1-.209.317,2.172,2.172,0,0,0-.713,1.84,1.416,1.416,0,0,0,1.414,1.214c.262-.023.588-.111.742.1.091.125.088.327.229.391.177.08.326-.143.454-.29a.782.782,0,0,1,.959-.155,3.892,3.892,0,0,1,.513,1.8c-.29.5-1.666.3-2.2.325a.782.782,0,0,0-.577.187c-.213.245-.04.635.2.856s.549.392.668.695a1.356,1.356,0,0,1,.053.56,1.427,1.427,0,0,1-.347,1.058c-.136.116-.312.177-.448.293a1.108,1.108,0,0,0-.225,1.137c.108.394.319.757.394,1.158.16.854-.309,1.781.031,2.581.164.387.675.695.995.423.276-.235.274-.79.634-.831s.773.832,1.06,1c.227.134.685-.087,1.1.215C428.969,179.511,429.038,180.051,429.4,180.317Z" transform="translate(-361.313 -113.188)" fill="#23035b" style="mix-blend-mode: normal;isolation: isolate"/>
            <path id="Path_317" data-name="Path 317" d="M4.076-137.976c.355-.452.579-.972,1.246-1.089.909-.158,1.253.351.855,1.213a.385.385,0,0,0-.053.242c.062.262.455.109.678-.042a1.808,1.808,0,0,1,1.744-.084,8.5,8.5,0,0,0,.249-2.721c-.454-1-2.555-.53-2.124-1.621.786-.017,1.592.086,2.381.143l.13-1.138c-.032.283,1.436.224,1.6.14.646-.328.471-1.505,1.631-1.314,1.468.242,1.552,3.127-.117,2.656a7.488,7.488,0,0,0-.594,2.8c-.3,0-.606-.006-.908-.01a.821.821,0,0,0-.111.734,2.27,2.27,0,0,0,2.506.024c.476.365,1.15.015,1.641-.332A1.887,1.887,0,0,0,18-138.626a1.887,1.887,0,0,0-2.027-2.444,2.911,2.911,0,0,0-.619-1.677,3.8,3.8,0,0,0,3.631-2.515c.255-.752.312-1.662.947-2.139.281-.214.638-.3.932-.5a2.852,2.852,0,0,0,.955-2.1q.1-.791.149-1.586A40.2,40.2,0,0,0-1.847-138.342a1.6,1.6,0,0,0,.06.819,1.747,1.747,0,0,0,1.259.779c1.927.509,3.159.4,4.494-1.1Q4.023-137.909,4.076-137.976Z" transform="translate(10.372 151.583)" fill="#23035b" style="mix-blend-mode: normal;isolation: isolate"/>
          </g>
        </g>
      </g>
    </g>
    <g id="People" transform="translate(-550.151 -513.979)">
      <g id="Group_343" data-name="Group 343" transform="translate(13.552 7.743)">
        <rect id="Rectangle_96" data-name="Rectangle 96" width="48.043" height="0.494" transform="matrix(0.917, -0.398, 0.398, 0.917, 103.819, 53.549)" fill="#407bff"/>
        <rect id="Rectangle_97" data-name="Rectangle 97" width="0.494" height="35.806" transform="matrix(0.85, -0.526, 0.526, 0.85, 42.802, 9.414)" fill="#407bff"/>
        <rect id="Rectangle_98" data-name="Rectangle 98" width="49.954" height="0.494" transform="translate(0.213 100.452) rotate(-11.833)" fill="#407bff"/>
        <rect id="Rectangle_99" data-name="Rectangle 99" width="48.043" height="0.494" transform="matrix(0.917, -0.398, 0.398, 0.917, 103.819, 53.549)" fill="#fff" opacity="0.8"/>
        <rect id="Rectangle_100" data-name="Rectangle 100" width="0.494" height="52.987" transform="matrix(0.847, -0.531, 0.531, 0.847, 109.357, 82.646)" fill="#407bff"/>
        <rect id="Rectangle_101" data-name="Rectangle 101" width="0.494" height="52.987" transform="matrix(0.847, -0.531, 0.531, 0.847, 109.357, 82.646)" fill="#fff" opacity="0.8"/>
        <rect id="Rectangle_102" data-name="Rectangle 102" width="0.494" height="35.806" transform="matrix(0.85, -0.526, 0.526, 0.85, 42.802, 9.414)" fill="#fff" opacity="0.8"/>
        <rect id="Rectangle_103" data-name="Rectangle 103" width="49.954" height="0.494" transform="translate(0.213 100.452) rotate(-11.833)" fill="#fff" opacity="0.8"/>
        <path id="Path_325" data-name="Path 325" d="M-318.893-260.112l-47.87-45,6.77-51.189.051-.057,36.068-40.481.09-.012,65.364-9.039,39.914,34.563-.014.129-10.317,92.932-.177.036ZM-366.24-305.3l47.5,44.654,89.451-18.035,10.263-92.444-39.548-34.246-65.052,9-35.9,40.288Z" transform="translate(366.763 405.892)" fill="#407bff"/>
        <path id="Path_326" data-name="Path 326" d="M-318.893-260.112l-47.87-45,6.77-51.189.051-.057,36.068-40.481.09-.012,65.364-9.039,39.914,34.563-.014.129-10.317,92.932-.177.036ZM-366.24-305.3l47.5,44.654,89.451-18.035,10.263-92.444-39.548-34.246-65.052,9-35.9,40.288Z" transform="translate(366.763 405.892)" fill="#fff" opacity="0.8"/>
        <g id="Group_339" data-name="Group 339" transform="translate(59.712 37.583)">
          <path id="Path_327" data-name="Path 327" d="M123.2-88.348l-.741,4.327-.741-4.327Z" transform="translate(-120.317 90.494)" fill="#407bff"/>
          <path id="Path_328" data-name="Path 328" d="M114.787-103.352a2.146,2.146,0,0,1-2.146,2.146,2.146,2.146,0,0,1-2.146-2.146,2.146,2.146,0,0,1,2.146-2.146A2.146,2.146,0,0,1,114.787-103.352Z" transform="translate(-110.496 105.498)" fill="#407bff"/>
          <path id="Path_329" data-name="Path 329" d="M116.663-101.931c.239.314.05.859-.421,1.218s-1.047.4-1.286.082-.05-.859.421-1.218S116.424-102.244,116.663-101.931Z" transform="translate(-114.308 102.564)" fill="#fff" opacity="0.3"/>
        </g>
        <g id="Group_340" data-name="Group 340" transform="translate(101.772 51.632)">
          <path id="Path_330" data-name="Path 330" d="M459.384,23.936l-.741,4.327-.741-4.327Z" transform="translate(-456.497 -21.791)" fill="#407bff"/>
          <circle id="Ellipse_19" data-name="Ellipse 19" cx="2.146" cy="2.146" r="2.146" transform="translate(0 0)" fill="#407bff"/>
          <path id="Path_331" data-name="Path 331" d="M452.843,10.354c.239.314.05.859-.421,1.218s-1.047.4-1.286.082-.05-.859.421-1.218S452.6,10.04,452.843,10.354Z" transform="translate(-450.487 -9.721)" fill="#fff" opacity="0.3"/>
        </g>
        <g id="Group_341" data-name="Group 341" transform="translate(47.012 88.057)">
          <path id="Path_332" data-name="Path 332" d="M21.7,315.072l-.741,4.327-.741-4.327Z" transform="translate(-18.815 -312.926)" fill="#407bff"/>
          <circle id="Ellipse_20" data-name="Ellipse 20" cx="2.146" cy="2.146" r="2.146" transform="translate(0 0)" fill="#407bff"/>
          <path id="Path_333" data-name="Path 333" d="M15.162,301.489c.239.314.05.859-.421,1.218s-1.047.4-1.286.082-.05-.859.421-1.218S14.923,301.176,15.162,301.489Z" transform="translate(-12.806 -300.857)" fill="#fff" opacity="0.3"/>
        </g>
        <g id="Group_342" data-name="Group 342" transform="translate(107.421 80.37)">
          <path id="Path_334" data-name="Path 334" d="M504.533,253.631l-.741,4.327-.741-4.327Z" transform="translate(-501.646 -251.486)" fill="#407bff"/>
          <path id="Path_335" data-name="Path 335" d="M496.117,238.628a2.146,2.146,0,1,1-2.146-2.146A2.146,2.146,0,0,1,496.117,238.628Z" transform="translate(-491.826 -236.482)" fill="#407bff"/>
          <path id="Path_336" data-name="Path 336" d="M497.993,240.049c.239.313.05.859-.421,1.218s-1.047.4-1.286.082-.05-.859.421-1.218S497.754,239.736,497.993,240.049Z" transform="translate(-495.637 -239.416)" fill="#fff" opacity="0.3"/>
        </g>
      </g>
      <g id="Group_352" data-name="Group 352" transform="translate(139.047 20.815)">
        <path id="Path_337" data-name="Path 337" d="M718.351-235.824a16.419,16.419,0,0,1-3.286,9.876,15.9,15.9,0,0,1-2.509,2.658,15.629,15.629,0,0,1-2.721,1.888,16.372,16.372,0,0,1-7.957,2.05,16.327,16.327,0,0,1-6.814-1.478c-.193-.081-.385-.174-.571-.273l-.006-.006a15.77,15.77,0,0,1-3.23-2.124,16.28,16.28,0,0,1-3.683-4.416,16.345,16.345,0,0,1-2.174-8.174A16.48,16.48,0,0,1,701.879-252.3,16.475,16.475,0,0,1,718.351-235.824Z" transform="translate(-679.255 258.447)" fill="#23035b"/>
        <path id="Path_885" data-name="Path 885" d="M16,0A16,16,0,1,1,0,16,16,16,0,0,1,16,0Z" transform="translate(0 22.622) rotate(-45)" fill="#d5305c" opacity="0.7"/>
        <g id="Group_351" data-name="Group 351" transform="translate(8.736 9.263)">
          <path id="Path_338" data-name="Path 338" d="M711.461-144.184,713-150.6s.979-.781,1.041-1.348-.6-3.926-1.027-4.129-2.935.672-3.058,1.39a11.6,11.6,0,0,0,1.067,3.768l-2.535,7.458Z" transform="translate(-708.194 165.019)" fill="#e4897b"/>
          <path id="Path_339" data-name="Path 339" d="M710.611-96.976l-.929,8.424a15.811,15.811,0,0,1-3.576-4.288c.573-2.02,1.152-3.835,1.423-4.649.091-.29.145-.452.145-.452l.531.066,2.2.277.271.036Z" transform="translate(-706.106 114.135)" fill="#407bff"/>
          <path id="Path_340" data-name="Path 340" d="M739.82-73.506l-1.435,5.331c-.187-.078-.374-.169-.555-.265l-.006-.006a15.309,15.309,0,0,1-3.136-2.062c.115-.259,3.051-6.887,4.149-6.808Z" transform="translate(-731.112 96.092)" fill="#407bff"/>
          <path id="Path_341" data-name="Path 341" d="M710.611-96.976l-.929,8.424a15.811,15.811,0,0,1-3.576-4.288c.573-2.02,1.152-3.835,1.423-4.649.091-.29.145-.452.145-.452l.531.066,2.2.277.271.036Z" transform="translate(-706.106 114.135)" opacity="0.3" style="mix-blend-mode: normal;isolation: isolate"/>
          <path id="Path_342" data-name="Path 342" d="M739.82-73.506l-1.435,5.331c-.187-.078-.374-.169-.555-.265l-.006-.006a15.309,15.309,0,0,1-3.136-2.062c.115-.259,3.051-6.887,4.149-6.808Z" transform="translate(-731.112 96.092)" opacity="0.3" style="mix-blend-mode: normal;isolation: isolate"/>
          <path id="Path_343" data-name="Path 343" d="M719.555-99.741l-.506,1.135-3.507-.583.08-.646Z" transform="translate(-714.361 115.792)" fill="#407bff"/>
          <path id="Path_344" data-name="Path 344" d="M787.147-179.574c-.409,1.568,1.828,5.892.921,13.759s-9.534,7.387-13.411,4.764-3.206-16.854-1.873-19.66S787.147-179.574,787.147-179.574Z" transform="translate(-763.528 187.432)" fill="#11658f"/>
          <g id="Group_344" data-name="Group 344" transform="translate(6.712 18.485)">
            <path id="Path_345" data-name="Path 345" d="M778.983-77.538c-.084.229-.157.452-.235.681s-.157.446-.229.663c-.145.434-.284.856-.422,1.266-.277.82-.525,1.6-.76,2.34a15.165,15.165,0,0,1-2.641,1.833,15.9,15.9,0,0,1-7.725,1.99,15.851,15.851,0,0,1-6.615-1.435c-.187-.078-.374-.169-.555-.265.006-.157.006-.32.006-.47s0-.308.006-.458c.006-.452.024-.874.036-1.272.012-.265.024-.525.03-.766.006-.127.012-.241.018-.362.024-.44.042-.838.073-1.212.006-.121.018-.241.024-.356.024-.35.054-.663.078-.953a8.443,8.443,0,0,1,.579-2.84.65.65,0,0,1,.084-.127c.048-.054.072-.06.072-.06s.241-.024.645-.054c1.067-.09,3.28-.247,5.283-.235a.72.72,0,0,1,.115.006q.4.009.8.036c1.031.054,2.062.145,3.081.271.38.048.76.1,1.14.157q.615.09,1.23.2c.054.012.115.018.169.03a40.887,40.887,0,0,1,4.487,1.025c.41.115.82.235,1.224.368Z" transform="translate(-759.794 79.631)" fill="#407bff"/>
            <path id="Path_346" data-name="Path 346" d="M778.935-77.538c0,.006,0,.006-.006.012-.079.223-.157.446-.223.669-.084.223-.157.446-.229.663-.145.434-.284.856-.422,1.266-.277.82-.525,1.6-.76,2.34a15.166,15.166,0,0,1-2.642,1.833,15.9,15.9,0,0,1-7.725,1.99,15.852,15.852,0,0,1-6.615-1.435c-.187-.078-.374-.169-.555-.265l-.006-.006c0-.157.006-.314.012-.464s0-.308.006-.458c.006-.452.024-.874.036-1.272.012-.265.024-.525.03-.766.006-.127.012-.241.018-.362.018-.44.042-.838.072-1.212.006-.121.018-.241.024-.356.024-.35.054-.663.078-.953a8.44,8.44,0,0,1,.579-2.84.653.653,0,0,1,.084-.127c.048-.054.072-.06.072-.06s.241-.024.645-.054c1.067-.09,3.28-.247,5.282-.235a.719.719,0,0,1,.115.006q.4.009.8.036c1.031.054,2.062.145,3.081.271.38.048.76.1,1.14.157q.615.09,1.23.2c.054.012.115.018.169.03a40.893,40.893,0,0,1,4.487,1.025C778.121-77.791,778.531-77.671,778.935-77.538Z" transform="translate(-759.752 79.631)" opacity="0.3" style="mix-blend-mode: normal;isolation: isolate"/>
          </g>
          <path id="Path_347" data-name="Path 347" d="M806.775-83.218c3.529.277,3.962,1.344,3.585,1.9s-5.158,5.231-6.6,8.362C803.763-72.954,798.581-83.861,806.775-83.218Z" transform="translate(-790.131 101.278)" fill="#fff"/>
          <path id="Path_348" data-name="Path 348" d="M816.335-108.126c3.493-.447,4.543-1.939,4.543-1.939-2.216-2.091-.375-5.715-.375-5.715l-4.2.785a12.377,12.377,0,0,1,.164,1.77c.032,2.552-1.122,2.577-1.122,2.577C814.6-109.265,816.335-108.126,816.335-108.126Z" transform="translate(-801.513 129.742)" fill="#e4897b"/>
          <path id="Path_349" data-name="Path 349" d="M824.276-114.995a12.377,12.377,0,0,1,.164,1.77,4.679,4.679,0,0,0,4.04-2.555Z" transform="translate(-809.491 129.742)" opacity="0.2" style="mix-blend-mode: normal;isolation: isolate"/>
          <g id="Group_349" data-name="Group 349" transform="translate(8.789)">
            <g id="Group_348" data-name="Group 348" transform="translate(2.742 1.573)">
              <path id="Path_350" data-name="Path 350" d="M803.849-203.574c-3.655-.2-4.939,1.692-5.413,5.444-.592,4.689.268,8.09,4.893,7.335C809.611-191.82,809.919-203.241,803.849-203.574Z" transform="translate(-798.271 204.991)" fill="#e4897b"/>
              <path id="Path_351" data-name="Path 351" d="M810.548-160.559A7.737,7.737,0,0,1,809.4-159.1a1.006,1.006,0,0,0,.941.466Z" transform="translate(-808.009 167.346)" fill="#de5753"/>
              <g id="Group_345" data-name="Group 345" transform="translate(4.647 5.81)">
                <path id="Path_352" data-name="Path 352" d="M836.559-165.573c-.024.3.12.556.319.571s.381-.215.4-.515-.12-.556-.32-.571S836.583-165.872,836.559-165.573Z" transform="translate(-836.414 166.373)" fill="#263238"/>
                <path id="Path_353" data-name="Path 353" d="M836.047-168.059l-.632-.307S835.7-167.792,836.047-168.059Z" transform="translate(-835.415 168.366)" fill="#263238"/>
              </g>
              <g id="Group_346" data-name="Group 346" transform="translate(0.924 5.456)">
                <path id="Path_354" data-name="Path 354" d="M806.8-168.4c-.023.3.12.556.319.571s.381-.215.4-.515-.12-.556-.319-.571S806.828-168.7,806.8-168.4Z" transform="translate(-806.659 169.203)" fill="#263238"/>
                <path id="Path_355" data-name="Path 355" d="M806.292-170.89l-.632-.307S805.942-170.623,806.292-170.89Z" transform="translate(-805.66 171.197)" fill="#263238"/>
              </g>
              <path id="Path_356" data-name="Path 356" d="M838.347-182.52a.17.17,0,0,1-.138-.07,1.741,1.741,0,0,0-1.405-.57.167.167,0,0,1-.181-.157.169.169,0,0,1,.156-.181,2.061,2.061,0,0,1,1.7.709.17.17,0,0,1-.038.237A.171.171,0,0,1,838.347-182.52Z" transform="translate(-831.824 187.418)" fill="#263238"/>
              <path id="Path_357" data-name="Path 357" d="M803.849-185.848a.169.169,0,0,1-.146-.084.17.17,0,0,1,.06-.232,1.872,1.872,0,0,1,1.627-.23.17.17,0,0,1,.088.223.17.17,0,0,1-.222.088,1.541,1.541,0,0,0-1.321.211A.172.172,0,0,1,803.849-185.848Z" transform="translate(-803.003 190.027)" fill="#263238"/>
              <g id="Group_347" data-name="Group 347" transform="translate(2.788 9.624)">
                <path id="Path_358" data-name="Path 358" d="M820.552-137.326a9.261,9.261,0,0,1,.357,1.293c.079,0,.158,0,.237-.009,1.07-.049,1.55-.426,1.757-.828a1.381,1.381,0,0,0,.14-.638,1.338,1.338,0,0,0-.048-.371,5.047,5.047,0,0,1-2.079.531C820.693-137.329,820.552-137.326,820.552-137.326Z" transform="translate(-820.552 137.88)" fill="#263238"/>
                <path id="Path_359" data-name="Path 359" d="M823.464-137.349l.115.378a3.185,3.185,0,0,0,2.011-.538,1.334,1.334,0,0,0-.048-.371A5.046,5.046,0,0,1,823.464-137.349Z" transform="translate(-823.1 137.88)" fill="#fff"/>
                <path id="Path_360" data-name="Path 360" d="M825.294-128.984c1.07-.049,1.55-.426,1.758-.828a3.444,3.444,0,0,0-1.177.29A1.291,1.291,0,0,0,825.294-128.984Z" transform="translate(-824.701 130.821)" fill="#de5753"/>
              </g>
              <path id="Path_361" data-name="Path 361" d="M809.127-207.009s-1.545-3.1-1.159-5.4c0,0-7.081-3.356-7.841,3.976,0,0-.35-6.567,5.941-6.368s5.761,9.389,2.366,11.95C808.434-202.851,810.081-205.073,809.127-207.009Z" transform="translate(-799.892 214.805)" fill="#263238"/>
              <path id="Path_362" data-name="Path 362" d="M866.743-156.32a1.606,1.606,0,0,1,1.806-1.37c1.126.186,1.538,2.54-1.31,2.945C866.831-154.687,866.625-155.095,866.743-156.32Z" transform="translate(-858.147 164.855)" fill="#e4897b"/>
            </g>
            <path id="Path_363" data-name="Path 363" d="M786.2-223.772a13.877,13.877,0,0,0,2.131,8.6,4.907,4.907,0,0,1-.306,5.826s3.649-2.324,3.777-5.826c0,0,3.015-8.375-3.243-10.634,0,0-.026-1.886-4.106-1.527s-7.368,3.856-7.991,8.314,1.7,9.429,1.7,9.429S775.693-225.384,786.2-223.772Z" transform="translate(-776.357 227.376)" fill="#b2b2b2"/>
            <path id="Path_364" data-name="Path 364" d="M851.89-199.019a10.539,10.539,0,0,0-.3,3.24,16.038,16.038,0,0,0,.525,3.27,13.85,13.85,0,0,0,1.223,3.088,8.926,8.926,0,0,0,2.068,2.6,8.989,8.989,0,0,1-2.175-2.537,14.053,14.053,0,0,1-1.353-3.081,16.332,16.332,0,0,1-.657-3.314,10.879,10.879,0,0,1,.2-3.414Z" transform="translate(-841.81 202.697)" fill="#263238"/>
          </g>
          <g id="Group_350" data-name="Group 350" transform="translate(21.613 20.578)">
            <path id="Path_365" data-name="Path 365" d="M883.93-60.53a15.434,15.434,0,0,1-2.436,2.581,15.168,15.168,0,0,1-2.641,1.833c.054-.211.127-.422.2-.633a16.338,16.338,0,0,1,2.635-4.517,18.3,18.3,0,0,1,1.441-1.622l.012-.012A4.167,4.167,0,0,1,883.93-60.53Z" transform="translate(-878.852 62.9)" fill="#407bff"/>
            <path id="Path_366" data-name="Path 366" d="M883.93-60.53a15.434,15.434,0,0,1-2.436,2.581,15.168,15.168,0,0,1-2.641,1.833c.054-.211.127-.422.2-.633a16.338,16.338,0,0,1,2.635-4.517,18.3,18.3,0,0,1,1.441-1.622l.012-.012A4.167,4.167,0,0,1,883.93-60.53Z" transform="translate(-878.852 62.9)" opacity="0.3" style="mix-blend-mode: normal;isolation: isolate"/>
          </g>
        </g>
      </g>
      <g id="Group_353" data-name="Group 353" transform="translate(112.332)">
        <circle id="Ellipse_22" data-name="Ellipse 22" cx="8.992" cy="8.992" r="8.992" transform="translate(0)" fill="#407bff"/>
        <path id="Path_367" data-name="Path 367" d="M443.805-455.205a8.445,8.445,0,0,1-2.266,5.767,8.452,8.452,0,0,1-6.211,2.71,8.456,8.456,0,0,1-6.535-3.076,8.41,8.41,0,0,1-1.946-5.4,8.478,8.478,0,0,1,8.481-8.481A8.478,8.478,0,0,1,443.805-455.205Z" transform="translate(-426.335 464.198)" fill="#fff" opacity="0.3"/>
        <path id="Path_368" data-name="Path 368" d="M455.147-442.66a8.452,8.452,0,0,1-6.211,2.71,8.456,8.456,0,0,1-6.535-3.076.954.954,0,0,1,.134-.045,1.9,1.9,0,0,1,.406-.425.48.48,0,0,1,0-.071l.149-.026a1.78,1.78,0,0,1,.928-.242,2.349,2.349,0,0,1,.276.015l.529-.1s0,.052-.011.145c.671.052,1.692.116,2.855.194a1.511,1.511,0,0,0,.526-.742,2.638,2.638,0,0,0,.1-.977,2.933,2.933,0,0,1-1.185-.313,3.039,3.039,0,0,1-1.465-1.666,2.871,2.871,0,0,1-.093-.306,7.673,7.673,0,0,1-.045-3.2v-.007a.723.723,0,0,1-.089,0,.09.09,0,0,1-.075-.093c0-.008,0-.015,0-.022a.1.1,0,0,1,.112-.082c.008,0,.015,0,.026,0a6.519,6.519,0,0,1,.142-1.916,2.28,2.28,0,0,1-.015-1.935c.317-.455.071-.209.9-.28s.328-.809.857-.816.421.324,1.07.57.41-.492,1.148-.563.842.492,1.372.634a2.521,2.521,0,0,0,1.022,0c.388,0,.421,1.126.585,1.335s.436-.1.787.473a.53.53,0,0,1,.063.276,6.05,6.05,0,0,1-.932,2.166A10.482,10.482,0,0,1,452.3-450a.969.969,0,0,1,.168,1.118,2.092,2.092,0,0,1-.82.876,6.065,6.065,0,0,1-.533.932,7.111,7.111,0,0,0,.093,3.787A28.25,28.25,0,0,1,455.147-442.66Z" transform="translate(-439.943 457.421)" fill="#23035b"/>
        <path id="Path_886" data-name="Path 886" d="M8.992,0a8.992,8.992,0,0,1,0,17.983A9.1,9.1,0,0,1,.7,12.475,8.594,8.594,0,0,1,0,8.992,9.285,9.285,0,0,1,.928,5.01,8.882,8.882,0,0,1,8.992,0Z" transform="translate(0)" fill="#d5305c" opacity="0.5"/>
      </g>
      <g id="Group_354" data-name="Group 354" transform="translate(48.783 139.755)">
        <circle id="Ellipse_24" data-name="Ellipse 24" cx="8.992" cy="8.992" r="8.992" transform="translate(0 12.716) rotate(-45)" fill="#407bff"/>
        <path id="Path_369" data-name="Path 369" d="M-34.342,691.6A8.436,8.436,0,0,1-37,697.757a8.429,8.429,0,0,1-5.827,2.322,8.427,8.427,0,0,1-4.8-1.487A8.47,8.47,0,0,1-51.3,691.6a8.477,8.477,0,0,1,8.477-8.477A8.48,8.48,0,0,1-34.342,691.6Z" transform="translate(55.538 -678.886)" fill="#fff" opacity="0.2"/>
        <path id="Path_370" data-name="Path 370" d="M-11.267,708.739a8.429,8.429,0,0,1-5.827,2.322,8.427,8.427,0,0,1-4.8-1.487c.615-.086,1.264-.164,1.923-.231a8.17,8.17,0,0,0,.108-4.373,7.232,7.232,0,0,1-.611-1.077,2.36,2.36,0,0,1-.947-1.01,1.119,1.119,0,0,1,.19-1.294,9.918,9.918,0,0,1-.276-2.039l-.037.019a3.025,3.025,0,0,1,1.868-3.6c2.55-.966,5.126.76,5.126.76s.552-1.029,1.212-.76c.559.227.261.958.157,1.182a1.354,1.354,0,0,1,.578-.5c.451-.205,1.074.369-.324,1.767a2.026,2.026,0,0,1-.5.358,6.873,6.873,0,0,1,.037,1.909,8.816,8.816,0,0,1-.052,3.694,2.6,2.6,0,0,1-.108.354,3.471,3.471,0,0,1-1.692,1.924,3.324,3.324,0,0,1-1.368.365,3.107,3.107,0,0,0,.116,1.126,1.765,1.765,0,0,0,.608.857c1.346-.093,2.524-.16,3.3-.224-.008-.112-.015-.168-.015-.168l.611.112A2.562,2.562,0,0,1-11.267,708.739Z" transform="translate(29.809 -689.868)" fill="#407bff"/>
        <circle id="Ellipse_25" data-name="Ellipse 25" cx="8.992" cy="8.992" r="8.992" transform="translate(0 12.716) rotate(-45)" fill="#d5305c" opacity="0.5"/>
      </g>
      <g id="Group_355" data-name="Group 355" transform="translate(9.74 46.623)">
        <circle id="Ellipse_26" data-name="Ellipse 26" cx="8.992" cy="8.992" r="8.992" transform="translate(0 17.502) rotate(-76.717)" fill="#407bff"/>
        <path id="Path_371" data-name="Path 371" d="M-361.58-67.959a8.453,8.453,0,0,1-2.155,5.648,8.469,8.469,0,0,1-6.326,2.833,8.433,8.433,0,0,1-4.992-1.625,8.473,8.473,0,0,1-3.486-6.856,8.477,8.477,0,0,1,8.477-8.477A8.48,8.48,0,0,1-361.58-67.959Z" transform="translate(380.877 78.775)" fill="#fff" opacity="0.2"/>
        <path id="Path_372" data-name="Path 372" d="M-348.917-48.516a8.469,8.469,0,0,1-6.326,2.833,8.433,8.433,0,0,1-4.992-1.625l3.363-1.036c.063.071.123.149.186.231.142-.026.287-.056.432-.082.268-.049.537-.086.809-.127a2.508,2.508,0,0,0,.336-1.04c-.283.015-.462.019-.462.019.093-.335-.406-1.033-.406-1.033l-.168.921a1.835,1.835,0,0,1-.567-.2c-.224-.142-.518-1.145-.518-1.145s-.582.977-.708,1.2-.466,0-.466,0a3.409,3.409,0,0,1,.056-1.719.585.585,0,0,0-.593-.85,3.028,3.028,0,0,1-.224.962,2.954,2.954,0,0,0-.227,1.256c0,.354.03.6-.224.6s-.283-.224-.257-.6-.365-.749-.138-1.059.056-1.159.056-1.159c-.142.593-.79.567-.9.988s.309,1.018.112,1.23-.537,0-.537,0,.283-.466.086-.738-.511-.406-.369-.958.4-.548.313-1.159-.369-.574,0-.8a3.017,3.017,0,0,0,.846-1.763c0-.466-.2-1.536.593-1.912s.988-.667.846-1.663.619-.924,1.581-.727c0,0,.477-.76.928-.619s.79.056.887-.2,1.342-.227,1.528,0a1.357,1.357,0,0,0,1.264.224c.406-.168,1.487.507,1.454.958s-.026.708.555.966.69.391.943,1.4-.168,1.417.339,1.808.451,1.95.481,2.43,0,1.014,0,1.014l-.142.041c-.142.037-.253-.522-.227-.936.03-.4-.857-.973-.932-1.021.019.041.179.384.283.656a4.935,4.935,0,0,1,.112,1.513c-.026.481.537.746.537.746l-.619.309a3.045,3.045,0,0,1-.317-1.558,1.135,1.135,0,0,0-.306-1.01v1.01s-.168.362-.421.842.2.623.268.876-.555.268-.555.268l-.116-.608-.212.608a3.316,3.316,0,0,1-1.223.373,2.124,2.124,0,0,0,.246.966c.2-.011.4-.022.6-.03.4,0,.813,0,1.211.019h.008C-350.091-48.6-349.417-48.553-348.917-48.516Z" transform="translate(366.059 64.98)" fill="#23035b"/>
        <circle id="Ellipse_27" data-name="Ellipse 27" cx="8.992" cy="8.992" r="8.992" transform="translate(0 17.502) rotate(-76.717)" fill="#fff" opacity="0.5"/>
      </g>
      <g id="Group_360" data-name="Group 360" transform="translate(40.867 1.205)">
        <circle id="Ellipse_28" data-name="Ellipse 28" cx="15.082" cy="15.082" r="15.082" transform="translate(0)" fill="#d5305c"/>
        <path id="Path_373" data-name="Path 373" d="M-115.334-439.6a14.506,14.506,0,0,1-3.034,8.89,14.227,14.227,0,0,1-1.734,1.888,13.6,13.6,0,0,1-1.873,1.443.224.224,0,0,1-.084.054,13.338,13.338,0,0,1-1.621.909,14.514,14.514,0,0,1-6.241,1.4,14.562,14.562,0,0,1-11.1-5.134l-.005,0a14.507,14.507,0,0,1-3.484-9.448,14.607,14.607,0,0,1,14.592-14.587A14.605,14.605,0,0,1-115.334-439.6Z" transform="translate(145.006 454.686)" fill="#fff" opacity="0.7"/>
        <g id="_Group_" data-name="&lt;Group&gt;" transform="translate(3.625 3.231)">
          <path id="Path_374" data-name="Path 374" d="M-5.844-340.431c.322-.714.55-.4,1.478.313a2.358,2.358,0,0,1,1.075,2.124c0,.76-.147,2.275-.147,2.275l2.411,2.7-1.091,1.645-2.8-3.161a4.626,4.626,0,0,1-1.613-2.215C-6.76-337.919-5.844-340.431-5.844-340.431Z" transform="translate(20.694 352.282)" fill="#ebb376"/>
          <g id="Group_356" data-name="Group 356" transform="translate(12.452 11.04)">
            <path id="Path_375" data-name="Path 375" d="M-17.869-344.086l1.975,3.546a.436.436,0,0,1-.051.5l-1.532,1.768a.435.435,0,0,1-.7-.059l-1.77-2.917Z" transform="translate(19.949 344.086)" fill="#263238"/>
            <path id="Path_376" data-name="Path 376" d="M-16.091-341.036l1.743,3.284-1.659,1.955-1.785-2.9Z" transform="translate(18.062 341.417)" fill="#407bff" opacity="0.4"/>
          </g>
          <path id="Path_377" data-name="Path 377" d="M23.708-268.154c.015.074.025.143.034.213-.039-.049-.079-.1-.118-.158A13.351,13.351,0,0,1,22-267.19c.129-1,.272-1.907.4-2.664.114-.692.217-1.26.3-1.66s.124-.633.133-.672v-.005a1.922,1.922,0,0,1,.519.168,6.422,6.422,0,0,1,2.229,2.426A13.6,13.6,0,0,1,23.708-268.154Z" transform="translate(-4.302 292.226)" fill="#407bff"/>
          <g id="Group_357" data-name="Group 357" transform="translate(0 19.973)">
            <path id="Path_378" data-name="Path 378" d="M-97.545-268.363c-.039-.049-.079-.1-.118-.158a13.342,13.342,0,0,1-1.621.909,14.515,14.515,0,0,1-6.241,1.4,14.562,14.562,0,0,1-11.1-5.134c.252-.059.509-.114.766-.163l.079-.015.153-.03c.667-.129,1.349-.242,2.031-.341a.018.018,0,0,1,.015-.005c.3-.045.6-.084.894-.123.4-.054.791-.1,1.181-.143a.618.618,0,0,1,.094-.01c.9-.1,1.809-.188,2.688-.252.291-.02.578-.04.86-.054h.005c.371-.025.736-.049,1.1-.069s.722-.035,1.067-.049l.43-.015c.43-.015.845-.025,1.24-.035,1.3-.03,2.441-.03,3.35-.02.212,0,.415,0,.6.01.341,0,.633.015.87.025.484.01.751.025.751.025.059.217.119.445.173.677v0c.252,1.013.484,2.14.7,3.35C-97.565-268.5-97.555-268.432-97.545-268.363Z" transform="translate(116.985 272.675)" fill="#407bff"/>
            <path id="Path_379" data-name="Path 379" d="M-100.033-268.374c-.039-.049-.079-.1-.118-.158a13.351,13.351,0,0,1-1.621.909,14.515,14.515,0,0,1-6.241,1.4,14.562,14.562,0,0,1-11.1-5.134l-.356.074c.114-.025.232-.054.351-.079.257-.054.514-.109.771-.158l.079-.015.153-.03c.667-.129,1.349-.242,2.031-.341a.018.018,0,0,1,.015-.005c.3-.045.6-.084.894-.124.4-.054.791-.1,1.181-.143a.607.607,0,0,1,.094-.01c.9-.1,1.809-.188,2.688-.252l.855-.059c.376-.025.741-.045,1.107-.064s.722-.035,1.067-.049l.43-.015c.425-.015.84-.03,1.235-.039,1.3-.025,2.446-.025,3.355-.02.217.005.415.005.6.01.336,0,.623.015.86.02.489.015.761.03.761.03v.005c.059.217.119.445.173.677v0c.252,1.013.484,2.14.7,3.35C-100.053-268.513-100.043-268.443-100.033-268.374Z" transform="translate(119.473 272.686)" opacity="0.2" style="mix-blend-mode: normal;isolation: isolate"/>
          </g>
          <path id="Path_380" data-name="Path 380" d="M-75.893-327.944c1.6,1.458,5.535.919,5.535.919s2.453-.672,1.938-1.438a2.732,2.732,0,0,1-2.434-1.776A4.2,4.2,0,0,1-71-331.89a8.734,8.734,0,0,1,.121-.922l-4.859-3.6C-75.1-334.035-74.322-329.666-75.893-327.944Z" transform="translate(81.345 348.411)" fill="#ebb376"/>
          <path id="Path_381" data-name="Path 381" d="M-65.682-318.129a4.12,4.12,0,0,0,3.762,3.883,4.2,4.2,0,0,1-.147-1.65Z" transform="translate(72.412 332.417)" opacity="0.2" style="mix-blend-mode: normal;isolation: isolate"/>
          <g id="Group_359" data-name="Group 359" transform="translate(3.514)">
            <path id="Path_382" data-name="Path 382" d="M-27.528-394.714s.69,4.538-1.719,6.283-2.409-6.7-2.409-6.7Z" transform="translate(39.128 399.787)" fill="#263238"/>
            <path id="Path_383" data-name="Path 383" d="M-74.984-390.352a4.119,4.119,0,0,0,4.729,1.6,4.588,4.588,0,0,0,2.618-2.132,4.644,4.644,0,0,0,.218-.436c1.185-2.773,1.562-7.624-1.37-9.441a4.459,4.459,0,0,0-6.149,1.4,4.435,4.435,0,0,0-.67,1.965C-75.968-394.16-76.332-392.271-74.984-390.352Z" transform="translate(77.872 405.315)" fill="#ebb376"/>
            <path id="Path_384" data-name="Path 384" d="M-35.624-358.211c-.062.256.056.5.23.526s.345-.161.392-.422-.06-.5-.23-.526S-35.577-358.476-35.624-358.211Z" transform="translate(42.615 367.856)" fill="#263238"/>
            <path id="Path_385" data-name="Path 385" d="M-11.968-354.171c-.062.256.06.5.23.526s.345-.161.392-.422-.06-.5-.23-.526S-11.925-354.419-11.968-354.171Z" transform="translate(21.918 364.321)" fill="#263238"/>
            <path id="Path_386" data-name="Path 386" d="M-22.551-351.455A9.454,9.454,0,0,0-21.683-349a1.537,1.537,0,0,1-1.3.02Z" transform="translate(31.539 361.573)" fill="#d58745"/>
            <path id="Path_387" data-name="Path 387" d="M-42.268-369.094a.163.163,0,0,0,.159-.035,1.256,1.256,0,0,1,1.072-.347.155.155,0,0,0,.188-.113.155.155,0,0,0-.113-.188h0a1.546,1.546,0,0,0-1.357.42.155.155,0,0,0-.013.219l0,0A.238.238,0,0,0-42.268-369.094Z" transform="translate(48.505 377.624)" fill="#263238"/>
            <path id="Path_388" data-name="Path 388" d="M-7.018-366.232a.15.15,0,0,0,.089.022.155.155,0,0,0,.108-.19v0a1.546,1.546,0,0,0-.959-1.053.155.155,0,0,0-.193.1h0a.159.159,0,0,0,.1.193h0a1.257,1.257,0,0,1,.747.846A.159.159,0,0,0-7.018-366.232Z" transform="translate(18.414 375.579)" fill="#263238"/>
            <path id="Path_389" data-name="Path 389" d="M-79.731-397.923v1.448a1.072,1.072,0,0,0-.7,1.274,3.916,3.916,0,0,1-1.606,3.665s.035-.524-.419-.454-.663,2.793.035,4.189a8.5,8.5,0,0,1-1.536-4.259c-.355-2.712-.172-4.913.493-5.864Z" transform="translate(85.04 402.228)" fill="#263238"/>
            <path id="Path_390" data-name="Path 390" d="M-88.558-362.994a3.1,3.1,0,0,0,1.489,1.846c.959.515,1.675-.286,1.61-1.316-.066-.915-.635-2.313-1.7-2.393A1.385,1.385,0,0,0-88.558-362.994Z" transform="translate(88.968 373.303)" fill="#ebb376"/>
            <path id="Path_391" data-name="Path 391" d="M-86.075-426.575a1.487,1.487,0,0,0,1.854.25s1.034.861,1.877.25a1.908,1.908,0,0,0,1.218.875.66.66,0,0,0,.759-.687s1.2.687,1.637.366-.241-1.607-.241-1.607.562-.3.2-1.336-2.032-.792-2.032-.792a2.631,2.631,0,0,0-1.1-1.968,1.132,1.132,0,0,0-1.859.241s-1.129-1.526-2.527-1.325-1.237,1.165-1.237,1.165-1.607-1-2.33,0,0,1.486,0,1.486-1.607.54-1.526,1.636.9.935.9.935-.462.522.582.964,2.025-.643,2.025-.643a.713.713,0,0,0,.345,1.044C-86.773-425.3-86.075-426.575-86.075-426.575Z" transform="translate(91.383 432.328)" fill="#263238"/>
            <g id="Group_358" data-name="Group 358" transform="translate(6.196 11.947)">
              <path id="Path_392" data-name="Path 392" d="M-39.568-335.223a9.262,9.262,0,0,0-.913.983c-.069-.038-.139-.076-.206-.117-.927-.537-1.179-1.092-1.178-1.545a1.382,1.382,0,0,1,.17-.631,1.338,1.338,0,0,1,.214-.307,5.048,5.048,0,0,0,1.6,1.43C-39.692-335.29-39.568-335.223-39.568-335.223Z" transform="translate(41.864 336.841)" fill="#263238"/>
              <path id="Path_393" data-name="Path 393" d="M-38.693-335.411l-.277.283c-.871-.508-1.417-.983-1.537-1.405a1.338,1.338,0,0,1,.214-.307A5.048,5.048,0,0,0-38.693-335.411Z" transform="translate(40.676 336.841)" fill="#fff"/>
              <path id="Path_394" data-name="Path 394" d="M-40.686-327.8c-.927-.537-1.179-1.092-1.178-1.545a3.442,3.442,0,0,1,.911.8A1.291,1.291,0,0,1-40.686-327.8Z" transform="translate(41.864 330.28)" fill="#de5753"/>
            </g>
          </g>
          <path id="Path_395" data-name="Path 395" d="M-101.131-289.947s-5.668-3.851-7.473-4.067-1.483,2.034-1.483,2.034-1.392,0-.857,1.713,8.235,2.659,11.079,1.811S-95.33-290.9-95.8-292.4s-1.786-.216-1.786-.216-.765-1.418-1.866-1.086S-101.131-289.947-101.131-289.947Z" transform="translate(112.118 311.332)" fill="#407bff"/>
          <path id="Path_396" data-name="Path 396" d="M17.675-294.36a14.223,14.223,0,0,1-1.734,1.888,13.6,13.6,0,0,1-1.873,1.443c.015.074.025.143.034.213-.039-.049-.079-.1-.118-.158-.376-.5-.81-1.117-1.221-1.754a10.574,10.574,0,0,1-1.191-2.382v0a2.516,2.516,0,0,1-.119-.613l-.469-.652.153-.178,1.245-1.463.272-.316.534.7s.687-.247,2.886,1.645A16.1,16.1,0,0,1,17.675-294.36Z" transform="translate(5.338 315.102)" fill="#407bff"/>
        </g>
      </g>
      <g id="Group_364" data-name="Group 364" transform="translate(0 94.874)">
        <circle id="Ellipse_29" data-name="Ellipse 29" cx="14.26" cy="14.26" r="14.26" transform="translate(0 0)" fill="#d5305c"/>
        <path id="Path_397" data-name="Path 397" d="M-443.589,308.218a13.66,13.66,0,0,1-3.094,8.682,13.826,13.826,0,0,1-1.952,1.962c-.227.188-.465.371-.712.544a13.4,13.4,0,0,1-2.135,1.26,13.689,13.689,0,0,1-5.875,1.319,13.6,13.6,0,0,1-6.923-1.878,12.832,12.832,0,0,1-1.5-1.013h0a.9.9,0,0,1-.074-.064,12.207,12.207,0,0,1-1.557-1.433,13.668,13.668,0,0,1-3.706-9.379,13.78,13.78,0,0,1,13.762-13.767A13.781,13.781,0,0,1-443.589,308.218Z" transform="translate(471.614 -293.959)" fill="#fff" opacity="0.7"/>
        <g id="Group_363" data-name="Group 363" transform="translate(4.202 3.605)">
          <path id="Path_398" data-name="Path 398" d="M-411.834,342.26c-.227.188-.465.371-.712.544a13.39,13.39,0,0,1-2.135,1.26,13.688,13.688,0,0,1-5.875,1.319,13.6,13.6,0,0,1-6.923-1.878,12.832,12.832,0,0,1-1.5-1.013h0a.877.877,0,0,1-.074-.064c.01-.035.015-.059.025-.094v-.005c.119-.445.232-.909.336-1.394.148-.652.282-1.329.4-2.036a30.1,30.1,0,0,0,.415-5.821c-.242-7.289,1.082-9.962,4.062-11.39.133-.064.272-.133.42-.193a3.993,3.993,0,0,1,2.1-.262h0a9.519,9.519,0,0,1,4.764,2.723,16.779,16.779,0,0,1,1.166,1.972,32.862,32.862,0,0,1,3.424,12.571v0A37.06,37.06,0,0,1-411.834,342.26Z" transform="translate(430.612 -320.961)" fill="#263238"/>
          <path id="Path_399" data-name="Path 399" d="M-422.822,452.421v0a4.12,4.12,0,0,0-1.438-.751s-2.905-.282-5.431-.262c-.277.01-.558.025-.835.039-1.295.069-2.589.2-3.869.4-.375.054-.751.114-1.122.183a36.876,36.876,0,0,0-3.662.8c-.578.153-1.151.321-1.725.5a4.707,4.707,0,0,0-.593,1.591,12.2,12.2,0,0,0,1.557,1.433.888.888,0,0,0,.074.064h0a12.843,12.843,0,0,0,1.5,1.013,13.6,13.6,0,0,0,6.923,1.878,13.688,13.688,0,0,0,5.875-1.319,13.387,13.387,0,0,0,2.135-1.26c.247-.173.484-.356.712-.544a13.818,13.818,0,0,0,1.952-1.962A18.885,18.885,0,0,0-422.822,452.421Z" transform="translate(441.496 -434.878)" fill="#407bff"/>
          <path id="Path_400" data-name="Path 400" d="M-422.822,452.421v0a4.12,4.12,0,0,0-1.438-.751s-2.905-.282-5.431-.262c-.277.01-.558.025-.835.039-1.295.069-2.589.2-3.869.4-.375.054-.751.114-1.122.183a36.876,36.876,0,0,0-3.662.8c-.578.153-1.151.321-1.725.5a4.707,4.707,0,0,0-.593,1.591,12.2,12.2,0,0,0,1.557,1.433.888.888,0,0,0,.074.064h0a12.843,12.843,0,0,0,1.5,1.013,13.6,13.6,0,0,0,6.923,1.878,13.688,13.688,0,0,0,5.875-1.319,13.387,13.387,0,0,0,2.135-1.26c.247-.173.484-.356.712-.544a13.818,13.818,0,0,0,1.952-1.962A18.885,18.885,0,0,0-422.822,452.421Z" transform="translate(441.496 -434.878)" fill="#fff" opacity="0.2" style="mix-blend-mode: normal;isolation: isolate"/>
          <path id="Path_401" data-name="Path 401" d="M-384.786,425.311c-3.2-.411-4.162-1.779-4.162-1.779,1.308-1.232,1.071-3.051.737-4.186a6.5,6.5,0,0,0-.394-1.047l3.852.721a11.075,11.075,0,0,0-.149,1.622,4.859,4.859,0,0,0,.109,1.192c.262,1.151.918,1.167.918,1.167C-383.2,424.265-384.786,425.311-384.786,425.311Z" transform="translate(395.522 -405.916)" fill="#eec1bb"/>
          <path id="Path_402" data-name="Path 402" d="M-382.511,420.642a4.86,4.86,0,0,0,.109,1.192,5.317,5.317,0,0,1-3.417-2.488,6.492,6.492,0,0,0-.394-1.047l3.852.721A11.067,11.067,0,0,0-382.511,420.642Z" transform="translate(393.131 -405.916)" opacity="0.2" style="mix-blend-mode: normal;isolation: isolate"/>
          <g id="Group_362" data-name="Group 362" transform="translate(3.562)">
            <path id="Path_403" data-name="Path 403" d="M-393.269,338.787c3.35.124,4.362,1.958,4.479,5.419.147,4.325-.924,7.355-5.078,6.278C-399.51,349.022-398.832,338.58-393.269,338.787Z" transform="translate(399.691 -336.35)" fill="#eec1bb"/>
            <path id="Path_404" data-name="Path 404" d="M-343.15,379.981a7.084,7.084,0,0,0,.923,1.425.921.921,0,0,1-.9.346Z" transform="translate(351.893 -372.393)" fill="#d4827d"/>
            <path id="Path_405" data-name="Path 405" d="M-372.026,357.961a.174.174,0,0,1-.115-.043.175.175,0,0,1-.016-.247,1.907,1.907,0,0,1,1.632-.51.174.174,0,0,1,.143.2.174.174,0,0,1-.2.144,1.583,1.583,0,0,0-1.311.4A.174.174,0,0,1-372.026,357.961Z" transform="translate(377.309 -352.409)" fill="#263238"/>
            <path id="Path_406" data-name="Path 406" d="M-339.432,357.295a.176.176,0,0,1-.1-.033,1.4,1.4,0,0,0-1.169-.3.175.175,0,0,1-.219-.113.174.174,0,0,1,.111-.219,1.726,1.726,0,0,1,1.482.349.175.175,0,0,1,.04.244A.176.176,0,0,1-339.432,357.295Z" transform="translate(349.951 -351.922)" fill="#263238"/>
            <g id="Group_361" data-name="Group 361" transform="translate(5.967 9.95)">
              <path id="Path_407" data-name="Path 407" d="M-363.067,399.567a8.48,8.48,0,0,0-.434,1.149c-.072-.008-.144-.016-.215-.028-.971-.135-1.378-.518-1.533-.9a1.264,1.264,0,0,1-.074-.594,1.227,1.227,0,0,1,.075-.334,4.623,4.623,0,0,0,1.851.659C-363.2,399.553-363.067,399.567-363.067,399.567Z" transform="translate(365.331 -398.857)" fill="#263238"/>
              <path id="Path_408" data-name="Path 408" d="M-363.346,399.516l-.137.335a2.918,2.918,0,0,1-1.789-.66,1.226,1.226,0,0,1,.075-.334A4.623,4.623,0,0,0-363.346,399.516Z" transform="translate(365.279 -398.857)" fill="#fff"/>
              <path id="Path_409" data-name="Path 409" d="M-363.144,407.178c-.971-.135-1.378-.518-1.533-.9a3.156,3.156,0,0,1,1.049.363A1.182,1.182,0,0,1-363.144,407.178Z" transform="translate(364.759 -405.348)" fill="#de5753"/>
            </g>
            <path id="Path_410" data-name="Path 410" d="M-403.148,334.882s1.668-2.694,1.51-4.828c0,0,6.739-2.466,6.817,4.284,0,0,.871-5.959-4.883-6.306s-6.042,8.079-3.161,10.7C-402.865,338.731-404.181,336.567-403.148,334.882Z" transform="translate(405.7 -326.934)" fill="#263238"/>
            <path id="Path_411" data-name="Path 411" d="M-405.352,378.835a1.471,1.471,0,0,0-1.532-1.4c-1.042.075-1.616,2.188.947,2.8C-405.569,380.316-405.347,379.962-405.352,378.835Z" transform="translate(408.424 -370.16)" fill="#eec1bb"/>
            <path id="Path_412" data-name="Path 412" d="M-408.486,319.551c1.811-.5,6.642-.57,7.782,4.428l-.671.335A10.7,10.7,0,0,0-405,323.241a8.3,8.3,0,0,0-.939-1.342,7.462,7.462,0,0,1,0,1.275s-3.151.462-4.562,1.744c-2.214,2.013-2.348,3.287-2.348,3.287S-414.383,321.189-408.486,319.551Z" transform="translate(413.027 -319.328)" fill="#263238"/>
            <path id="Path_413" data-name="Path 413" d="M-371.2,324.453a.121.121,0,0,1-.115-.083,5.842,5.842,0,0,0-2.914-3.6,7.986,7.986,0,0,0-5.452-.216.12.12,0,0,1-.154-.074.121.121,0,0,1,.075-.153,8.244,8.244,0,0,1,5.638.227,6.075,6.075,0,0,1,3.037,3.74.12.12,0,0,1-.076.152A.116.116,0,0,1-371.2,324.453Z" transform="translate(383.995 -319.849)" fill="#263238"/>
            <path id="Path_414" data-name="Path 414" d="M-366.814,375.545s.784-.667,1.156.23A2.343,2.343,0,0,0-366.814,375.545Z" transform="translate(372.596 -368.303)" fill="#263238"/>
            <path id="Path_415" data-name="Path 415" d="M-337.034,377.708s.434-.909,1.012-.266A2.249,2.249,0,0,0-337.034,377.708Z" transform="translate(346.542 -369.97)" fill="#263238"/>
          </g>
        </g>
      </g>
      <g id="Group_368" data-name="Group 368" transform="translate(126.851 108.639)">
        <circle id="Ellipse_30" data-name="Ellipse 30" cx="17.673" cy="17.673" r="17.673" transform="translate(0 24.993) rotate(-45)" fill="#d5305c"/>
        <path id="Path_416" data-name="Path 416" d="M635.612,480.174a17.018,17.018,0,0,1-1.833,7.714c-.232.464-.489.914-.761,1.354-.212.341-.435.677-.677,1a17.2,17.2,0,0,1-3.583,3.652c-.311.237-.633.46-.964.677a17.151,17.151,0,0,1-16.46,1.245c-.277-.128-.554-.262-.825-.4v0a17.383,17.383,0,0,1-7.19-7.071c-.227-.425-.44-.865-.633-1.309h0a17.179,17.179,0,1,1,32.93-6.859Z" transform="translate(-593.44 -455.183)" fill="#fff" opacity="0.7"/>
        <g id="_Group_2" data-name="&lt;Group&gt;" transform="translate(9.246 10.799)">
          <path id="Path_417" data-name="Path 417" d="M624.3,556.553a8.932,8.932,0,0,1-1.062,1.285l-1.482,7.012-.969,4.576a17.29,17.29,0,0,1-3.029-4.027c.119-.371.247-.756.371-1.146,1.048-3.251,2.253-7.017,2.342-7.388.158-.662-.42-3.909-.287-4.507s3.1-1.295,3.741-1.285S624.522,556.133,624.3,556.553Z" transform="translate(-617.13 -543.039)" fill="#9f5b53"/>
          <path id="Path_418" data-name="Path 418" d="M622.2,655.3a.084.084,0,0,1-.005.025l-.622,6.389-.218,2.184c-.277-.129-.553-.262-.825-.4v0a17.383,17.383,0,0,1-7.19-7.071c-.227-.425-.44-.865-.633-1.309l1,.163,3.627.6.781.129-.914,4.433S620.529,655.8,622.2,655.3Z" transform="translate(-612.707 -634.057)" fill="#407bff"/>
          <path id="Path_419" data-name="Path 419" d="M622.2,655.3a.084.084,0,0,1-.005.025l-.622,6.389-.218,2.184c-.277-.129-.553-.262-.825-.4v0a17.383,17.383,0,0,1-7.19-7.071c-.227-.425-.44-.865-.633-1.309l1,.163,3.627.6.781.129-.914,4.433S620.529,655.8,622.2,655.3Z" transform="translate(-612.707 -634.057)" opacity="0.3"/>
          <g id="Group_365" data-name="Group 365" transform="translate(7.822 19.912)">
            <path id="Path_420" data-name="Path 420" d="M698.5,648c-.232.464-.489.914-.761,1.354-.212.341-.435.677-.677,1a17.2,17.2,0,0,1-3.583,3.652c-.311.237-.633.46-.964.677a17.151,17.151,0,0,1-16.46,1.245c-.277-.129-.554-.262-.825-.4v0a56.491,56.491,0,0,1,1.665-8.168.085.085,0,0,0,.005-.025,35.686,35.686,0,0,1,5.436-1.107c.03,0,.054-.005.084-.005h.005a68.8,68.8,0,0,1,7.951-.168h.025a37.77,37.77,0,0,1,5.48.544A15.03,15.03,0,0,1,698.5,648Z" transform="translate(-675.23 -646.006)" fill="#407bff"/>
            <path id="Path_421" data-name="Path 421" d="M698.5,648c-.232.464-.489.914-.761,1.354-.212.341-.435.677-.677,1a17.2,17.2,0,0,1-3.583,3.652c-.311.237-.633.46-.964.677a17.151,17.151,0,0,1-16.46,1.245c-.277-.129-.554-.262-.825-.4v0a56.491,56.491,0,0,1,1.665-8.168.085.085,0,0,0,.005-.025,35.686,35.686,0,0,1,5.436-1.107c.03,0,.054-.005.084-.005h.005a68.8,68.8,0,0,1,7.951-.168h.025a37.77,37.77,0,0,1,5.48.544A15.03,15.03,0,0,1,698.5,648Z" transform="translate(-675.23 -646.006)" opacity="0.3"/>
            <path id="Path_422" data-name="Path 422" d="M693.479,666.222c-.311.237-.633.46-.964.677a17.15,17.15,0,0,1-16.46,1.245c-.277-.128-.554-.262-.825-.4v0c.025-.143.045-.287.064-.425a15.983,15.983,0,0,1,.978-1.354,46.109,46.109,0,0,1,5.52-5.638,3.142,3.142,0,0,0,1.922,1c1.621.316,3.474-.44,5.011-1.354a37.639,37.639,0,0,1,2.693,2.97,15.665,15.665,0,0,1,1.823,2.738Q693.375,665.955,693.479,666.222Z" transform="translate(-675.23 -658.219)" fill="#fff" opacity="0.8"/>
          </g>
          <path id="Path_423" data-name="Path 423" d="M738.829,583.189a8.334,8.334,0,0,1-5.851,2.655c-3.328.147-2.215-2.483-2.215-2.483a3.185,3.185,0,0,0,2.24-1.588,4.639,4.639,0,0,0,.03-3.09l-.061-.228,4.86-4.329C737.383,576.731,736.978,581.495,738.829,583.189Z" transform="translate(-715.836 -563.207)" fill="#9f5b53"/>
          <path id="Path_424" data-name="Path 424" d="M753.95,588.235c-.258,1.669-2.286,3.313-4.031,3.829a4.64,4.64,0,0,0,.03-3.09l4.026-3.085A6.313,6.313,0,0,1,753.95,588.235Z" transform="translate(-732.752 -573.499)" opacity="0.2" style="mix-blend-mode: normal;isolation: isolate"/>
          <g id="Group_367" data-name="Group 367" transform="translate(12.712)">
            <path id="Path_425" data-name="Path 425" d="M728.379,518.338c1.154,1.3.109,2.745-3.688,4.45-.857-1.99-.246-5.272.98-5.823S727.372,517.208,728.379,518.338Z" transform="translate(-723.043 -513.041)" fill="#263238"/>
            <path id="Path_426" data-name="Path 426" d="M724.983,518.51c-1.022,3.371-1.45,5.393-3.591,6.741a4.68,4.68,0,0,1-7.083-4.152c0-3.241,1.667-8.213,5.336-8.777a4.8,4.8,0,0,1,5.337,6.189Z" transform="translate(-714.31 -509.082)" fill="#9f5b53"/>
            <path id="Path_427" data-name="Path 427" d="M752.267,555.907c-.066.278-.268.469-.45.425s-.274-.3-.208-.579.264-.469.446-.429S752.313,555.629,752.267,555.907Z" transform="translate(-746.924 -546.753)" fill="#263238"/>
            <path id="Path_428" data-name="Path 428" d="M726.938,549.936c-.066.278-.268.469-.45.425s-.278-.3-.211-.584.268-.469.45-.425S727,549.657,726.938,549.936Z" transform="translate(-724.761 -541.527)" fill="#263238"/>
            <path id="Path_429" data-name="Path 429" d="M726.458,557.066a10.218,10.218,0,0,1-1.9,2.066,1.652,1.652,0,0,0,1.273.564Z" transform="translate(-723.279 -548.282)" fill="#892b29"/>
            <path id="Path_430" data-name="Path 430" d="M757.649,545.2a.166.166,0,0,0,.109,0,.17.17,0,0,0,.089-.221,1.661,1.661,0,0,0-1.172-.991.162.162,0,0,0-.191.126s0,.008,0,.012a.174.174,0,0,0,.138.193h0a1.325,1.325,0,0,1,.917.792A.174.174,0,0,0,757.649,545.2Z" transform="translate(-751.205 -536.841)" fill="#263238"/>
            <path id="Path_431" data-name="Path 431" d="M721.33,536.4a.174.174,0,0,0,.171-.058,1.337,1.337,0,0,1,1.1-.522.169.169,0,0,0,.039-.336,1.677,1.677,0,0,0-1.394.645.166.166,0,0,0,.022.234l0,0A.193.193,0,0,0,721.33,536.4Z" transform="translate(-720.341 -529.396)" fill="#263238"/>
            <path id="Path_432" data-name="Path 432" d="M784.517,534.512c-1.729.169-1.942,1.939-.315,5.767,1.982-.877,3.767-3.7,3.236-4.937S786.027,534.367,784.517,534.512Z" transform="translate(-774.488 -528.439)" fill="#263238"/>
            <path id="Path_433" data-name="Path 433" d="M783.2,570.982a3.35,3.35,0,0,1-2.012,1.582c-1.132.306-1.688-.709-1.367-1.773.29-.959,1.231-2.273,2.362-2.11A1.493,1.493,0,0,1,783.2,570.982Z" transform="translate(-771.544 -558.432)" fill="#9f5b53"/>
            <path id="Path_434" data-name="Path 434" d="M723.255,491.505s-.362,3.545,2.87,4.6,4.459-.8,4.459-.8a6.342,6.342,0,0,1-.826-.139,3.53,3.53,0,0,0,.832-3.261c-.552-1.848-3.4-4.353-6.056-4.114a5.972,5.972,0,0,0-4.717-.729c-2.618.743-2.949,3.729-2.949,3.729s.346-1.777,1.533-2c0,0-2.235,3.271-.508,4.735C717.893,493.535,718.994,490.037,723.255,491.505Z" transform="translate(-716.548 -486.857)" fill="#263238"/>
            <g id="Group_366" data-name="Group 366" transform="translate(1.949 11.576)">
              <path id="Path_435" data-name="Path 435" d="M729.888,580.5a9.473,9.473,0,0,1,.656,1.205c.078-.02.157-.04.234-.064,1.055-.3,1.445-.785,1.559-1.234a1.415,1.415,0,0,0-.009-.669,1.368,1.368,0,0,0-.134-.359,5.166,5.166,0,0,1-1.948,1.013C730.028,580.469,729.888,580.5,729.888,580.5Z" transform="translate(-729.888 -579.384)" fill="#263238"/>
              <path id="Path_436" data-name="Path 436" d="M732.749,580.4l.2.35a3.259,3.259,0,0,0,1.879-1,1.365,1.365,0,0,0-.134-.359A5.165,5.165,0,0,1,732.749,580.4Z" transform="translate(-732.391 -579.384)" fill="#fff"/>
              <path id="Path_437" data-name="Path 437" d="M737,588.831c1.055-.3,1.445-.785,1.559-1.234a3.523,3.523,0,0,0-1.105.563A1.319,1.319,0,0,0,737,588.831Z" transform="translate(-736.113 -586.569)" fill="#de5753"/>
            </g>
          </g>
        </g>
      </g>
    </g>
    <g id="Speech_bubble" data-name="Speech bubble" transform="translate(-459.237 -474.353)">
      <g id="Group_369" data-name="Group 369" transform="translate(0 0)">
        <rect id="Rectangle_104" data-name="Rectangle 104" width="10.426" height="10.426" rx="3.692" transform="matrix(0.999, 0.048, -0.048, 0.999, 0.498, 0)" fill="#d5305c"/>
        <path id="Path_438" data-name="Path 438" d="M276.081-129.288c-.678-1.23-2.106-.838-2.876.055-.682-.963-2.065-1.489-2.858-.33-1.336,1.955,1.13,3.942,2.3,4.731.133.09.243.165.334.224.1-.05.213-.113.354-.191C274.579-125.471,277.224-127.215,276.081-129.288Z" transform="translate(-267.659 132.831)" fill="#fff" opacity="0.6" style="mix-blend-mode: normal;isolation: isolate"/>
        <path id="Path_439" data-name="Path 439" d="M270.119-73.719A8.079,8.079,0,0,1,265.5-69.83s1.739-.9,1.764-4.156Z" transform="translate(-263.754 83.629)" fill="#407bff"/>
      </g>
    </g>
    <g id="Character" transform="translate(-490.588 -463.802)">
      <g id="Group_379" data-name="Group 379" transform="translate(0 0)">
        <path id="Path_440" data-name="Path 440" d="M365.906,103.439s3.923-3.925,5.187-6.72a3.925,3.925,0,0,1-.029-2.371c.448-.808,3.061-3.13,3.758-2.638s1.707,2.44,1.29,3.256-2.98,2.488-2.98,2.488-3.176,6.37-5.143,7.808S365.906,103.439,365.906,103.439Z" transform="translate(-320.25 -71.828)" fill="#ebb376"/>
        <path id="Path_441" data-name="Path 441" d="M283.7,91.642c2.286.3,4.892,11.375,6.717,12.418s6.559-5.08,6.559-5.08l2.172,2.478s-6.256,8.717-8.732,7.94-7.133-9.378-7.133-9.378Z" transform="translate(-247.963 -71.828)" fill="#263238"/>
        <path id="Path_442" data-name="Path 442" d="M283.7,91.642c2.286.3,4.892,11.375,6.717,12.418s6.559-5.08,6.559-5.08l2.172,2.478s-6.256,8.717-8.732,7.94-7.133-9.378-7.133-9.378Z" transform="translate(-247.963 -71.828)" fill="#fff" opacity="0.05" style="mix-blend-mode: normal;isolation: isolate"/>
        <path id="Path_443" data-name="Path 443" d="M360,848.761l-3,.53-1.231-4.093-1.123-3.756,3.461-1.209,1,4.514Z" transform="translate(-310.395 -726.761)" fill="#ebb376"/>
        <path id="Path_444" data-name="Path 444" d="M368.042,906.467c-.051-.332,4.061-.791,4.061-.791s2.95,2.1,5.481,2.245,1.43,1.84-1.285,2.32l-6.717,1.186C367.651,911.768,368.567,909.911,368.042,906.467Z" transform="translate(-322.118 -784.015)" fill="#263238"/>
        <g id="Group_370" data-name="Group 370" transform="translate(50.452 120.501)">
          <path id="Path_445" data-name="Path 445" d="M405.787,898.247a6.406,6.406,0,0,1-1.473-.241.1.1,0,0,1-.036-.017h0a.111.111,0,0,1-.028-.03h0a.1.1,0,0,1-.012-.026h0a.111.111,0,0,1,0-.049c.008-.047.182-1.053.692-1.379a.636.636,0,0,1,.529-.079c.2.055.311.154.328.295.025.216-.227.481-.526.716a1.7,1.7,0,0,1,.929-.062.444.444,0,0,1,.266.237.4.4,0,0,1-.022.451A.864.864,0,0,1,405.787,898.247Zm-1.113-.375c.644.148,1.428.241,1.592.049.014-.017.058-.067-.011-.22a.228.228,0,0,0-.141-.121A2.7,2.7,0,0,0,404.674,897.872Zm.6-1.255a.416.416,0,0,0-.228.07,1.819,1.819,0,0,0-.543,1c.562-.335,1.088-.754,1.066-.939-.007-.058-.109-.094-.169-.11A.469.469,0,0,0,405.274,896.618Z" transform="translate(-404.234 -896.4)" fill="#407bff"/>
        </g>
        <path id="Path_446" data-name="Path 446" d="M359.174,844.985l-3.344.44-1.13-3.8,3.457-1.229Z" transform="translate(-310.446 -726.904)" opacity="0.2" style="mix-blend-mode: normal;isolation: isolate"/>
        <path id="Path_447" data-name="Path 447" d="M209.307,857.647H206.26l-.5-4.244-.453-3.894,3.618-.589.2,4.62Z" transform="translate(-179.743 -734.36)" fill="#ebb376"/>
        <path id="Path_448" data-name="Path 448" d="M204.542,915.916c.008-.336,4.136-.073,4.136-.073s2.54,2.583,5.007,3.164,1.089,2.061-1.669,2.061H205.2C203.236,921.068,204.461,919.4,204.542,915.916Z" transform="translate(-178.679 -792.824)" fill="#263238"/>
        <g id="Group_371" data-name="Group 371" transform="translate(30.399 122.129)">
          <path id="Path_449" data-name="Path 449" d="M245.73,911.359a5.175,5.175,0,0,1-1.711-.523.1.1,0,0,1-.037-.028h0a.141.141,0,0,1-.015-.023.11.11,0,0,1,0-.084c.015-.041.361-1,.921-1.237a.636.636,0,0,1,.534.015c.188.089.279.206.271.347-.012.217-.307.435-.642.614a1.688,1.688,0,0,1,.926.1.442.442,0,0,1,.22.28.4.4,0,0,1-.1.44A.57.57,0,0,1,245.73,911.359Zm-1.333-.592c.608.257,1.365.485,1.559.325.017-.014.068-.056.027-.218a.231.231,0,0,0-.118-.144A2.7,2.7,0,0,0,244.4,910.767Zm.739-1.137a.435.435,0,0,0-.167.035,1.818,1.818,0,0,0-.709.888c.612-.232,1.2-.554,1.213-.739,0-.058-.091-.111-.147-.138A.44.44,0,0,0,245.135,909.63Z" transform="translate(-243.957 -909.412)" fill="#407bff"/>
        </g>
        <path id="Path_450" data-name="Path 450" d="M209.129,853.781l-3.37-.148-.453-3.936,3.618-.61Z" transform="translate(-179.743 -734.506)" opacity="0.2" style="mix-blend-mode: normal;isolation: isolate"/>
        <g id="Group_372" data-name="Group 372" transform="translate(18.546 43.074)">
          <path id="Path_451" data-name="Path 451" d="M179.683,350.175l-4.934.87c-4.979-12.405-8.521-22.76-11.022-31.353-1.347-4.637-2.4-8.76-3.2-12.419l.225,13.5v30.678h-5.011c-12.189-58.129-3.551-71.413-3.551-71.413l14.582-2.492a65.915,65.915,0,0,1,1.221,8.161l.658,4.822,5.7,29.434Z" transform="translate(-149.218 -277.55)" fill="#b03bd9"/>
        </g>
        <path id="Path_452" data-name="Path 452" d="M347.1,845.911l6.12-2.029-.083,2.6-5.062,1.614Z" transform="translate(-303.799 -729.952)" fill="#407bff"/>
        <path id="Path_453" data-name="Path 453" d="M196.107,855.832l6.38-.934-.534,2.549-5.265.71Z" transform="translate(-171.695 -739.59)" fill="#407bff"/>
        <path id="Path_454" data-name="Path 454" d="M253.395,3.952a.124.124,0,0,1-.064-.018c-1.86-1.124-3.519-5.251-3.589-5.426a.124.124,0,0,1,.069-.161.124.124,0,0,1,.161.069c.017.042,1.7,4.225,3.487,5.306a.124.124,0,0,1-.064.229Z" transform="translate(-218.612 9.802)" fill="#263238"/>
        <path id="Path_455" data-name="Path 455" d="M138.547-63.817s.725-2.465,5.567-2.887,7.251,4.35,6.109,7.9c0,0,1.018,4.827,2.972,6.242,0,0-9.317,4.211-14.021,4.235-1.047.005-3.284-5.192-3.573-8.938C135.323-60.877,136.412-63.7,138.547-63.817Z" transform="translate(-118.722 66.729)" fill="#263238"/>
        <path id="Path_456" data-name="Path 456" d="M172.953,269.3v2.177l14.87-1.14v-2.575Z" transform="translate(-151.438 -225.91)" fill="#263238"/>
        <path id="Path_457" data-name="Path 457" d="M172.953,269.3v2.177l14.87-1.14v-2.575Z" transform="translate(-151.438 -225.91)" fill="#fff" opacity="0.3" style="mix-blend-mode: normal;isolation: isolate"/>
        <rect id="Rectangle_105" data-name="Rectangle 105" width="3.265" height="2.476" transform="translate(29.696 42.671) rotate(-5.118)" fill="#fff"/>
        <g id="Group_373" data-name="Group 373" transform="translate(25.77 42.471)">
          <rect id="Rectangle_106" data-name="Rectangle 106" width="0.738" height="3.762" transform="translate(0 0.038) rotate(-2.927)" fill="#23035b"/>
        </g>
        <g id="Group_374" data-name="Group 374" transform="translate(34.854 41.474)">
          <rect id="Rectangle_107" data-name="Rectangle 107" width="0.738" height="3.762" transform="translate(0 0.038) rotate(-2.919)" fill="#23035b"/>
        </g>
        <path id="Path_458" data-name="Path 458" d="M148.246,111.821l-14.874,1.285c-.143-2.248-.287-4.176-.628-6.335-.217-1.384-.519-2.866-.954-4.591-.336-1.349-.756-2.851-1.29-4.571-.025-.094-.054-.188-.084-.282-.306-.983-2.486-.232-2.683-1.413-.86-5.258,4.813-5.643,6.9-5.989a47.338,47.338,0,0,1,6.681-.7c2.891-.025,6.216.3,6.216.3s.475.114.771,3.182A131.287,131.287,0,0,1,148.246,111.821Z" transform="translate(-111.799 -69.711)" fill="#263238"/>
        <path id="Path_459" data-name="Path 459" d="M193.771,59.309C190.106,58.84,189,57.274,189,57.274c2.326-2.194.394-6,.394-6l4.412.824a12.965,12.965,0,0,0-.172,1.858c-.033,2.678,1.178,2.7,1.178,2.7C195.589,58.113,193.771,59.309,193.771,59.309Z" transform="translate(-165.481 -36.513)" fill="#ebb376"/>
        <path id="Path_460" data-name="Path 460" d="M196.562,52.1a12.967,12.967,0,0,0-.172,1.858,4.909,4.909,0,0,1-4.24-2.681Z" transform="translate(-168.233 -36.513)" opacity="0.2" style="mix-blend-mode: normal;isolation: isolate"/>
        <g id="Group_377" data-name="Group 377" transform="translate(19.966 1.716)">
          <path id="Path_461" data-name="Path 461" d="M174.973-42.32c3.746-.849,5.406.884,6.555,4.682,1.436,4.747,1.142,8.417-3.775,8.447C171.074-29.149,168.751-40.911,174.973-42.32Z" transform="translate(-169.992 43.844)" fill="#ebb376"/>
          <path id="Path_462" data-name="Path 462" d="M233.035-.7A8.124,8.124,0,0,0,234.477.6a1.056,1.056,0,0,1-.892.647Z" transform="translate(-223.968 7.25)" fill="#d58745"/>
          <g id="Group_375" data-name="Group 375" transform="translate(5.94 5.904)">
            <path id="Path_463" data-name="Path 463" d="M208.808-2.283c.077.306-.026.6-.23.647s-.432-.155-.509-.461.026-.6.23-.647S208.731-2.589,208.808-2.283Z" transform="translate(-208.043 3.137)" fill="#263238"/>
            <path id="Path_464" data-name="Path 464" d="M209.437-5.4l.6-.428S209.846-5.182,209.437-5.4Z" transform="translate(-209.263 5.825)" fill="#263238"/>
          </g>
          <g id="Group_376" data-name="Group 376" transform="translate(9.729 4.885)">
            <path id="Path_465" data-name="Path 465" d="M239.094-10.433c.077.306-.026.6-.23.647s-.432-.155-.509-.461.026-.6.23-.647S239.017-10.739,239.094-10.433Z" transform="translate(-238.33 11.287)" fill="#263238"/>
            <path id="Path_466" data-name="Path 466" d="M239.723-13.547l.6-.428S240.133-13.332,239.723-13.547Z" transform="translate(-239.549 13.975)" fill="#263238"/>
          </g>
          <path id="Path_467" data-name="Path 467" d="M195.957-19.751a.177.177,0,0,1-.079-.019.179.179,0,0,1-.081-.24,2.161,2.161,0,0,1,1.64-1.033.18.18,0,0,1,.195.161.179.179,0,0,1-.161.2,1.832,1.832,0,0,0-1.353.836A.179.179,0,0,1,195.957-19.751Z" transform="translate(-191.373 25.044)" fill="#263238"/>
          <path id="Path_468" data-name="Path 468" d="M229.4-28.172a.179.179,0,0,1-.151-.082.179.179,0,0,1,.053-.246,1.963,1.963,0,0,1,1.724-.047.179.179,0,0,1,.1.231.178.178,0,0,1-.231.1,1.616,1.616,0,0,0-1.4.014A.181.181,0,0,1,229.4-28.172Z" transform="translate(-220.629 31.755)" fill="#263238"/>
          <path id="Path_469" data-name="Path 469" d="M217.333,26.678a9.715,9.715,0,0,0-.142,1.4c-.082.012-.164.024-.246.032-1.115.137-1.678-.168-1.963-.548a1.45,1.45,0,0,1-.257-.636,1.4,1.4,0,0,1-.015-.392,5.3,5.3,0,0,0,2.244.185C217.186,26.7,217.333,26.678,217.333,26.678Z" transform="translate(-207.928 -16.581)" fill="#263238"/>
          <path id="Path_470" data-name="Path 470" d="M216.952,26.719l-.053.412a3.344,3.344,0,0,1-2.176-.2,1.4,1.4,0,0,1-.015-.392A5.3,5.3,0,0,0,216.952,26.719Z" transform="translate(-207.928 -16.581)" fill="#fff"/>
          <path id="Path_471" data-name="Path 471" d="M218.9,35.181c-1.115.137-1.678-.168-1.963-.548a3.612,3.612,0,0,1,1.269.094A1.354,1.354,0,0,1,218.9,35.181Z" transform="translate(-209.884 -23.652)" fill="#de5753"/>
          <path id="Path_472" data-name="Path 472" d="M162.885-44.253s1.055-3.475.251-5.791c0,0,6.737-4.714,8.81,2.738,0,0-.79-6.855-7.264-5.546s-4.312,10.725-.351,12.779C164.331-40.073,162.237-42.083,162.885-44.253Z" transform="translate(-160.568 53.018)" fill="#263238"/>
          <path id="Path_473" data-name="Path 473" d="M165.752,13.917a1.686,1.686,0,0,0-2.109-1.1c-1.132.39-1.146,2.9,1.872,2.817C165.947,15.622,166.089,15.164,165.752,13.917Z" transform="translate(-162.644 -4.5)" fill="#ebb376"/>
        </g>
        <path id="Path_474" data-name="Path 474" d="M179.161-38.541s3.882-1.429,6.068-.352c0,0-2.356-2.114-6.343-.124Z" transform="translate(-156.628 43.231)" fill="#263238"/>
        <path id="Path_475" data-name="Path 475" d="M161.841,90.636s4.3,3.492,8.311,3.436,5.415-4.562,5.415-4.562A22.834,22.834,0,0,0,161.841,90.636Z" transform="translate(-141.716 -69.468)" fill="#ebb376"/>
        <path id="Path_476" data-name="Path 476" d="M242.787,436.971c-1.347-4.637-2.4-8.76-3.2-12.419a114.387,114.387,0,0,1,.942-12.951S242.661,428.306,242.787,436.971Z" transform="translate(-209.731 -351.756)" opacity="0.2" style="mix-blend-mode: normal;isolation: isolate"/>
        <path id="Path_477" data-name="Path 477" d="M9.07,70.262s-2.949-4.7-3.558-7.707a3.925,3.925,0,0,0,.558-2.3c-.257-.888-2.286-3.734-3.075-3.41s-2.208,2-1.984,2.887,2.35,3.09,2.35,3.09,1.675,6.918,3.272,8.758S9.07,70.262,9.07,70.262Z" transform="translate(-0.987 -41.357)" fill="#ebb376"/>
        <path id="Path_478" data-name="Path 478" d="M34.672,116.3c1.5-.208,4.525,2.719,4.064,5.249s-4.7,9.645-7.968,9.092c-4.62-.782-9.7-12.961-9.7-12.961l2.536-2.21s5.982,10.363,7.162,10.16S34.672,116.3,34.672,116.3Z" transform="translate(-18.558 -92.677)" fill="#263238"/>
        <path id="Path_479" data-name="Path 479" d="M34.672,116.3c1.5-.208,4.525,2.719,4.064,5.249s-4.7,9.645-7.968,9.092c-4.62-.782-9.7-12.961-9.7-12.961l2.536-2.21s5.982,10.363,7.162,10.16S34.672,116.3,34.672,116.3Z" transform="translate(-18.558 -92.677)" fill="#fff" opacity="0.05" style="mix-blend-mode: normal;isolation: isolate"/>
        <path id="Path_480" data-name="Path 480" d="M12.8,111.656l3.7-2.221.586.958-3.492,3.09Z" transform="translate(-11.321 -87.395)" fill="#263238"/>
        <path id="Path_481" data-name="Path 481" d="M386.129,145.649l3,3.709.521-1.164-2.694-3.132Z" transform="translate(-337.942 -118.565)" fill="#263238"/>
        <g id="Group_378" data-name="Group 378" transform="translate(49.392 15.901)">
          <path id="Path_482" data-name="Path 482" d="M397.393,68.153l4.737-5.769a.446.446,0,0,1,.651-.041l2.111,1.993a.446.446,0,0,1,.04.606l-4.81,5.9a.446.446,0,0,1-.668.027l-2.038-2.126A.446.446,0,0,1,397.393,68.153Z" transform="translate(-397.101 -61.988)" fill="#407bff"/>
          <path id="Path_483" data-name="Path 483" d="M397.393,68.153l4.737-5.769a.446.446,0,0,1,.651-.041l2.111,1.993a.446.446,0,0,1,.04.606l-4.81,5.9a.446.446,0,0,1-.668.027l-2.038-2.126A.446.446,0,0,1,397.393,68.153Z" transform="translate(-397.101 -61.988)" opacity="0.3" style="mix-blend-mode: normal;isolation: isolate"/>
          <path id="Path_484" data-name="Path 484" d="M395.868,66.3l4.737-5.769a.446.446,0,0,1,.651-.041l2.111,1.993a.446.446,0,0,1,.04.607l-4.81,5.9a.446.446,0,0,1-.668.027l-2.038-2.126A.447.447,0,0,1,395.868,66.3Z" transform="translate(-395.767 -60.365)" fill="#407bff"/>
          <path id="Path_485" data-name="Path 485" d="M404.362,63.524l2.341,2.264-4.581,5.636-2.28-2.394Z" transform="translate(-399.333 -63.129)" fill="#fff" opacity="0.6" style="mix-blend-mode: normal;isolation: isolate"/>
        </g>
      </g>
    </g>
  </g>
</svg>
